<svg xmlns="http://www.w3.org/2000/svg" width="839" height="349" fill="none">
    <mask id="a" width="839" height="280" x="0" y="7" maskUnits="userSpaceOnUse" style="mask-type:luminance">
        <path fill="#fff" d="M.04 7.736h838.919v278.631H.04V7.737Z"/>
    </mask>
    <g mask="url(#a)">
        <path stroke="#fff" stroke-miterlimit="10" stroke-width=".375"
              d="M-67.47 42.299c47.214-9.367 94.424-18.73 141.634-28.096 10.25-2.031 21.327-3.978 30.787.457 8.586 4.026 14.056 12.502 19.069 20.554 23.217 37.317 46.438 74.639 69.658 111.956 14.069 22.613 28.424 45.571 48.404 63.18 24.159 21.298 56.039 33.651 88.242 34.201 58.927 1 111.348-35.205 168.107-51.082 39.102-10.932 80.255-12.13 120.833-10.766 106.344 3.58 217.899 27.218 296.26 99.186"/>
    </g>
    <mask id="b" width="839" height="266" x="0" y="19" maskUnits="userSpaceOnUse" style="mask-type:luminance">
        <path fill="#fff" d="M.04 19.13h838.919v265.165H.04V19.13Z"/>
    </mask>
    <g mask="url(#b)">
        <path stroke="#fff" stroke-miterlimit="10" stroke-width=".375"
              d="M-68.533 51.729c27.258-4.803 54.351-9.217 81.675-14.218 16.702-3.055 33.428-6.34 50.13-9.674 3.112-.623 6.228-1.247 9.34-1.874 10.232-2.055 21.25-4.042 30.713.09 8.586 3.75 14.174 11.765 19.312 19.368 23.808 35.221 47.15 70.463 71.147 105.106 9.606 13.866 19.632 27.618 31.277 40.424 5.955 6.559 12.393 12.871 19.393 18.738 6.676 5.587 13.829 10.706 21.205 15.322 6.822 4.261 13.814 8.032 21.19 11.123 14.558 6.102 30.511 9.403 46.485 9.747 58.653 1.157 111.014-34.46 167.331-50.706 38.851-11.215 79.628-13.178 119.919-12.514 15.67.251 31.466.955 47.267 2.213 25.7 2.039 51.442 5.551 76.621 11.135 22.164 4.916 43.847 11.426 64.737 19.543 39.086 15.181 75.436 36.002 106.741 64.179"/>
    </g>
    <mask id="c" width="839" height="253" x="0" y="30" maskUnits="userSpaceOnUse" style="mask-type:luminance">
        <path fill="#fff" d="M.04 30.523h838.919v251.7H.04v-251.7Z"/>
    </mask>
    <g mask="url(#c)">
        <path stroke="#fff" stroke-miterlimit="10" stroke-width=".375"
              d="M-69.602 61.164c27.162-4.183 53.972-7.582 81.254-12.146 16.678-2.792 33.41-6.049 50.08-9.407 3.106-.623 6.214-1.254 9.321-1.886 10.213-2.075 21.174-4.106 30.637-.275 8.59 3.476 14.291 11.03 19.559 18.18 24.402 33.12 47.89 66.327 72.64 98.259 9.917 12.798 20.526 25.179 32.721 37.18a256.619 256.619 0 0 0 20.21 17.969c6.919 5.498 14.231 10.693 21.59 15.569 6.798 4.495 13.591 8.606 20.911 11.985 14.444 6.672 30.746 10.204 47.02 10.625 58.377 1.315 110.677-33.713 166.558-50.33 38.595-11.503 79-14.226 119.008-14.271 15.565-.024 31.26.409 46.979 1.417 25.576 1.638 51.252 4.794 76.367 10.285 22.107 4.835 43.689 11.454 64.494 19.607 38.908 15.25 75.197 35.913 106.64 63.641"/>
    </g>
    <mask id="d" width="839" height="240" x="0" y="41" maskUnits="userSpaceOnUse" style="mask-type:luminance">
        <path fill="#fff" d="M.04 41.917h838.919v238.235H.04V41.917Z"/>
    </mask>
    <g mask="url(#d)">
        <path stroke="#fff" stroke-miterlimit="10" stroke-width=".375"
              d="M-70.666 70.592c27.052-3.553 53.587-5.944 80.833-10.08 16.65-2.524 33.38-5.757 50.026-9.127a6344.76 6344.76 0 0 0 9.306-1.902c10.192-2.1 21.097-4.171 30.561-.643 8.589 3.2 14.404 10.301 19.801 16.993 24.993 31.026 48.667 62.226 74.129 91.41 10.253 11.75 21.42 22.743 34.165 33.939 6.502 5.737 13.567 11.519 21.032 17.192 7.158 5.409 14.635 10.685 21.974 15.824 6.774 4.726 13.373 9.177 20.636 12.842 14.331 7.239 30.985 11.046 47.553 11.507 58.103 1.611 110.35-32.971 165.79-49.957 38.345-11.782 78.369-15.27 118.094-16.018 15.456-.3 31.054-.134 46.696.619 25.446 1.23 51.058 4.034 76.115 9.435 22.047 4.75 43.524 11.483 64.244 19.676 38.734 15.319 74.958 35.829 106.534 63.099"/>
    </g>
    <mask id="e" width="839" height="225" x="0" y="54" maskUnits="userSpaceOnUse" style="mask-type:luminance">
        <path fill="#fff" d="M.04 54.347h838.919V278.08H.04V54.347Z"/>
    </mask>
    <g mask="url(#e)">
        <path stroke="#fff" stroke-miterlimit="10" stroke-width=".375"
              d="M-71.734 80.027c26.95-2.933 53.21-4.31 80.412-8.011 16.621-2.266 33.356-5.467 49.978-8.853 3.099-.635 6.194-1.275 9.29-1.918 10.171-2.12 21.023-4.236 30.483-1.011 8.59 2.929 14.525 9.568 20.048 15.803 25.588 28.934 49.488 58.155 75.622 84.564 10.601 10.714 22.314 20.303 35.61 30.694 6.773 5.333 14.153 10.843 21.849 16.415 7.4 5.325 15.035 10.678 22.359 16.075 6.749 4.965 13.149 9.747 20.352 13.704 14.218 7.809 31.223 11.863 48.092 12.385 57.823 1.805 110.009-32.223 165.012-49.577 38.094-12.073 77.738-16.317 117.179-17.774 15.351-.575 30.852-.68 46.409-.174 25.321.821 50.868 3.273 75.865 8.582 21.986 4.673 43.362 11.515 63.997 19.749 38.556 15.387 74.716 35.739 106.429 62.561"/>
    </g>
    <mask id="f" width="839" height="212" x="0" y="65" maskUnits="userSpaceOnUse" style="mask-type:luminance">
        <path fill="#fff" d="M.04 65.741h838.919V276.01H.04V65.741Z"/>
    </mask>
    <g mask="url(#f)">
        <path stroke="#fff" stroke-miterlimit="10" stroke-width=".375"
              d="M-72.798 89.46c26.842-2.31 52.826-2.67 79.988-5.944 16.6-1.999 33.336-5.167 49.925-8.578 3.09-.635 6.182-1.278 9.273-1.934 10.156-2.14 20.947-4.297 30.407-1.375 8.59 2.654 14.643 8.832 20.295 14.618 26.174 26.834 50.37 54.101 77.107 77.718 10.981 9.694 23.233 17.835 37.058 27.449 7.053 4.908 14.736 10.171 22.67 15.646 7.635 5.236 15.436 10.665 22.74 16.326 6.728 5.195 12.927 10.322 20.072 14.562 14.105 8.379 31.467 12.672 48.627 13.267 57.551 1.991 109.677-31.479 164.243-49.205 37.843-12.356 77.107-17.366 116.261-19.526 15.25-.85 30.649-1.226 46.13-.971 25.187.412 50.673 2.512 75.609 7.732 21.922 4.592 43.201 11.539 63.751 19.818 38.381 15.456 74.473 35.65 106.324 62.022"/>
    </g>
    <mask id="g" width="839" height="197" x="0" y="77" maskUnits="userSpaceOnUse" style="mask-type:luminance">
        <path fill="#fff" d="M.04 77.134h838.919v196.802H.04V77.134Z"/>
    </mask>
    <g mask="url(#g)">
        <path stroke="#fff" stroke-miterlimit="10" stroke-width=".375"
              d="M-73.866 98.89c26.745-1.687 52.445-1.036 79.567-3.872 16.572-1.736 33.311-4.88 49.876-8.307 3.087-.635 6.174-1.286 9.253-1.942 10.136-2.165 20.874-4.366 30.338-1.748 8.59 2.38 14.756 8.1 20.538 13.437 26.765 24.738 51.325 50.055 78.6 70.864 11.386 8.691 24.127 15.391 38.499 24.208 7.327 4.495 15.322 9.496 23.487 14.869 7.878 5.151 15.841 10.653 23.124 16.577 6.704 5.43 12.709 10.892 19.793 15.42 13.992 8.95 31.706 13.489 49.165 14.149 57.272 2.173 109.342-30.734 163.466-48.829 37.597-12.64 76.48-18.413 115.351-21.274 15.145-1.133 30.443-1.776 45.842-1.768 25.062.004 50.484 1.752 75.359 6.882 21.865 4.508 43.039 11.568 63.5 19.887 38.207 15.525 74.234 35.561 106.222 61.481"/>
    </g>
    <mask id="h" width="839" height="184" x="0" y="88" maskUnits="userSpaceOnUse" style="mask-type:luminance">
        <path fill="#fff" d="M.04 88.528h838.919v183.337H.04V88.528Z"/>
    </mask>
    <g mask="url(#h)">
        <path stroke="#fff" stroke-miterlimit="10" stroke-width=".375"
              d="M-74.93 108.322c26.635-1.064 52.065.603 79.141-1.805 16.549-1.472 33.288-4.584 49.824-8.027 3.083-.647 6.162-1.299 9.237-1.966 10.12-2.185 20.797-4.427 30.261-2.108 8.59 2.1 14.87 7.363 20.785 12.243 27.356 22.642 52.365 46 80.089 64.018 11.831 7.683 25.021 12.947 39.943 20.962 7.598 4.087 15.913 8.821 24.309 14.101 8.112 5.058 16.241 10.645 23.504 16.828 6.68 5.664 12.486 11.462 19.514 16.281 13.882 9.517 31.948 14.299 49.699 15.032 57.001 2.35 109.006-29.99 162.694-48.461 37.341-12.923 75.848-19.453 114.436-23.026 15.039-1.408 30.24-2.322 45.559-2.565 24.932-.401 50.285.991 75.108 6.033 21.8 4.426 42.876 11.596 63.253 19.955 38.029 15.59 73.991 35.468 106.113 60.938"/>
    </g>
    <mask id="i" width="839" height="170" x="0" y="99" maskUnits="userSpaceOnUse" style="mask-type:luminance">
        <path fill="#fff" d="M.04 99.922h838.919v168.836H.04V99.922Z"/>
    </mask>
    <g mask="url(#i)">
        <path stroke="#fff" stroke-miterlimit="10" stroke-width=".375"
              d="M-75.998 117.756c26.534-.437 51.685 2.238 78.721.259 16.524-1.205 33.267-4.288 49.775-7.752 3.08-.647 6.15-1.307 9.221-1.978 10.095-2.21 20.72-4.492 30.184-2.481 8.59 1.829 14.987 6.636 21.032 11.062 27.946 20.542 53.49 41.918 81.578 57.168 12.308 6.68 25.915 10.503 41.387 17.718a282.096 282.096 0 0 1 25.131 13.323c8.343 4.989 16.645 10.634 23.888 17.083 6.66 5.899 12.264 12.037 19.235 17.143 13.769 10.087 32.187 15.109 50.233 15.91 56.726 2.52 108.674-29.246 161.925-48.084 37.091-13.207 75.221-20.506 113.521-24.779 14.931-1.683 30.035-2.864 45.277-3.358 24.802-.809 50.09.231 74.852 5.179 21.74 4.35 42.715 11.629 63.006 20.024 37.856 15.663 73.753 35.388 106.009 60.405"/>
    </g>
    <mask id="j" width="839" height="155" x="0" y="112" maskUnits="userSpaceOnUse" style="mask-type:luminance">
        <path fill="#fff" d="M.04 112.352h838.919v154.334H.04V112.352Z"/>
    </mask>
    <g mask="url(#j)">
        <path stroke="#fff" stroke-miterlimit="10" stroke-width=".375"
              d="M-77.063 127.189c26.43.186 51.305 3.876 78.297 2.331 16.5-.943 33.243-3.998 49.722-7.478a988.775 988.775 0 0 0 9.21-1.99c10.074-2.234 20.647-4.56 30.106-2.845 8.59 1.55 15.105 5.899 21.279 9.873 28.537 18.446 54.699 37.786 83.071 50.321 12.818 5.661 26.809 8.064 42.832 14.477 8.141 3.261 17.074 7.485 25.947 12.551 8.582 4.9 17.047 10.621 24.269 17.33 6.636 6.129 12.045 12.607 18.956 18.001 13.656 10.657 32.426 15.921 50.771 16.795 56.451 2.691 108.338-28.497 161.152-47.712 36.84-13.493 74.586-21.549 112.607-26.526 14.825-1.962 29.828-3.415 44.989-4.159 24.677-1.218 49.901-.526 74.602 4.329 21.683 4.269 42.549 11.657 62.755 20.097 37.682 15.727 73.514 35.294 105.907 59.862"/>
    </g>
    <mask id="k" width="839" height="142" x="0" y="123" maskUnits="userSpaceOnUse" style="mask-type:luminance">
        <path fill="#fff" d="M.04 123.745h838.919v140.869H.04V123.745Z"/>
    </mask>
    <g mask="url(#k)">
        <path stroke="#fff" stroke-miterlimit="10" stroke-width=".375"
              d="M-78.13 136.62c26.327.809 50.923 5.514 77.875 4.398 16.475-.68 33.218-3.703 49.674-7.206 3.067-.652 6.13-1.319 9.188-2.003 10.059-2.254 20.57-4.625 30.03-3.213 8.595 1.279 15.222 5.163 21.522 8.687 29.132 16.35 55.982 33.583 84.56 43.467 13.364 4.621 27.703 5.62 44.276 11.236 8.416 2.853 17.665 6.81 26.769 11.779 8.825 4.815 17.451 10.613 24.653 17.58 6.611 6.369 11.823 13.178 18.681 18.859 13.542 11.228 32.664 16.727 51.305 17.673 56.172 2.853 108.002-27.752 160.375-47.335 36.589-13.773 73.959-22.594 111.693-28.278 14.724-2.238 29.626-3.957 44.71-4.957 24.547-1.622 49.706-1.291 74.347 3.48 21.622 4.188 42.391 11.685 62.512 20.166 37.508 15.796 73.267 35.205 105.798 59.32"/>
    </g>
    <mask id="l" width="839" height="129" x="0" y="135" maskUnits="userSpaceOnUse" style="mask-type:luminance">
        <path fill="#fff" d="M.04 135.14h838.919v128.439H.04V135.14Z"/>
    </mask>
    <g mask="url(#l)">
        <path stroke="#fff" stroke-miterlimit="10" stroke-width=".375"
              d="M-79.195 146.052c26.218 1.432 50.54 7.153 77.45 6.469 16.452-.416 33.199-3.411 49.626-6.931a776.035 776.035 0 0 0 9.172-2.023c10.035-2.274 20.494-4.685 29.958-3.581 8.594 1.004 15.335 4.435 21.764 7.506 29.723 14.25 57.317 29.302 86.052 36.617 13.931 3.549 28.598 3.185 45.721 7.991 8.687 2.44 18.248 6.134 27.587 11.006 9.063 4.726 17.855 10.601 25.037 17.831 6.591 6.599 11.604 13.749 18.402 19.721 13.429 11.794 32.899 17.531 51.839 18.555 55.901 3.014 107.671-27.008 159.607-46.963 36.338-14.06 73.327-23.646 110.778-30.03 14.615-2.513 29.419-4.508 44.422-5.754 24.414-2.031 49.512-2.047 74.097 2.63 21.561 4.103 42.225 11.714 62.261 20.235 37.334 15.864 73.028 35.116 105.697 58.782"/>
    </g>
    <mask id="m" width="839" height="120" x="0" y="146" maskUnits="userSpaceOnUse" style="mask-type:luminance">
        <path fill="#fff" d="M.04 146.533h838.919V265.65H.04V146.533Z"/>
    </mask>
    <g mask="url(#m)">
        <path stroke="#fff" stroke-miterlimit="10" stroke-width=".375"
              d="M-80.263 155.484c26.122 2.055 50.164 8.792 77.034 8.537 16.423-.154 33.17-3.12 49.57-6.656 3.058-.659 6.109-1.339 9.151-2.035 10.023-2.298 20.421-4.75 29.885-3.945 8.594.728 15.452 3.702 22.011 6.312 30.313 12.158 58.689 24.936 87.541 29.771 14.522 2.436 29.492.741 47.166 4.75 8.958 2.031 18.839 5.458 28.412 10.229 9.298 4.637 18.252 10.593 25.417 18.086 6.563 6.83 11.378 14.319 18.119 20.578 13.32 12.365 33.146 18.337 52.377 19.434 55.622 3.168 107.335-26.263 158.834-46.587 36.087-14.343 72.7-24.689 109.868-31.782 14.509-2.788 29.217-5.05 44.135-6.547 24.289-2.44 49.322-2.812 73.841 1.776 21.501 4.026 42.068 11.742 62.019 20.304 37.155 15.937 72.785 35.035 105.587 58.244"/>
    </g>
    <mask id="n" width="839" height="110" x="0" y="157" maskUnits="userSpaceOnUse" style="mask-type:luminance">
        <path fill="#fff" d="M.04 157.928h838.919v108.759H.04V157.928Z"/>
    </mask>
    <g mask="url(#n)">
        <path stroke="#fff" stroke-miterlimit="10" stroke-width=".375"
              d="M-81.327 164.915c26.012 2.683 49.78 10.427 76.609 10.605 16.403.113 33.15-2.824 49.52-6.381a671.953 671.953 0 0 0 9.14-2.051c9.998-2.318 20.344-4.815 29.808-4.313 8.594.449 15.57 2.966 22.254 5.126 30.9 10.063 60.307 27.324 89.03 22.926 14.991-2.299 30.387-1.696 48.61 1.505 9.229 1.622 19.426 4.782 29.229 9.455 9.541 4.548 18.657 10.581 25.798 18.337 6.543 7.065 11.159 14.894 17.848 21.437 13.202 12.935 33.38 19.142 52.911 20.315 55.35 3.326 106.999-25.515 158.061-46.21 35.836-14.631 72.069-25.738 108.95-33.534 14.408-3.067 29.014-5.6 43.855-7.344 24.16-2.849 49.128-3.569 73.591.926 21.44 3.945 41.905 11.77 61.768 20.372 36.981 16.003 72.546 34.943 105.486 57.702"/>
    </g>
    <mask id="o" width="839" height="102" x="0" y="166" maskUnits="userSpaceOnUse" style="mask-type:luminance">
        <path fill="#fff" d="M.04 166.213h838.919v101.509H.04V166.213Z"/>
    </mask>
    <g mask="url(#o)">
        <path stroke="#fff" stroke-miterlimit="10" stroke-width=".375"
              d="M-82.395 174.346c25.91 3.306 49.398 12.065 76.192 12.676 16.37.373 33.125-2.532 49.468-6.105 3.046-.668 6.089-1.356 9.123-2.068 9.982-2.342 20.267-4.879 29.731-4.681 8.594.178 15.687 2.237 22.505 3.945 31.491 7.963 62.164 22.476 90.519 16.071 15.319-3.455 31.277-4.131 50.055-1.736 9.5 1.21 20.02 4.087 30.046 8.683 9.792 4.443 19.057 10.569 26.183 18.588 6.522 7.299 10.94 15.464 17.568 22.298 13.089 13.506 33.619 19.943 53.449 21.198 55.071 3.475 106.663-24.775 157.284-45.839 35.586-14.91 71.438-26.785 108.035-35.286 14.303-3.342 28.809-6.142 43.569-8.141 24.034-3.253 48.938-4.329 73.34.077 21.379 3.864 41.743 11.803 61.525 20.441 36.807 16.075 72.304 34.857 105.381 57.164"/>
    </g>
    <mask id="p" width="839" height="105" x="0" y="165" maskUnits="userSpaceOnUse" style="mask-type:luminance">
        <path fill="#fff" d="M.04 165.178h838.919v104.616H.04V165.178Z"/>
    </mask>
    <g mask="url(#p)">
        <path stroke="#fff" stroke-miterlimit="10" stroke-width=".375"
              d="M-83.464 183.782c25.806 3.929 49.019 13.7 75.768 14.74 16.346.639 33.1-2.238 49.419-5.831a575.994 575.994 0 0 0 9.104-2.079c9.961-2.363 20.194-4.945 29.657-5.054 8.59-.093 15.8 1.501 22.748 2.756 32.081 5.866 63.9 17.446 92.008 9.225 15.659-4.581 32.171-6.571 51.499-4.981 9.767.805 20.603 3.411 30.868 7.91 10.026 4.354 19.462 10.556 26.567 18.839 6.494 7.534 10.714 16.034 17.285 23.156 12.976 14.072 33.857 20.748 53.983 22.079 54.8 3.621 106.332-24.026 156.515-45.466 35.331-15.193 70.807-27.829 107.121-37.038 14.194-3.617 28.606-6.688 43.286-8.934 23.904-3.661 48.743-5.09 73.084-.773 21.319 3.784 41.582 11.827 61.279 20.51 36.633 16.144 72.065 34.764 105.275 56.625"/>
    </g>
    <mask id="q" width="839" height="108" x="0" y="163" maskUnits="userSpaceOnUse" style="mask-type:luminance">
        <path fill="#fff" d="M.04 163.106h838.919V270.83H.04V163.106Z"/>
    </mask>
    <g mask="url(#q)">
        <path stroke="#fff" stroke-miterlimit="10" stroke-width=".375"
              d="M-84.531 193.214c25.705 4.552 48.642 15.335 75.346 16.811 16.326.903 33.081-1.942 49.367-5.555a534.51 534.51 0 0 0 9.092-2.096c9.94-2.387 20.113-5.009 29.58-5.418 8.595-.372 15.918.765 22.995 1.57 32.672 3.767 64.102 6.676 93.501 2.375 16.828-2.464 33.065-9.01 52.94-8.225 10.046.396 21.197 2.735 31.689 7.137 10.269 4.265 19.862 10.548 26.947 19.09 6.474 7.764 10.495 16.605 17.006 24.017 12.866 14.643 34.1 21.546 54.521 22.958 54.525 3.767 105.996-23.281 155.743-45.09 35.08-15.48 70.18-28.877 106.206-38.79 14.089-3.896 28.4-7.234 42.998-9.731 23.775-4.074 48.553-5.851 72.834-1.626 21.258 3.702 41.42 11.855 61.028 20.582 36.459 16.209 71.826 34.675 105.174 56.083"/>
    </g>
    <mask id="r" width="839" height="110" x="0" y="162" maskUnits="userSpaceOnUse" style="mask-type:luminance">
        <path fill="#fff" d="M.04 162.07h838.919v109.795H.04V162.07Z"/>
    </mask>
    <g mask="url(#r)">
        <path stroke="#fff" stroke-miterlimit="10" stroke-width=".375"
              d="M-85.596 202.645c25.6 5.175 48.258 16.973 74.922 18.879 16.298 1.165 33.057-1.651 49.318-5.28 3.03-.676 6.053-1.38 9.068-2.112 9.925-2.404 20.044-5.07 29.508-5.782 8.594-.647 16.034.032 23.237.38 33.267 1.671 65.364 1.979 94.99-4.475 17.354-3.775 33.959-11.523 54.388-11.462 10.313.028 21.78 2.059 32.506 6.36 10.508 4.18 20.267 10.54 27.332 19.341 6.449 8.003 10.277 17.179 16.73 24.875 12.754 15.213 34.34 22.347 55.056 23.84 54.254 3.908 105.66-22.533 154.97-44.714 34.829-15.763 69.548-29.925 105.292-40.542 13.983-4.171 28.193-7.78 42.715-10.528 23.645-4.475 48.359-6.611 72.579-2.476 21.197 3.621 41.258 11.883 60.78 20.651 36.282 16.278 71.584 34.591 105.07 55.541"/>
    </g>
    <mask id="s" width="839" height="113" x="0" y="161" maskUnits="userSpaceOnUse" style="mask-type:luminance">
        <path fill="#fff" d="M.04 161.035h838.919v112.903H.04V161.035Z"/>
    </mask>
    <g mask="url(#s)">
        <path stroke="#fff" stroke-miterlimit="10" stroke-width=".375"
              d="M-86.664 212.077c25.498 5.802 47.878 18.612 74.501 20.946 16.273 1.429 33.032-1.359 49.265-5.005a479.278 479.278 0 0 0 9.056-2.124c9.904-2.431 19.963-5.134 29.431-6.15 8.598-.926 16.148-.7 23.484-.805 33.853-.425 66.562-2.751 96.479-11.325 17.852-5.114 34.853-13.838 55.832-14.708 10.585-.404 22.367 1.384 33.328 5.592 10.747 4.087 20.668 10.524 27.712 19.591 6.425 8.234 10.055 17.751 16.451 25.734 12.636 15.783 34.579 23.143 55.59 24.721 53.979 4.046 105.324-21.788 154.193-44.341 34.578-16.047 68.922-30.969 104.382-42.29 13.878-4.451 27.991-8.327 42.431-11.329 23.516-4.884 48.165-7.368 72.328-3.326 21.141 3.54 41.097 11.912 60.534 20.716 36.108 16.346 71.345 34.501 104.964 55.007"/>
    </g>
    <mask id="t" width="839" height="117" x="0" y="158" maskUnits="userSpaceOnUse" style="mask-type:luminance">
        <path fill="#fff" d="M.04 158.963h838.919v116.01H.04v-116.01Z"/>
    </mask>
    <g mask="url(#t)">
        <path stroke="#fff" stroke-miterlimit="10" stroke-width=".375"
              d="M-87.728 221.507c25.393 6.426 47.493 20.251 74.076 23.019 16.249 1.691 33.012-1.069 49.217-4.734a455.73 455.73 0 0 0 9.038-2.141c9.885-2.448 19.887-5.199 29.355-6.518 8.598-1.198 16.265-1.432 23.726-1.987 34.449-2.524 67.72-7.485 97.973-18.175 18.321-6.469 35.747-16.277 57.277-17.952 10.859-.81 22.953.708 34.145 4.815 10.989 4.001 21.068 10.515 28.096 19.842 6.409 8.468 9.832 18.324 16.172 26.595 12.527 16.35 34.821 23.945 56.124 25.603 53.708 4.18 104.992-21.043 153.424-43.969 34.327-16.33 68.29-32.016 103.467-44.041 13.773-4.722 27.785-8.874 42.149-12.123 23.386-5.288 47.966-8.128 72.073-4.179 21.076 3.463 40.934 11.944 60.287 20.789 35.933 16.419 71.102 34.412 104.859 54.468"/>
    </g>
    <mask id="u" width="839" height="120" x="0" y="157" maskUnits="userSpaceOnUse" style="mask-type:luminance">
        <path fill="#fff" d="M.04 157.928h838.919v118.081H.04V157.928Z"/>
    </mask>
    <g mask="url(#u)">
        <path stroke="#fff" stroke-miterlimit="10" stroke-width=".375"
              d="M-88.796 230.94c25.288 7.048 47.117 21.885 73.66 25.086 16.22 1.954 32.987-.769 49.164-4.455 3.014-.688 6.02-1.408 9.019-2.157 9.868-2.472 19.817-5.264 29.281-6.886 8.594-1.469 16.383-2.165 23.974-3.176 35.035-4.621 68.824-12.228 99.461-25.026 18.762-7.833 36.646-18.717 58.721-21.193 11.131-1.222 23.54.032 34.967 4.046 11.228 3.909 21.472 10.504 28.48 20.089 6.381 8.707 9.61 18.895 15.893 27.461 12.414 16.917 35.06 24.734 56.662 26.478 53.433 4.317 104.653-20.296 152.648-43.589 34.076-16.617 67.663-33.065 102.552-45.798 13.668-5.001 27.583-9.419 41.865-12.919 23.257-5.697 47.777-8.889 71.819-5.029 21.019 3.378 40.772 11.972 60.04 20.857 35.759 16.484 70.859 34.327 104.754 53.931"/>
    </g>
    <mask id="v" width="839" height="124" x="0" y="155" maskUnits="userSpaceOnUse" style="mask-type:luminance">
        <path fill="#fff" d="M.04 155.855h838.919V278.08H.04V155.855Z"/>
    </mask>
    <g mask="url(#v)">
        <path stroke="#fff" stroke-miterlimit="10" stroke-width=".375"
              d="M-89.86 240.37c25.183 7.672 46.732 23.525 73.234 27.158 16.193 2.217 32.964-.482 49.112-4.184a421.122 421.122 0 0 0 9.007-2.173c9.848-2.492 19.74-5.324 29.204-7.25 8.594-1.748 16.496-2.897 24.216-4.362 35.63-6.72 69.881-16.965 100.955-31.871 19.182-9.201 37.54-21.153 60.165-24.438 11.406-1.631 24.127-.644 35.784 3.269 11.467 3.823 21.873 10.491 28.861 20.344 6.361 8.937 9.391 19.465 15.614 28.314 12.3 17.488 35.302 25.531 57.2 27.364 53.158 4.447 104.321-19.551 151.875-43.216 33.829-16.901 67.032-34.109 101.638-47.55 13.563-5.276 27.38-9.966 41.578-13.712 23.127-6.106 47.586-9.65 71.567-5.879 20.959 3.297 40.611 12 59.79 20.926 35.585 16.553 70.62 34.234 104.652 53.384"/>
    </g>
    <mask id="w" width="839" height="131" x="0" y="154" maskUnits="userSpaceOnUse" style="mask-type:luminance">
        <path fill="#fff" d="M.04 154.819h838.919v129.476H.04V154.819Z"/>
    </mask>
    <g mask="url(#w)">
        <path stroke="#fff" stroke-miterlimit="10" stroke-width=".375"
              d="M-90.929 249.806c25.082 8.295 46.357 25.159 72.814 29.221 16.172 2.484 32.94-.186 49.063-3.905 3.007-.691 6-1.424 8.987-2.188 9.828-2.517 19.664-5.39 29.132-7.619 8.594-2.019 16.613-3.63 24.462-5.548 36.217-8.816 70.9-21.691 102.44-38.717 19.579-10.568 38.434-23.597 61.61-27.687 11.673-2.035 24.713-1.319 36.605 2.496 11.705 3.739 22.274 10.488 29.245 20.595 6.336 9.168 9.169 20.04 15.335 29.176 12.187 18.058 35.541 26.324 57.734 28.242 52.887 4.576 103.985-18.81 151.102-42.844 33.579-17.184 66.405-35.157 100.724-49.294 13.453-5.555 27.173-10.516 41.294-14.513 22.998-6.514 47.392-10.411 71.317-6.729 20.898 3.217 40.449 12.029 59.543 20.996 35.407 16.621 70.382 34.149 104.543 52.846"/>
    </g>
    <mask id="x" width="839" height="145" x="0" y="152" maskUnits="userSpaceOnUse" style="mask-type:luminance">
        <path fill="#fff" d="M.04 152.748h838.919v143.977H.04V152.748Z"/>
    </mask>
    <g mask="url(#x)">
        <path stroke="#fff" stroke-miterlimit="10" stroke-width=".375"
              d="M-91.993 259.237c24.977 8.922 45.972 26.802 72.389 31.289 16.144 2.747 32.919.109 49.01-3.629a370.837 370.837 0 0 0 8.97-2.202c9.812-2.536 19.592-5.458 29.056-7.987 8.598-2.298 16.73-4.365 24.71-6.736 36.811-10.913 71.886-26.409 103.932-45.568 19.955-11.932 39.328-26.032 63.054-30.924 11.948-2.452 25.3-1.995 37.423 1.724 11.944 3.645 22.678 10.471 29.629 20.845 6.312 9.407 8.946 20.611 15.056 30.034 12.077 18.629 35.784 27.073 58.268 29.124 52.628 4.601 103.653-18.061 150.333-42.468 33.324-17.467 65.774-36.204 99.814-51.049 13.348-5.831 26.967-11.058 41.011-15.307 22.868-6.923 47.198-11.171 71.062-7.582 20.837 3.136 40.287 12.061 59.295 21.064 35.234 16.69 70.14 34.056 104.439 52.308"/>
    </g>
    <mask id="y" width="839" height="158" x="0" y="151" maskUnits="userSpaceOnUse" style="mask-type:luminance">
        <path fill="#fff" d="M.04 151.712h838.919v156.406H.04V151.712Z"/>
    </mask>
    <g mask="url(#y)">
        <path stroke="#fff" stroke-miterlimit="10" stroke-width=".375"
              d="M-93.06 268.669c24.875 9.545 45.595 28.436 71.968 33.36 16.12 3.011 32.895.401 48.962-3.358 2.994-.7 5.98-1.44 8.954-2.217 9.787-2.557 19.51-5.519 28.978-8.351 8.598-2.574 16.848-5.098 24.952-7.922 37.402-13.009 72.846-31.111 105.422-52.418 20.319-13.291 40.226-28.472 64.499-34.169 12.219-2.857 25.891-2.671 38.247.947 12.179 3.56 23.08 10.463 30.006 21.096 6.292 9.642 8.724 21.181 14.777 30.896 11.964 19.199 36.03 27.874 58.806 30.006 52.353 4.754 103.321-17.321 149.56-42.096 33.073-17.754 65.143-37.248 98.895-52.801 13.247-6.106 26.765-11.605 40.724-16.1 22.748-7.331 47.008-11.932 70.811-8.432 20.777 3.055 40.126 12.09 59.049 21.133 35.06 16.763 69.897 33.971 104.333 51.77"/>
    </g>
    <mask id="z" width="839" height="171" x="0" y="149" maskUnits="userSpaceOnUse" style="mask-type:luminance">
        <path fill="#fff" d="M.04 149.641h838.919v169.871H.04V149.641Z"/>
    </mask>
    <g mask="url(#z)">
        <path stroke="#fff" stroke-miterlimit="10" stroke-width=".375"
              d="M-94.125 278.1c24.766 10.168 45.211 30.074 71.543 35.427 16.096 3.274 32.875.696 48.91-3.079a331.112 331.112 0 0 0 8.938-2.233c9.775-2.577 19.437-5.584 28.905-8.719 8.598-2.845 16.961-5.831 25.195-9.108 37.997-15.108 73.781-35.8 106.914-59.268 20.672-14.638 41.121-30.908 65.944-37.41 12.494-3.265 26.474-3.346 39.065.178 12.422 3.472 23.48 10.451 30.395 21.347 6.263 9.873 8.5 21.752 14.497 31.754 11.847 19.765 36.265 28.675 59.34 30.888 52.077 4.912 102.982-16.573 148.788-41.719 32.822-18.038 64.511-38.297 97.98-54.554 13.142-6.385 26.559-12.15 40.441-16.9 22.618-7.737 46.814-12.693 70.56-9.286 20.716 2.974 39.96 12.118 58.798 21.205 34.882 16.828 69.658 33.883 104.232 51.228"/>
    </g>
    <mask id="A" width="839" height="184" x="0" y="147" maskUnits="userSpaceOnUse" style="mask-type:luminance">
        <path fill="#fff" d="M.04 147.569h838.919v183.337H.04V147.569Z"/>
    </mask>
    <g mask="url(#A)">
        <path stroke="#fff" stroke-miterlimit="10" stroke-width=".375"
              d="M-95.193 287.537c24.665 10.787 44.83 31.709 71.122 37.495 16.071 3.536 32.85.987 48.861-2.808 62.978-14.922 120.088-48.561 171.6-87.744 21.011-15.986 42.018-33.352 67.387-40.659 25.366-7.303 56.788-1.453 70.662 21.003 6.239 10.103 8.278 22.327 14.218 32.612 11.738 20.335 36.504 29.48 59.874 31.766 51.806 5.07 102.65-15.829 148.015-41.343 45.365-25.519 88.29-56.274 137.224-74 22.488-8.148 46.623-13.453 70.309-10.135 20.655 2.893 39.797 12.142 58.551 21.274 34.708 16.897 69.419 33.789 104.127 50.69"/>
    </g>
    <mask id="B" width="839" height="168" x="0" y="152" maskUnits="userSpaceOnUse" style="mask-type:luminance">
        <path fill="#fff" d="M.04 152.748h838.919v166.764H.04V152.748Z"/>
    </mask>
    <g mask="url(#B)">
        <path stroke="#fff" stroke-miterlimit="10" stroke-width=".375"
              d="M-93.372 276.527c24.35 10.354 44.333 30.694 70.131 36.63 15.756 3.625 32.163 1.44 47.8-1.906a334.158 334.158 0 0 0 29.833-7.874c49.67-15.561 94.756-42.508 136.872-72.372 20.437-14.494 41.323-29.942 66.372-36.019 21.238-5.15 46.749-1.266 62.686 13.652a48.733 48.733 0 0 1 7.591 9.067 59.33 59.33 0 0 1 2.322 3.909c2.529 4.649 4.447 9.496 6.45 14.286 1.857 4.451 3.795 8.849 6.397 12.92 12.235 19.162 36.929 27.396 60.157 28.897 32.438 2.011 64.435-6.239 95.476-17.815 18.382-6.85 36.16-14.821 53.065-23.302a662.002 662.002 0 0 0 6.292-3.196c18.984-9.755 37.548-20.137 56.621-30.317 24.204-12.92 49.031-25.592 75.468-34.748a256.02 256.02 0 0 1 11.479-3.678c19.36-5.689 39.599-8.801 59.542-6.09 20.858 2.837 40.259 11.855 59.256 20.838 35.193 16.637 70.281 33.59 105.089 51.017"/>
    </g>
    <mask id="C" width="839" height="152" x="0" y="157" maskUnits="userSpaceOnUse" style="mask-type:luminance">
        <path fill="#fff" d="M.04 157.928h838.919v150.191H.04V157.928Z"/>
    </mask>
    <g mask="url(#C)">
        <path stroke="#fff" stroke-miterlimit="10" stroke-width=".375"
              d="M-91.552 265.522c24.03 9.917 43.832 29.678 69.132 35.763 15.444 3.711 31.483 1.894 46.737-1.007a330.274 330.274 0 0 0 29.067-6.923c48.327-13.81 91.567-38.867 132.741-65.826 19.886-13.017 40.627-26.535 65.36-31.374 20.967-4.107 46.13.393 62.177 15.408a53.771 53.771 0 0 1 7.716 9.023 69.607 69.607 0 0 1 2.424 3.823c2.67 4.516 4.758 9.1 6.91 13.623 1.999 4.204 4.075 8.352 6.782 12.171 12.733 17.985 37.353 25.369 60.44 26.029 32.321.922 64.151-8.594 95.565-19.729 18.613-6.591 36.553-13.688 53.502-21.161 2.108-.931 4.208-1.87 6.296-2.82 18.992-8.59 37.499-17.682 56.763-26.927 24.438-11.742 49.706-23.929 76.475-32.778a274.7 274.7 0 0 1 11.609-3.56c19.559-5.503 39.987-8.493 60.121-5.835 21.064 2.78 40.72 11.56 59.959 20.397 35.675 16.374 71.143 33.384 106.053 51.345"/>
    </g>
    <mask id="D" width="839" height="134" x="0" y="163" maskUnits="userSpaceOnUse" style="mask-type:luminance">
        <path fill="#fff" d="M.04 163.106h838.919v133.619H.04V163.106Z"/>
    </mask>
    <g mask="url(#D)">
        <path stroke="#fff" stroke-miterlimit="10" stroke-width=".375"
              d="M-89.731 254.517c23.714 9.48 43.337 28.662 68.132 34.897 15.132 3.788 30.799 2.343 45.68-.113a326.573 326.573 0 0 0 28.303-5.976c46.98-12.053 88.408-35.254 128.614-59.275 19.352-11.56 39.931-23.128 64.341-26.733 20.696-3.067 45.507 2.055 61.667 17.16a60.199 60.199 0 0 1 7.841 8.986 80.456 80.456 0 0 1 2.525 3.739c2.808 4.377 5.066 8.703 7.372 12.959 2.14 3.953 4.353 7.846 7.161 11.414 13.231 16.812 37.779 23.314 60.724 23.16 32.216-.21 63.876-10.953 95.659-21.646 18.846-6.329 36.941-12.547 53.934-19.013 2.112-.813 4.212-1.627 6.304-2.444 19.001-7.433 37.451-15.221 56.9-23.54 24.682-10.561 50.383-22.258 77.488-30.803a285.397 285.397 0 0 1 11.741-3.443c19.762-5.321 40.376-8.198 60.696-5.588 21.27 2.723 41.181 11.264 60.663 19.959 36.16 16.116 72.005 33.178 107.016 51.669"/>
    </g>
    <mask id="E" width="839" height="118" x="0" y="167" maskUnits="userSpaceOnUse" style="mask-type:luminance">
        <path fill="#fff" d="M.04 167.249h838.919v117.046H.04V167.249Z"/>
    </mask>
    <g mask="url(#E)">
        <path stroke="#fff" stroke-miterlimit="10" stroke-width=".375"
              d="M-87.91 243.506c23.398 9.039 42.84 27.651 67.137 34.032 14.817 3.876 30.12 2.8 44.616.789a326.073 326.073 0 0 0 27.542-5.03c45.636-10.301 85.284-31.668 124.487-52.724 18.843-10.124 39.235-19.717 63.33-22.092 20.424-2.019 44.883 3.718 61.152 18.919 2.91 2.715 5.576 5.75 7.967 8.942a127.579 127.579 0 0 1 2.634 3.654c2.942 4.248 5.374 8.311 7.83 12.3 2.286 3.702 4.632 7.34 7.55 10.662 13.728 15.638 38.211 21.25 61.003 20.291 32.114-1.352 63.596-13.312 95.755-23.565 19.077-6.065 37.329-11.406 54.367-16.868a1457.024 1457.024 0 0 0 63.354-22.217c24.916-9.383 51.054-20.591 78.491-28.833a306.22 306.22 0 0 1 11.875-3.325c19.964-5.135 40.761-7.89 61.279-5.341 21.468 2.67 41.642 10.973 61.363 19.522 36.646 15.857 72.866 32.972 107.978 52.001"/>
    </g>
    <mask id="F" width="839" height="106" x="0" y="172" maskUnits="userSpaceOnUse" style="mask-type:luminance">
        <path fill="#fff" d="M.04 172.429h838.919v104.616H.04V172.429Z"/>
    </mask>
    <g mask="url(#F)">
        <path stroke="#fff" stroke-miterlimit="10" stroke-width=".375"
              d="M-86.094 232.502c23.083 8.602 42.343 26.635 66.146 33.165 14.501 3.958 29.431 3.254 43.556 1.684a330.404 330.404 0 0 0 26.774-4.079c44.288-8.545 82.216-28.112 120.359-46.174 18.374-8.703 38.543-16.31 62.314-17.455 20.154-.975 44.265 5.385 60.647 20.676 2.926 2.731 5.629 5.761 8.093 8.901a181.993 181.993 0 0 1 2.731 3.569c3.079 4.115 5.685 7.918 8.294 11.636 2.424 3.46 4.908 6.838 7.931 9.913 14.226 14.465 38.64 19.187 61.286 17.423 32.009-2.497 63.318-15.667 95.848-25.478 19.312-5.807 37.722-10.269 54.801-14.728 2.12-.563 4.224-1.125 6.312-1.692 19.016-5.11 37.362-10.297 57.192-16.754 25.15-8.206 51.725-18.928 79.493-26.867a331.176 331.176 0 0 1 12.009-3.204c20.166-4.953 41.149-7.591 61.857-5.094 21.675 2.614 42.104 10.678 62.068 19.085 37.131 15.598 73.728 32.766 108.941 52.325"/>
    </g>
    <mask id="G" width="839" height="100" x="0" y="177" maskUnits="userSpaceOnUse" style="mask-type:luminance">
        <path fill="#fff" d="M.04 177.607h838.919v98.402H.04v-98.402Z"/>
    </mask>
    <g mask="url(#G)">
        <path stroke="#fff" stroke-miterlimit="10" stroke-width=".375"
              d="M-84.272 221.491c22.767 8.165 41.844 25.624 65.146 32.3 14.19 4.042 28.752 3.707 42.496 2.586a340.632 340.632 0 0 0 26.009-3.128c42.95-6.797 79.21-24.572 116.232-39.627 17.941-7.296 37.848-12.899 61.303-12.814 19.882.072 43.645 7.048 60.133 22.435 2.942 2.743 5.685 5.778 8.218 8.857.975 1.182 1.918 2.347 2.836 3.48 3.221 3.981 5.992 7.526 8.756 10.977 2.565 3.208 5.183 6.336 8.311 9.156 14.727 13.292 39.073 17.123 61.569 14.558 31.908-3.641 63.039-18.029 95.937-27.396 19.547-5.547 38.119-9.092 55.238-12.583 2.124-.433 4.232-.874 6.32-1.311 19.021-3.953 37.309-7.838 57.333-13.365 25.386-7.028 52.398-17.26 80.502-24.895a347.564 347.564 0 0 1 12.138-3.084c20.368-4.77 41.537-7.291 62.44-4.847 21.877 2.557 42.561 10.387 62.767 18.649 37.613 15.339 74.59 32.563 109.904 52.652"/>
    </g>
    <mask id="H" width="839" height="94" x="0" y="181" maskUnits="userSpaceOnUse" style="mask-type:luminance">
        <path fill="#fff" d="M.04 181.751h838.919v93.222H.04v-93.222Z"/>
    </mask>
    <g mask="url(#H)">
        <path stroke="#fff" stroke-miterlimit="10" stroke-width=".375"
              d="M-82.452 210.486c22.448 7.728 41.343 24.609 64.15 31.435 13.875 4.127 28.065 4.159 41.437 3.483 8.643-.441 17.067-1.165 25.244-2.181 41.602-5.041 76.277-21.031 112.101-33.072 17.556-5.904 37.156-9.497 60.291-8.174 19.612 1.113 43.019 8.712 59.624 24.188 2.958 2.759 5.733 5.794 8.343 8.821 1.003 1.157 1.978 2.298 2.937 3.394 3.355 3.848 6.3 7.129 9.217 10.318 2.707 2.958 5.463 5.83 8.696 8.404 15.221 12.118 39.506 15.051 61.848 11.685 31.811-4.791 62.764-20.381 96.035-29.31 19.777-5.28 38.507-7.947 55.67-10.435 2.128-.312 4.236-.627 6.324-.939 19.029-2.792 37.261-5.377 57.471-9.974 25.628-5.85 53.073-15.593 81.509-22.925a382.477 382.477 0 0 1 12.272-2.962c20.57-4.588 41.926-6.987 63.018-4.6 22.08 2.501 43.026 10.091 63.471 18.208 38.103 15.079 75.452 32.36 110.868 52.979"/>
    </g>
    <mask id="I" width="839" height="88" x="0" y="186" maskUnits="userSpaceOnUse" style="mask-type:luminance">
        <path fill="#fff" d="M.04 186.93h838.919v87.007H.04V186.93Z"/>
    </mask>
    <g mask="url(#I)">
        <path stroke="#fff" stroke-miterlimit="10" stroke-width=".375"
              d="M-80.63 199.481c22.131 7.291 40.845 23.592 63.15 30.568 13.563 4.212 27.385 4.612 40.377 4.378 8.4-.15 16.569-.559 24.475-1.226 40.259-3.29 73.441-17.479 107.978-26.531 17.225-4.511 36.456-6.081 59.272-3.532 19.344 2.157 42.403 10.374 59.118 25.948 2.973 2.772 5.781 5.81 8.468 8.776a197.027 197.027 0 0 0 3.039 3.31c3.491 3.714 6.607 6.732 9.678 9.65 2.848 2.711 5.737 5.328 9.079 7.651 15.72 10.944 39.94 12.98 62.132 8.816 31.714-5.948 62.481-22.743 96.128-31.228 20.012-5.021 38.899-6.805 56.107-8.294 2.133-.182 4.241-.376 6.328-.563 19.037-1.63 37.217-2.913 57.617-6.583 25.863-4.673 53.745-13.926 82.512-20.954a386.564 386.564 0 0 1 12.41-2.841c20.773-4.406 42.31-6.684 63.597-4.353 22.286 2.444 43.483 9.799 64.171 17.77 38.588 14.821 76.318 32.155 111.83 53.308"/>
    </g>
    <mask id="J" width="839" height="90" x="0" y="183" maskUnits="userSpaceOnUse" style="mask-type:luminance">
        <path fill="#fff" d="M.04 183.822h838.919v89.079H.04v-89.079Z"/>
    </mask>
    <g mask="url(#J)">
        <path stroke="#fff" stroke-miterlimit="10" stroke-width=".375"
              d="M-78.81 188.471c21.816 6.854 40.351 22.581 62.16 29.702 13.247 4.297 26.7 5.066 39.312 5.28 8.157.134 16.071.045 23.714-.283 38.916-1.537 70.71-13.878 103.848-19.98 16.953-3.123 35.759-2.674 58.259 1.109 19.07 3.201 41.781 12.037 58.604 27.704 2.994 2.788 5.843 5.826 8.594 8.735a126.633 126.633 0 0 0 3.144 3.225c3.633 3.581 6.919 6.34 10.14 8.99 2.99 2.461 6.012 4.827 9.459 6.899 16.221 9.771 40.377 10.904 62.416 5.948 31.612-7.109 62.205-25.098 96.22-33.142 20.243-4.762 39.284-5.664 56.541-6.15 2.136-.065 4.248-.125 6.336-.186 19.045-.473 37.167-.457 57.758-3.196 26.101-3.492 54.42-12.26 83.52-18.985a438.2 438.2 0 0 1 12.539-2.723c20.975-4.22 42.698-6.38 64.179-4.098 22.484 2.383 43.941 9.504 64.871 17.333 39.07 14.562 77.18 31.948 112.794 53.635"/>
    </g>
    <mask id="K" width="839" height="107" x="0" y="172" maskUnits="userSpaceOnUse" style="mask-type:luminance">
        <path fill="#fff" d="M.04 172.429h838.919v105.652H.04V172.429Z"/>
    </mask>
    <g mask="url(#K)">
        <path stroke="#fff" stroke-miterlimit="10" stroke-width=".375"
              d="M-76.994 177.466c21.5 6.417 39.854 21.561 61.165 28.836 12.935 4.382 26.016 5.519 38.252 6.175 7.914.425 15.57.643 22.95.667 37.568.146 68.731-20.582 99.716-13.429 16.411 3.792 35.067.733 57.244 5.75 18.798 4.248 41.157 13.7 58.094 29.46 3.01 2.799 5.895 5.842 8.719 8.695a84.064 84.064 0 0 0 3.249 3.135c3.767 3.448 7.223 5.948 10.597 8.331 3.132 2.214 6.292 4.322 9.844 6.146 16.719 8.598 40.813 8.825 62.695 3.079 31.519-8.27 61.926-27.456 96.317-35.059 20.474-4.499 39.673-4.52 56.974-4.002 2.136.061 4.252.122 6.34.19 19.053.688 37.119 2.007 57.9.199 26.34-2.315 55.092-10.593 84.527-17.01 4.208-.923 8.44-1.801 12.676-2.606 21.174-4.034 43.08-6.081 64.755-3.852 22.694 2.331 44.406 9.209 65.579 16.897 39.555 14.299 78.041 31.742 113.76 53.959"/>
    </g>
    <mask id="L" width="839" height="121" x="0" y="162" maskUnits="userSpaceOnUse" style="mask-type:luminance">
        <path fill="#fff" d="M.04 162.07h838.919v120.153H.04V162.07Z"/>
    </mask>
    <g mask="url(#L)">
        <path stroke="#fff" stroke-miterlimit="10" stroke-width=".375"
              d="M-75.173 166.457c21.181 5.98 39.357 20.55 60.17 27.971 12.62 4.467 25.332 5.972 37.192 7.076a551.697 551.697 0 0 0 22.184 1.615c36.23 1.889 66.142-.951 95.59-6.879 16.391 2.76 34.372 4.14 56.229 10.387 18.527 5.292 40.538 15.363 57.588 31.215 3.026 2.817 5.948 5.855 8.845 8.655a67.176 67.176 0 0 0 3.354 3.051c3.904 3.318 7.534 5.551 11.058 7.671 3.277 1.967 6.571 3.82 10.228 5.394 17.217 7.42 41.242 6.741 62.978.21 31.418-9.443 61.651-29.82 96.407-36.977 20.708-4.237 40.06-3.383 57.41-1.861 2.14.19 4.257.372 6.348.57 19.054 1.849 37.071 4.467 58.038 3.585 26.575-1.133 55.767-8.922 85.531-15.039a507.841 507.841 0 0 1 12.81-2.485c21.379-3.856 43.471-5.778 65.332-3.605 22.893 2.274 44.867 8.918 66.283 16.456 40.037 14.044 78.9 31.539 114.72 54.29"/>
    </g>
    <mask id="M" width="839" height="138" x="0" y="150" maskUnits="userSpaceOnUse" style="mask-type:luminance">
        <path fill="#fff" d="M.04 150.677h838.919v136.726H.04V150.677Z"/>
    </mask>
    <g mask="url(#M)">
        <path stroke="#fff" stroke-miterlimit="10" stroke-width=".375"
              d="M-73.353 155.451c20.866 5.539 38.86 19.539 59.17 27.105 12.309 4.552 24.654 6.425 36.133 7.971a734.54 734.54 0 0 0 21.42 2.569c34.89 3.638 63.252 3.16 91.462-.332 15.97 4.463 33.68 7.55 55.217 15.032 18.256 6.336 39.915 17.026 57.075 32.971 3.046 2.829 6.004 5.871 8.974 8.61a55.306 55.306 0 0 0 3.455 2.966c4.042 3.18 7.842 5.155 11.519 7.008 3.415 1.716 6.851 3.314 10.613 4.641 17.714 6.251 41.675 4.657 63.257-2.658 31.321-10.613 61.372-32.175 96.504-38.891 20.943-3.978 40.445-2.246 57.843.283 2.145.311 4.265.623 6.353.942 19.065 3.007 37.026 6.923 58.183 6.976 26.813.044 56.443-7.255 86.538-13.069a539.87 539.87 0 0 1 12.943-2.363c21.578-3.674 43.856-5.478 65.911-3.358 23.1 2.213 45.325 8.622 66.984 16.014 40.522 13.781 79.765 31.337 115.682 54.619"/>
    </g>
    <mask id="N" width="839" height="152" x="0" y="140" maskUnits="userSpaceOnUse" style="mask-type:luminance">
        <path fill="#fff" d="M.04 140.319h838.919v151.228H.04V140.319Z"/>
    </mask>
    <g mask="url(#N)">
        <path stroke="#fff" stroke-miterlimit="10" stroke-width=".375"
              d="M-71.531 144.446c20.55 5.102 38.357 18.519 58.175 26.235 11.996 4.633 23.969 6.879 35.071 8.873 7.182 1.287 14.08 2.456 20.656 3.512 33.55 5.394 60.36 7.275 87.335 6.223 15.549 6.167 32.984 10.957 54.206 19.668 17.981 7.376 39.292 18.689 56.564 34.728 3.059 2.84 6.057 5.887 9.096 8.57a47.308 47.308 0 0 0 3.561 2.881c4.183 3.05 8.148 4.766 11.98 6.344 3.557 1.469 7.125 2.816 10.993 3.892 18.212 5.078 42.108 2.57 63.545-5.527 31.219-11.79 61.088-34.533 96.592-40.809 21.174-3.714 40.834-1.108 58.276 2.428 2.149.437 4.269.874 6.361 1.323 19.073 4.167 36.977 9.387 58.329 10.366 27.048 1.222 57.11-5.592 87.541-11.102 4.35-.789 8.716-1.55 13.073-2.246 21.78-3.488 44.244-5.175 66.494-3.107 23.301 2.16 45.786 8.326 67.683 15.577 41.008 13.522 80.627 31.131 116.65 54.946"/>
    </g>
    <mask id="O" width="839" height="169" x="0" y="128" maskUnits="userSpaceOnUse" style="mask-type:luminance">
        <path fill="#fff" d="M.04 128.925h838.919v167.8H.04v-167.8Z"/>
    </mask>
    <g mask="url(#O)">
        <path stroke="#fff" stroke-miterlimit="10" stroke-width=".375"
              d="M-69.715 133.44c20.235 4.666 37.864 17.504 57.18 25.37 11.68 4.717 23.285 7.331 34.007 9.767a3817.862 3817.862 0 0 0 19.891 4.467c32.215 7.141 57.467 11.381 83.208 12.769 15.129 7.866 32.288 14.364 53.19 24.309 17.714 8.424 38.673 20.352 56.055 36.484 3.079 2.857 6.11 5.899 9.221 8.529a42.27 42.27 0 0 0 3.662 2.792c4.321 2.917 8.46 4.37 12.446 5.685 3.698 1.218 7.4 2.306 11.377 3.135 18.71 3.901 42.537.478 63.824-8.395 31.114-12.972 60.813-36.889 96.686-42.727 21.408-3.451 41.221.032 58.709 4.572 2.152.558 4.276 1.121 6.368 1.695 19.082 5.333 36.929 11.851 58.471 13.761 27.286 2.399 57.786-3.925 88.549-9.132a705.301 705.301 0 0 1 13.206-2.124c21.983-3.306 44.629-4.872 67.072-2.865 23.504 2.108 46.247 8.036 68.388 15.145 41.489 13.263 81.488 30.924 117.608 55.274"/>
    </g>
    <mask id="P" width="839" height="184" x="0" y="117" maskUnits="userSpaceOnUse" style="mask-type:luminance">
        <path fill="#fff" d="M.04 117.531h838.919v183.337H.04V117.531Z"/>
    </mask>
    <g mask="url(#P)">
        <path stroke="#fff" stroke-miterlimit="10" stroke-width=".375"
              d="M-67.894 122.436c19.919 4.228 37.365 16.491 56.184 24.503 11.365 4.802 22.605 7.784 32.947 10.669a2516.785 2516.785 0 0 1 19.122 5.41c30.876 8.897 54.574 15.497 79.081 19.32 14.712 9.569 31.592 17.771 52.175 28.95 17.443 9.464 38.054 22.015 55.549 38.24 3.095 2.868 6.166 5.915 9.346 8.488 1.235 1 2.489 1.914 3.763 2.707 4.459 2.784 8.768 3.978 12.903 5.022 3.84.975 7.68 1.804 11.762 2.387 19.207 2.727 42.966-1.619 64.103-11.265 31.013-14.157 60.534-39.247 96.787-44.64 21.639-3.197 41.606 1.165 59.142 6.716 2.156.68 4.281 1.372 6.373 2.072 19.085 6.49 36.88 14.307 58.607 17.151 27.526 3.577 58.463-2.257 89.561-7.157a751.762 751.762 0 0 1 13.34-2.007c22.185-3.124 45.017-4.572 67.651-2.618 23.71 2.047 46.708 7.744 69.091 14.708 41.975 13 82.351 30.718 118.572 55.597"/>
    </g>
    <mask id="Q" width="839" height="200" x="0" y="107" maskUnits="userSpaceOnUse" style="mask-type:luminance">
        <path fill="#fff" d="M.04 107.173h838.919v198.874H.04V107.173Z"/>
    </mask>
    <g mask="url(#Q)">
        <path stroke="#fff" stroke-miterlimit="10" stroke-width=".375"
              d="M-66.073 111.426c19.6 3.787 36.868 15.476 55.189 23.637 11.054 4.884 21.918 8.238 31.887 11.564a833.332 833.332 0 0 1 18.357 6.36c29.54 10.654 51.685 19.612 74.954 25.871 14.287 11.273 30.897 21.182 51.164 33.587 17.171 10.508 37.43 23.678 55.035 40 3.115 2.885 6.223 5.927 9.472 8.448 1.266.979 2.549 1.865 3.868 2.622 4.596 2.646 9.079 3.581 13.364 4.357 3.985.725 7.959 1.307 12.146 1.631 19.705 1.558 43.395-3.71 64.386-14.133 30.908-15.339 60.255-41.602 96.88-46.55 21.873-2.934 41.995 2.298 59.575 8.857 2.165.809 4.293 1.622 6.381 2.451 19.093 7.652 36.832 16.772 58.749 20.543 27.765 4.754 59.138-.591 90.564-5.192a925.733 925.733 0 0 1 13.474-1.885c22.387-2.938 45.405-4.269 68.234-2.367 23.912 1.991 47.165 7.449 69.791 14.266 42.46 12.746 83.216 30.512 119.534 55.926"/>
    </g>
    <mask id="R" width="839" height="217" x="0" y="95" maskUnits="userSpaceOnUse" style="mask-type:luminance">
        <path fill="#fff" d="M.04 95.78h838.919v215.446H.04V95.779Z"/>
    </mask>
    <g mask="url(#R)">
        <path stroke="#fff" stroke-miterlimit="10" stroke-width=".375"
              d="M-64.253 100.42c19.284 3.35 36.37 14.461 54.194 22.771 10.738 4.969 21.238 8.691 30.827 12.466a476.34 476.34 0 0 1 17.592 7.312c28.198 12.409 48.793 23.718 70.828 32.417 13.866 12.976 30.204 24.588 50.143 38.232 16.901 11.551 36.807 25.341 54.529 41.752 3.132 2.901 6.276 5.943 9.598 8.407 1.295.959 2.614 1.817 3.969 2.537 4.734 2.517 9.387 3.189 13.826 3.698 4.123.478 8.233.802 12.526.882 20.199.381 43.82-5.81 64.669-17.001 30.795-16.537 59.976-43.961 96.969-48.473 22.108-2.67 42.387 3.436 60.012 11.006 2.165.926 4.297 1.873 6.385 2.828 19.102 8.808 36.787 19.227 58.895 23.929 27.999 5.935 59.81 1.076 91.572-3.217a987.464 987.464 0 0 1 13.607-1.768c22.589-2.756 45.79-3.969 68.808-2.12 24.119 1.938 47.627 7.157 70.495 13.833 42.946 12.483 84.078 30.306 120.501 56.253"/>
    </g>
    <mask id="S" width="839" height="232" x="0" y="84" maskUnits="userSpaceOnUse" style="mask-type:luminance">
        <path fill="#fff" d="M.04 84.385h838.919v230.984H.04V84.385Z"/>
    </mask>
    <g mask="url(#S)">
        <path stroke="#fff" stroke-miterlimit="10" stroke-width=".375"
              d="M-62.432 89.41c18.968 2.913 35.873 13.445 53.199 21.91 10.422 5.053 20.554 9.144 29.767 13.36a334.948 334.948 0 0 1 16.832 8.262c26.854 14.17 48.063 24.495 66.696 38.964 15.727 12.215 29.508 27.995 49.132 42.873 16.625 12.595 36.188 27.003 54.015 43.512 3.144 2.913 6.332 5.947 9.723 8.363 1.323.939 2.674 1.768 4.074 2.448 4.872 2.383 9.695 2.792 14.287 3.038 4.265.227 8.509.296 12.911.126 20.7-.789 44.245-7.906 64.948-19.871 30.686-17.726 59.697-46.319 97.067-50.382 22.338-2.411 42.775 4.568 60.444 13.146a265.99 265.99 0 0 1 6.389 3.201c19.106 9.969 36.739 21.691 59.037 27.323 28.238 7.109 60.481 2.743 92.575-1.25 4.584-.571 9.172-1.133 13.741-1.651 22.791-2.569 46.178-3.666 69.39-1.869 24.317 1.881 48.088 6.862 71.2 13.392 43.427 12.223 84.936 30.103 121.464 56.581"/>
    </g>
    <mask id="T" width="839" height="247" x="0" y="74" maskUnits="userSpaceOnUse" style="mask-type:luminance">
        <path fill="#fff" d="M.04 74.027h838.919v246.521H.04V74.028Z"/>
    </mask>
    <g mask="url(#T)">
        <path stroke="#fff" stroke-miterlimit="10" stroke-width=".375"
              d="M-60.615 78.406c18.652 2.476 35.375 12.434 52.203 21.04 10.11 5.139 19.87 9.597 28.707 14.258 5.713 3.015 11.09 6.102 16.063 9.209 25.515 15.934 45.195 29.242 62.569 45.519 15.278 14.311 28.812 31.402 48.116 47.509 16.355 13.644 35.566 28.667 53.506 45.268 3.164 2.926 6.389 5.964 9.848 8.323 1.352.919 2.739 1.72 4.176 2.363 5.009 2.25 10.002 2.399 14.748 2.375 4.406-.024 8.788-.206 13.291-.627 21.198-1.966 44.669-10.01 65.232-22.739 30.568-18.92 59.421-48.675 97.159-52.3 22.573-2.153 43.184 5.664 60.878 15.29a227.425 227.425 0 0 1 6.397 3.577c19.117 11.131 36.694 24.151 59.178 30.71 28.472 8.29 61.153 4.414 93.582.724 4.633-.53 9.262-1.052 13.874-1.529 22.99-2.388 46.563-3.367 69.97-1.623 24.519 1.821 48.545 6.567 71.899 12.952 43.913 11.968 85.798 29.9 122.423 56.912"/>
    </g>
    <mask id="U" width="839" height="263" x="0" y="62" maskUnits="userSpaceOnUse" style="mask-type:luminance">
        <path fill="#fff" d="M.04 62.634h838.919v262.058H.04V62.634Z"/>
    </mask>
    <g mask="url(#U)">
        <path stroke="#fff" stroke-miterlimit="10" stroke-width=".375"
              d="M-58.795 67.4c18.337 2.04 34.877 11.418 51.208 20.178 9.795 5.22 19.186 10.047 27.643 15.157 5.47 3.302 10.596 6.708 15.302 10.16 24.172 17.693 42.197 33.943 58.438 52.065 14.716 16.419 28.116 34.809 47.105 52.154 16.083 14.684 34.946 30.326 52.992 47.02 3.184 2.942 6.449 5.98 9.973 8.283 1.384.898 2.804 1.671 4.281 2.277 5.143 2.117 10.314 2.003 15.209 1.712 4.548-.271 9.064-.708 13.676-1.376 21.696-3.139 45.086-12.114 65.515-25.612 30.451-20.121 59.142-51.033 97.248-54.217 22.808-1.886 43.577 6.805 61.315 17.434a244.103 244.103 0 0 1 6.405 3.957c19.118 12.292 36.641 26.616 59.316 34.105 28.715 9.472 61.828 6.077 94.59 2.695 4.677-.486 9.354-.967 14.003-1.412 23.193-2.201 46.951-3.059 70.548-1.372 24.726 1.768 49.007 6.276 72.604 12.515 44.398 11.705 86.659 29.694 123.386 57.232"/>
    </g>
    <mask id="V" width="839" height="279" x="0" y="51" maskUnits="userSpaceOnUse" style="mask-type:luminance">
        <path fill="#fff" d="M.04 51.24h838.919v278.631H.04V51.241Z"/>
    </mask>
    <g mask="url(#V)">
        <path stroke="#fff" stroke-miterlimit="10" stroke-width=".375"
              d="M-56.974 56.392c18.018 1.602 34.38 10.402 50.209 19.312 9.484 5.304 18.506 10.5 26.582 16.055 5.224 3.588 10.096 7.319 14.538 11.106 22.824 19.454 39.098 38.588 54.311 58.612 14.06 18.511 27.425 38.22 46.089 56.791 15.817 15.731 34.323 31.997 52.486 48.78 3.201 2.954 6.498 5.992 10.1 8.242 1.412.878 2.868 1.626 4.386 2.193 5.284 1.983 10.617 1.61 15.666 1.052 4.69-.518 9.343-1.214 14.056-2.128 22.197-4.313 45.507-14.218 65.798-28.481 30.33-21.319 58.863-53.396 97.345-56.136 23.039-1.626 43.965 7.947 61.748 19.58a223.247 223.247 0 0 1 6.409 4.333c19.13 13.449 36.593 29.071 59.462 37.495 28.946 10.646 62.5 7.744 95.593 4.661 4.726-.441 9.444-.886 14.137-1.29 23.399-2.019 47.34-2.76 71.127-1.125 24.932 1.707 49.468 5.98 73.303 12.077 44.884 11.447 87.522 29.488 124.353 57.564"/>
    </g>
    <mask id="W" width="839" height="295" x="0" y="40" maskUnits="userSpaceOnUse" style="mask-type:luminance">
        <path fill="#fff" d="M.04 40.882h838.919v293.132H.04V40.882Z"/>
    </mask>
    <g mask="url(#W)">
        <path stroke="#fff" stroke-miterlimit="10" stroke-width=".375"
              d="M-55.153 45.385c17.706 1.165 33.882 9.39 49.213 18.442 9.172 5.393 17.823 10.957 25.522 16.957a158.406 158.406 0 0 1 13.77 12.053C54.791 114.1 69.271 136.002 83.534 158c13.332 20.566 26.729 41.63 45.078 61.436 15.545 16.771 33.704 33.656 51.976 50.536 3.217 2.97 6.555 6.004 10.225 8.197 1.436.858 2.929 1.578 4.483 2.108 5.422 1.849 10.932 1.218 16.132.389a185.52 185.52 0 0 0 14.444-2.881c22.691-5.487 45.92-16.318 66.077-31.349 30.204-22.521 58.584-55.752 97.439-58.05 23.273-1.367 44.353 9.084 62.18 21.724a211.425 211.425 0 0 1 6.417 4.705c19.134 14.615 36.549 31.532 59.604 40.886 29.188 11.827 63.176 9.412 96.6 6.632 4.775-.397 9.537-.801 14.275-1.165 23.597-1.837 47.72-2.46 71.705-.882 25.135 1.654 49.929 5.688 74.008 11.64 45.365 11.192 88.383 29.286 125.312 57.892"/>
    </g>
    <mask id="X" width="839" height="311" x="0" y="29" maskUnits="userSpaceOnUse" style="mask-type:luminance">
        <path fill="#fff" d="M.04 29.488h838.919v309.705H.04V29.488Z"/>
    </mask>
    <g mask="url(#X)">
        <path stroke="#fff" stroke-miterlimit="10" stroke-width=".375"
              d="M-53.336 34.376c17.386.728 33.384 8.375 48.218 17.58 8.856 5.475 17.139 11.41 24.462 17.852a142.96 142.96 0 0 1 13.009 13.004c20.093 23.014 32.676 47.659 46.052 71.713 12.555 22.569 26.033 45.033 44.067 66.073 15.27 17.819 33.081 35.322 51.462 52.292 3.237 2.986 6.611 6.02 10.35 8.161 1.469.833 2.994 1.529 4.592 2.019 5.56 1.715 11.236.821 16.593-.271a194.515 194.515 0 0 0 14.821-3.634c23.193-6.66 46.336-18.422 66.361-34.218 30.074-23.718 58.304-58.11 97.535-59.967 23.504-1.104 44.742 10.225 62.614 23.868a215.887 215.887 0 0 1 6.421 5.086c19.142 15.772 36.5 33.995 59.745 44.273 29.423 13.004 63.847 11.078 97.604 8.606 4.823-.352 9.626-.717 14.408-1.048 23.799-1.655 48.108-2.153 72.288-.632a442.03 442.03 0 0 1 74.707 11.2c45.855 10.929 89.249 29.079 126.279 58.219"/>
    </g>
    <mask id="Y" width="839" height="326" x="0" y="19" maskUnits="userSpaceOnUse" style="mask-type:luminance">
        <path fill="#fff" d="M.04 19.13h838.919v325.242H.04V19.13Z"/>
    </mask>
    <g mask="url(#Y)">
        <path stroke="#fff" stroke-miterlimit="10" stroke-width=".375"
              d="M-51.516 23.371c17.07.291 32.887 7.36 47.223 16.71 8.54 5.56 16.455 11.864 23.402 18.754a133.731 133.731 0 0 1 12.24 13.951c18.75 24.766 29.395 52.082 41.93 78.264 11.741 24.532 25.336 48.444 43.046 70.714 14.999 18.859 32.462 36.985 50.953 54.048 3.253 2.998 6.668 6.036 10.475 8.116 1.497.817 3.059 1.481 4.694 1.934 5.697 1.582 11.547.429 17.054-.93a203.918 203.918 0 0 0 15.205-4.386c23.69-7.834 46.713-20.563 66.644-37.087 29.896-24.981 58.025-60.465 97.624-61.877 23.739-.842 45.139 11.357 63.051 26.012a214.226 214.226 0 0 1 6.425 5.463c19.15 16.928 36.455 36.451 59.886 47.663 29.662 14.181 64.524 12.745 98.616 10.572 4.868-.311 9.719-.635 14.538-.926 24.001-1.473 48.497-1.854 72.866-.385 25.539 1.542 50.852 5.102 75.412 10.767 46.336 10.665 90.11 28.873 127.242 58.543"/>
    </g>
    <mask id="Z" width="839" height="342" x="0" y="7" maskUnits="userSpaceOnUse" style="mask-type:luminance">
        <path fill="#fff" d="M.04 7.736h838.919v340.779H.04V7.736Z"/>
    </mask>
    <g mask="url(#Z)">
        <path stroke="#fff" stroke-miterlimit="10" stroke-width=".375"
              d="M-49.694 12.366c16.755-.15 32.389 6.348 46.226 15.848 8.234 5.64 15.776 12.313 22.343 19.648A126.555 126.555 0 0 1 30.35 62.764c17.406 26.518 26.085 56.435 37.799 84.811 10.916 26.441 24.644 51.854 42.035 75.358 14.727 19.903 31.838 38.645 50.447 55.8 3.269 3.014 6.716 6.053 10.6 8.076 1.53.797 3.12 1.432 4.795 1.849 5.834 1.449 11.855.037 17.516-1.594a215.204 215.204 0 0 0 15.589-5.139c24.188-9.01 47.137-22.65 66.927-39.955 29.787-26.154 57.746-62.824 97.718-63.799 23.973-.578 45.526 12.503 63.483 28.157a217.163 217.163 0 0 1 6.433 5.839c19.155 18.094 36.407 38.915 60.028 51.057 29.901 15.363 65.199 14.413 99.62 12.547 4.916-.271 9.811-.554 14.671-.809 24.204-1.291 48.885-1.554 73.449-.137 25.741 1.488 51.309 4.81 76.115 10.329 46.818 10.407 90.969 28.667 128.201 58.871"/>
    </g>
    <mask id="aa" width="839" height="349" x="0" y="0" maskUnits="userSpaceOnUse" style="mask-type:luminance">
        <path fill="#fff" d="M.04.057h838.919v348.806H.04V.057Z"/>
    </mask>
    <g mask="url(#aa)">
        <path stroke="#fff" stroke-miterlimit="10" stroke-width=".375"
              d="M-47.874 1.355c32.502-1.153 61.161 23.103 77.22 51.381 16.063 28.275 22.76 60.728 33.676 91.361 18.628 52.288 50.135 99.935 90.956 137.556 4.576 4.22 9.545 8.46 15.622 9.8 5.972 1.315 12.163-.361 17.977-2.258 30.783-10.047 59.361-26.781 83.176-48.715 29.678-27.328 57.471-65.179 97.815-65.713 27.161-.36 51.195 17.269 70.358 36.516 19.166 19.251 36.358 41.376 60.173 54.448 34.441 18.9 76.184 15.598 115.428 13.822 98.3-4.447 204.053 6.664 280.007 69.205"/>
    </g>
</svg>
