<svg xmlns="http://www.w3.org/2000/svg" width="916" height="874" fill="none">
    <path d="M0 0h916v874H0z"/>
    <g clip-path="url(#a)">
        <path stroke="#fff" stroke-miterlimit="10" stroke-width=".375"
              d="M-349.63 311.85c29.717-101.486 100.201-190.503 192.366-242.936 37.815-21.505 88.163-36.01 122.613-9.474C-13.71 75.57-4.791 103.03-2.49 129.31c4.117 46.896-9.032 93.36-14.99 140.06-5.959 46.7-3.237 98.411 27.157 134.463 31.756 37.664 87.56 48.561 135.627 37.286 48.073-11.276 89.565-41.211 126.229-74.147 106.112-95.309 188.344-224.208 319.942-279.648 51.289-21.607 113.202-29.544 160.834-.796 40.761 24.594 63.071 71.241 73.735 117.502 10.677 46.269 11.957 94.284 22.553 140.56 8.951 39.079 31.356 82.286 71.223 87.735 24.463 3.345 48.14-8.935 69.137-21.883 64.553-39.795 122.693-89.692 189.533-125.541 66.84-35.85 146.86-56.856 218.93-33.105 72.08 23.751 127.84 103.995 104.3 175.883"/>
        <path stroke="#fff" stroke-miterlimit="10" stroke-width=".375"
              d="M-349.921 304.176c9.14-29.875 22.073-58.461 38.092-84.991 8.802-14.58 18.607-28.526 29.074-41.386 18.058-22.173 37.443-41.467 58.365-58.859 20.177-16.799 41.972-31.54 65.223-43.78 35.608-18.727 83.166-30.752 115.998-3.264 13.725 11.504 22.087 28.161 26.833 46.08 2.153 8.146 3.568 16.542 4.421 24.796.894 8.713 1.287 17.372 1.361 25.95.156 22.092-2.038 43.443-4.726 64.369-1.91 14.903-4.049 29.631-5.437 44.326a312.47 312.47 0 0 0-1.185 17.763c-1.408 38.223 5.14 77.93 31.6 106.382 18.904 20.346 45.906 31.682 74.723 34.966 19.899 2.259 40.672.681 60.247-4.41 47.924-12.469 89.754-42.641 127.23-75.085 12.391-10.695 24.606-21.715 36.448-32.403 18.01-16.239 34.504-32.127 50.632-48.42 66.659-67.41 129.804-136.668 220.066-169.456 29.263-10.58 62.684-16.232 95.793-14.074 22.649 1.463 44.729 6.474 64.391 17.129a124.597 124.597 0 0 1 11.429 7.02c34.301 23.664 54.417 62.69 65.291 101.304 12.019 42.735 14.903 87.014 26.793 129.688 10.034 36.039 33.041 76.069 72.976 79.96 10.129.992 20.136-.58 29.886-3.688 13.86-4.417 27.226-11.937 39.731-19.618 20.796-12.779 41.056-26.388 61.246-39.909 17.1-11.464 34.26-22.794 50.99-33.132 7.83-4.849 15.53-9.535 23.26-14.128 17.61-10.459 35.41-20.346 53.79-29.126 46.39-22.18 98.82-36.848 150.64-32.983 19.59 1.443 39.09 5.583 58.32 12.873 8.49 3.23 16.79 7.243 24.86 11.903 28.78 16.643 54.16 41.319 70.33 69.062 16.69 28.708 23.53 60.835 15.1 91.364"/>
        <path stroke="#fff" stroke-miterlimit="10" stroke-width=".375"
              d="M-350.212 296.508c9.567-29.989 23.203-58.481 40.002-84.532 9.235-14.317 19.554-27.886 30.374-39.876 18.667-20.683 37.497-37.4 57.355-52.668 19.148-14.755 39.61-27.582 61.419-38.014 33.4-15.95 78.162-25.485 109.39 2.947 13.053 11.922 21.056 28.802 25.755 46.895 2.133 8.221 3.596 16.691 4.584 24.992 1.036 8.76 1.652 17.433 2.045 25.943 1.009 21.924.176 42.439-1.374 62.096-1.104 14-2.52 27.65-3.284 41.191a297.153 297.153 0 0 0-.474 16.367c.007 35.216 7.515 71.74 34.145 97.46 19.013 18.397 45.812 28.162 74.412 30.232 19.757 1.416 40.388-.843 59.901-6.427 47.782-13.662 89.944-44.063 128.226-76.021 12.729-10.554 25.411-21.331 37.551-31.17 18.478-14.944 34.369-28.532 49.624-42.843 63.063-59.338 120.568-120.86 207.187-146.891 28.079-8.342 60.748-11.633 94.244-8.942 22.885 1.834 45.323 6.224 65.291 15.848a127.42 127.42 0 0 1 11.612 6.359c34.917 21.445 55.994 57.375 68.094 92.786 13.365 39.202 17.848 79.758 31.024 118.811 11.124 32.984 34.734 69.851 74.736 72.185 10.143.593 20.171-1.255 29.975-4.572 13.934-4.721 27.422-12.395 40.124-20.164 21.114-12.928 41.794-26.489 62.474-39.64 17.53-11.154 35.3-21.849 52-30.872 7.83-4.235 15.34-8.214 22.83-12.105 17.1-8.855 34.18-17.17 51.72-24.419 44.29-18.343 93.68-29.477 143.01-22.807 18.64 2.481 37.29 7.62 55.99 15.699 8.25 3.588 16.4 7.904 24.39 12.82 28.54 17.527 54.73 42.06 72.05 68.866 17.81 27.731 26.17 58.172 19.84 87.082"/>
        <path stroke="#fff" stroke-miterlimit="10" stroke-width=".375"
              d="M-350.504 288.834c10.001-30.104 24.341-58.495 41.925-84.074 9.662-14.047 20.495-27.237 31.661-38.365 19.276-19.185 37.557-33.34 56.34-46.477 18.118-12.719 37.253-23.623 57.626-32.249 31.193-13.17 73.16-20.224 102.775 9.158 12.37 12.335 20.021 29.43 24.68 47.712 2.119 8.302 3.628 16.839 4.739 25.188 1.171 8.807 2.018 17.493 2.742 25.936 1.849 21.755 2.383 41.427 1.964 59.824-.285 13.103-.989 25.659-1.131 38.061-.054 4.943.007 9.94.237 14.964 1.422 32.208 9.892 65.549 36.691 88.545 19.134 16.455 45.73 24.628 74.107 25.498 19.615.567 40.103-2.36 59.556-8.429 47.64-14.864 90.072-45.568 129.228-76.96 13.034-10.446 26.217-20.952 38.648-29.942 18.938-13.649 34.233-24.945 48.615-37.279 59.475-51.259 111.299-105.262 194.316-124.313 26.873-6.171 58.805-7.048 92.686-3.811 23.129 2.192 45.92 5.975 66.198 14.567a134.542 134.542 0 0 1 11.788 5.698c35.534 19.227 57.566 52.048 70.898 84.256 14.713 35.681 20.793 72.495 35.255 107.94 12.215 29.942 36.428 63.64 76.497 64.416 10.15.202 20.211-1.929 30.063-5.449 14.009-5.024 27.625-12.854 40.51-20.717 21.436-13.076 42.53-26.584 63.71-39.37 17.95-10.837 36.32-20.912 53.01-28.627 7.82-3.614 15.13-6.878 22.41-10.075 16.58-7.263 32.95-14 49.65-19.718 42.16-14.513 88.53-22.106 135.37-12.631 17.71 3.527 35.53 9.623 53.66 18.511 8.03 3.938 16.01 8.585 23.93 13.751 28.29 18.417 55.36 42.755 73.77 68.657 18.99 26.712 28.83 55.515 24.59 82.8"/>
        <path stroke="#fff" stroke-miterlimit="10" stroke-width=".375"
              d="M-350.795 281.166c10.427-30.218 25.472-58.515 43.841-83.615 10.089-13.791 21.437-26.597 32.954-36.861 19.886-17.695 37.619-29.281 55.331-40.28 17.083-10.689 34.883-19.672 53.822-26.49 28.985-10.385 68.162-14.957 96.159 15.369 11.7 12.753 18.999 30.071 23.61 48.528 2.092 8.376 3.656 16.994 4.902 25.384 1.314 8.847 2.383 17.553 3.433 25.929 2.695 21.587 4.597 40.422 5.315 57.551.521 12.192.528 23.67 1.022 34.926.197 4.491.494 9.016.941 13.575 2.844 29.2 12.276 59.351 39.244 79.616 19.25 14.519 45.635 21.114 73.789 20.77 19.473-.276 39.819-3.877 59.211-10.439 47.497-16.057 90.248-47.024 130.23-77.896 13.359-10.325 27.009-20.575 39.745-28.715 19.405-12.348 34.098-21.351 47.605-31.709 55.88-43.193 102.071-89.543 181.438-101.756 25.696-3.952 56.869-2.448 91.136 1.335 23.366 2.55 46.516 5.719 67.106 13.279a147.636 147.636 0 0 1 11.971 5.037c36.102 17.102 59.129 46.734 73.7 75.739 16.061 32.147 23.732 65.232 39.488 97.069 13.298 26.894 38.119 57.423 78.25 56.64 10.163-.189 20.252-2.603 30.144-6.332 14.09-5.321 27.835-13.305 40.909-21.256 21.748-13.225 43.259-26.685 64.939-39.107 18.38-10.527 37.34-19.968 54.02-26.361 7.8-3.001 14.94-5.557 21.98-8.059 16.06-5.651 31.73-10.824 47.59-15.005 40.05-10.675 83.35-14.647 127.74-2.454 16.75 4.606 33.74 11.653 51.33 21.337 7.8 4.289 15.61 9.252 23.47 14.667 28.05 19.308 55.93 43.484 75.48 68.456 20.13 25.72 31.47 52.857 29.33 78.523"/>
        <path stroke="#fff" stroke-miterlimit="10" stroke-width=".375"
              d="M-351.093 273.499c10.861-30.333 26.61-58.535 45.758-83.156 10.515-13.528 22.384-25.95 34.246-35.351 20.489-16.205 37.694-25.188 54.316-34.089 16.074-8.619 32.52-15.72 50.016-20.724 26.779-7.607 63.226-9.744 89.551 21.587 11.05 13.143 17.97 30.704 22.54 49.35 2.072 8.45 3.684 17.136 5.058 25.572 1.45 8.902 2.742 17.608 4.124 25.93 3.534 21.418 6.811 39.41 8.66 55.271 1.333 11.296 2.051 21.681 3.182 31.797.447 4.026.975 8.086 1.652 12.172 4.252 26.193 14.645 53.154 41.79 70.695 19.364 12.57 45.547 17.594 73.483 16.036 19.324-1.126 39.522-5.395 58.866-12.455 47.348-17.251 90.424-48.467 131.219-78.828 13.69-10.196 27.814-20.19 40.841-27.487 19.866-11.046 33.983-17.716 46.597-26.132 52.393-34.973 92.862-73.823 168.56-79.191 24.517-1.74 54.932 2.144 89.585 6.467 23.603 2.907 47.112 5.476 68.006 12.004a158.595 158.595 0 0 1 12.147 4.37c36.718 14.903 60.707 41.42 76.511 67.221 17.407 28.614 26.684 57.969 43.726 86.185 14.381 23.845 39.805 51.218 80.004 48.865 10.176-.58 20.285-3.271 30.232-7.203 14.164-5.624 28.038-13.764 41.302-21.802 22.066-13.373 44.001-26.786 66.171-38.837 18.8-10.217 38.36-19.038 55.02-24.116 7.8-2.387 14.75-4.228 21.57-6.035 15.54-4.053 30.49-7.648 45.51-10.298 37.92-6.831 78.19-7.263 120.1 7.722 15.81 5.651 31.95 13.676 49.01 24.149 7.56 4.646 15.21 9.92 23 15.591 27.8 20.191 56.51 44.205 77.2 68.253 21.27 24.73 34.12 50.187 34.07 74.249"/>
        <path stroke="#fff" stroke-miterlimit="10" stroke-width=".375"
              d="M-351.391 265.825c11.294-30.448 27.754-58.549 47.674-82.698 10.948-13.265 23.332-25.309 35.553-33.847 21.098-14.708 37.748-21.115 53.294-27.892 15.051-6.568 30.157-11.761 46.224-14.958 24.572-4.828 58.236-4.491 82.943 27.791 10.38 13.562 16.94 31.338 21.463 50.167 2.052 8.531 3.71 17.284 5.214 25.767 1.584 8.949 3.108 17.669 4.807 25.923 4.388 21.25 9.033 38.406 12.012 53.006 2.14 10.392 3.575 19.685 5.328 28.661.698 3.574 1.463 7.168 2.363 10.776 5.674 23.185 17.015 46.97 44.33 61.772 19.486 10.628 45.465 14.074 73.178 11.303 19.175-1.963 39.231-6.913 58.521-14.452 47.206-18.451 90.607-49.91 132.214-79.771 14.022-10.062 28.62-19.807 41.945-26.254 20.333-9.751 33.854-14.107 45.588-20.561 48.811-26.84 83.667-58.09 155.675-56.62 23.353.479 52.995 6.743 88.041 11.606 23.84 3.264 47.701 5.219 68.907 10.715a175.065 175.065 0 0 1 12.33 3.709c37.327 12.712 62.278 36.1 79.307 58.698 18.755 25.086 29.622 50.706 47.957 75.32 15.478 20.798 41.506 45.001 81.765 41.083 10.19-.971 20.333-3.939 30.32-8.086 14.239-5.928 28.234-14.216 41.688-22.349 22.384-13.521 44.73-26.887 67.41-38.574 19.22-9.899 39.39-18.1 56.03-21.856 7.79-1.773 14.56-2.92 21.14-4.012 15.02-2.489 29.27-4.438 43.45-5.598 35.81-2.913 73.02.128 112.45 17.905 14.87 6.703 30.17 15.713 46.69 26.975 7.33 4.997 14.81 10.587 22.54 16.508 27.55 21.081 57.08 44.927 78.9 68.051 22.41 23.731 36.78 47.523 38.82 69.966"/>
        <path stroke="#fff" stroke-miterlimit="10" stroke-width=".375"
              d="M-351.682 258.156c11.721-30.555 28.892-58.569 49.59-82.232 11.375-13.009 24.28-24.675 36.84-32.343 21.707-13.218 37.808-17.048 52.278-21.708 14.015-4.512 27.794-7.803 42.419-9.192 22.371-2.043 53.253.769 76.334 34.009 9.703 13.973 15.912 31.972 20.394 50.982 2.025 8.605 3.73 17.439 5.37 25.963 1.726 8.99 3.473 17.73 5.504 25.917 5.227 21.08 11.24 37.393 15.356 50.726 2.952 9.481 5.105 17.702 7.482 25.525.948 3.122 1.95 6.238 3.067 9.38 7.09 20.171 19.399 40.773 46.882 52.851 19.601 8.685 45.37 10.547 72.867 6.568 19.04-2.812 38.946-8.436 58.182-16.468 47.064-19.645 90.797-51.347 133.216-80.702 14.354-9.94 29.419-19.436 43.042-25.026 20.794-8.457 33.712-10.507 44.573-14.998 45.222-18.7 74.492-42.357 142.803-34.049 22.182 2.697 51.053 11.336 86.484 16.745 24.084 3.628 48.297 4.963 69.814 9.434 4.34.91 8.505 1.935 12.506 3.048 37.944 10.507 63.897 30.731 82.11 50.173 20.157 21.513 32.575 43.45 52.196 64.45 16.555 17.749 43.192 38.783 83.519 33.314 10.203-1.369 20.366-4.62 30.401-8.963 14.32-6.231 28.444-14.674 42.087-22.894 22.696-13.67 45.456-26.995 68.646-38.311 19.64-9.59 40.41-17.156 57.03-19.604 7.78-1.154 14.36-1.599 20.71-1.99 14.5-.897 28.04-1.261 41.38-.89 33.69.931 67.86 7.506 104.82 28.074 13.92 7.749 28.39 17.75 44.36 29.794 7.1 5.354 14.42 11.255 22.07 17.426 27.31 21.971 57.65 45.661 80.63 67.855 23.53 22.746 39.42 44.866 43.56 65.69"/>
        <path stroke="#fff" stroke-miterlimit="10" stroke-width=".375"
              d="M-351.973 250.488c12.147-30.677 30.029-58.589 51.506-81.78 11.801-12.739 25.221-24.028 38.133-30.833 22.317-11.72 37.862-12.968 51.269-15.51 12.979-2.462 25.431-3.878 38.614-3.426 20.163.681 48.256 6.029 69.726 40.213 9.032 14.397 14.882 32.605 19.317 51.798 2.01 8.686 3.765 17.588 5.525 26.159 1.862 9.043 3.832 17.79 6.195 25.909 6.074 20.912 13.46 36.389 18.701 48.454 3.765 8.585 6.629 15.713 9.642 22.389a218.108 218.108 0 0 0 3.778 7.991c8.545 17.143 21.768 34.575 49.427 43.929 19.717 6.743 45.284 7.027 72.556 1.834 18.891-3.655 38.655-9.954 57.83-18.478 46.929-20.845 90.98-52.79 134.218-81.646 14.686-9.792 30.219-19.051 44.14-23.792 21.253-7.155 33.576-6.885 43.563-9.421 41.6-10.554 65.332-26.604 129.926-11.484 21.016 4.923 49.115 15.935 84.933 21.876 24.321 3.993 48.892 4.721 70.715 8.154 4.394.701 8.626 1.51 12.688 2.38 38.56 8.308 65.467 25.404 84.913 41.656 21.504 17.972 35.513 36.18 56.428 53.579 17.645 14.701 44.884 32.565 85.272 25.538 10.217-1.76 20.407-5.287 30.489-9.846 14.395-6.534 28.648-15.133 42.48-23.441 23.008-13.818 46.199-27.096 69.879-38.041 20.06-9.273 41.42-16.219 58.04-17.345 7.78-.546 14.16-.27 20.29.034 13.98.701 26.8 1.922 39.31 3.817 31.55 4.781 62.68 14.883 97.18 38.257 12.98 8.794 26.61 19.779 42.03 32.606 6.88 5.725 14.03 11.929 21.62 18.356 27.05 22.854 58.21 46.383 82.33 67.653 24.67 21.748 42.07 42.202 48.32 61.408"/>
        <path stroke="#fff" stroke-miterlimit="10" stroke-width=".375"
              d="M-352.271 242.816c12.58-30.792 31.159-58.603 53.422-81.322 12.228-12.476 26.169-23.381 39.426-29.322 22.927-10.23 37.91-8.895 50.26-9.313 11.937-.411 23.075.074 34.809 2.333 17.963 3.46 43.266 11.296 63.111 46.431 8.355 14.809 13.853 33.246 18.24 52.621 1.991 8.76 3.786 17.736 5.688 26.348 2.004 9.09 4.198 17.843 6.893 25.902 6.906 20.744 15.668 35.378 22.046 46.181 4.57 7.681 8.152 13.723 11.795 19.26a218.57 218.57 0 0 0 4.482 6.589c9.967 14.128 24.165 28.33 51.98 35.006 19.838 4.761 45.195 3.5 72.244-2.9 18.749-4.504 38.371-11.471 57.485-20.473 46.786-22.046 91.183-54.227 135.22-82.584 15.018-9.67 31.017-18.673 45.243-22.564 21.714-5.861 33.421-3.278 42.555-3.858 37.943-2.394 56.177-10.83 117.047 11.087 19.859 7.155 47.179 20.528 83.383 27.008 24.564 4.35 49.488 4.472 71.615 6.872 4.455.499 8.748 1.079 12.871 1.727 39.183 6.103 67.031 20.069 87.716 33.132 22.852 14.424 38.459 28.923 60.66 42.701 18.728 11.653 46.577 26.354 87.033 17.763 10.23-2.152 20.448-5.962 30.577-10.723 14.476-6.831 28.844-15.585 42.873-23.987 23.325-13.966 46.917-27.198 71.097-37.779 20.49-8.962 42.46-15.274 59.05-15.085 7.77.067 13.98 1.052 19.87 2.05 13.48 2.293 25.57 5.098 37.25 8.524 29.42 8.625 57.52 22.247 89.54 48.433 12.04 9.833 24.83 21.816 39.7 35.425 6.65 6.076 13.64 12.597 21.16 19.273 26.81 23.745 58.79 47.112 84.05 67.451 25.79 20.771 44.72 39.545 53.05 57.133"/>
        <path stroke="#fff" stroke-miterlimit="10" stroke-width=".375"
              d="M-352.562 235.141c13.007-30.9 32.297-58.623 55.338-80.857 12.661-12.213 27.11-22.74 40.727-27.818 23.521-8.74 37.937-4.822 49.237-3.122 10.888 1.631 20.719 4.026 31.011 8.099 15.769 6.231 38.275 16.556 56.495 52.641 7.692 15.227 12.831 33.874 17.171 53.431 1.971 8.841 3.819 17.884 5.843 26.543 2.14 9.131 4.564 17.904 7.577 25.896 7.76 20.575 17.882 34.372 25.397 43.908 5.383 6.777 9.676 11.734 13.941 16.131 1.7 1.746 3.42 3.459 5.194 5.192 11.382 11.101 26.535 22.133 54.519 26.078 19.953 2.819 45.107-.02 71.94-7.627 18.599-5.348 38.072-12.988 57.139-22.49 46.637-23.232 91.365-55.656 136.215-83.521 15.343-9.535 31.823-18.289 46.34-21.33 22.181-4.566 33.252.324 41.539 1.713 34.247 5.739 47.037 4.97 104.169 33.658 18.708 9.387 45.243 25.127 81.839 32.147 24.802 4.707 50.084 4.215 72.516 5.59 4.516.29 8.87.648 13.047 1.059 39.806 3.891 68.602 14.742 90.52 24.608 24.185 10.884 41.403 21.661 64.898 31.83 19.818 8.605 48.27 20.144 88.786 9.994 10.244-2.549 20.489-6.642 30.665-11.606 14.551-7.134 29.054-16.043 43.266-24.533 23.637-14.115 47.663-27.299 72.343-37.509 20.9-8.652 43.47-14.337 60.05-12.833 7.76.688 13.79 2.374 19.45 4.073 12.96 3.898 24.33 8.275 35.17 13.231 27.28 12.463 52.36 29.619 81.9 58.61 11.09 10.878 23.04 23.852 37.39 38.244 6.41 6.44 13.23 13.271 20.69 20.197 26.56 24.635 59.34 47.847 85.76 67.248 26.92 19.78 47.37 36.882 57.8 52.857"/>
        <path stroke="#fff" stroke-miterlimit="10" stroke-width=".375"
              d="M-352.853 227.479c13.433-31.028 33.434-58.643 57.247-80.398 13.095-11.957 28.059-22.106 42.027-26.321 24.138-7.243 37.978-.755 48.222 3.075 9.838 3.669 18.362 7.985 27.212 13.865 13.582 9.017 33.278 21.823 49.887 58.859 7.015 15.639 11.795 34.508 16.095 54.247 1.95 8.915 3.845 18.032 6.005 26.732 2.275 9.185 4.923 17.972 8.267 25.896 8.6 20.406 20.09 33.361 28.743 41.635 6.195 5.874 11.199 9.745 16.094 12.989 1.95 1.294 3.9 2.535 5.904 3.803 12.797 8.079 28.905 15.929 57.071 17.156 20.07.877 45.02-3.534 71.63-12.361 18.456-6.191 37.794-14.506 56.793-24.5 46.502-24.426 91.562-57.086 137.218-84.452 15.681-9.4 32.621-17.945 47.436-20.109 22.635-3.305 33.089 3.918 40.53 7.29 30.523 13.797 37.89 20.797 91.298 56.222 17.55 11.633 43.3 29.719 80.289 37.286 25.038 5.071 50.679 3.958 73.416 4.302 4.577.081 8.985.223 13.23.398 40.429 1.679 70.153 9.421 93.323 16.091 25.519 7.35 44.348 14.398 69.13 20.959 20.908 5.557 49.962 13.926 90.546 2.212 10.258-2.933 20.523-7.303 30.746-12.482 14.625-7.432 29.25-16.502 43.659-25.074 23.955-14.263 48.398-27.399 73.575-37.245 21.33-8.335 44.49-13.4 61.06-10.574 7.75 1.301 13.59 3.702 19.02 6.103 12.45 5.489 23.1 11.444 33.11 17.931 25.15 16.293 47.19 36.976 74.26 68.786 10.15 11.916 21.26 25.896 35.06 41.063 6.19 6.797 12.84 13.939 20.23 21.121 26.32 25.518 59.91 48.575 87.48 67.046 28.04 18.795 50.01 34.211 62.55 48.575"/>
        <path stroke="#fff" stroke-miterlimit="10" stroke-width=".375"
              d="M-353.145 219.806c13.86-31.135 34.566-58.656 59.164-79.939 13.521-11.694 28.999-21.459 43.313-24.811 24.747-5.745 38.012 3.298 47.213 9.266 8.782 5.699 16.006 11.95 23.407 19.624 11.388 11.809 28.282 27.097 43.279 65.071 6.338 16.063 10.766 35.141 15.024 55.069 1.923 8.989 3.867 18.181 6.162 26.927 2.417 9.226 5.281 18.026 8.958 25.889 9.445 20.238 22.303 32.35 32.087 39.35 7.008 4.977 12.722 7.762 18.254 9.866 2.2.836 4.38 1.612 6.608 2.401 14.199 5.064 31.275 9.738 59.617 8.234 20.178-1.066 44.932-7.061 71.324-17.089 18.316-7.04 37.504-16.03 56.449-26.509 46.353-25.626 91.751-58.509 138.206-85.389 16.02-9.273 33.428-17.527 48.54-18.876 23.102-1.969 32.927 7.492 39.522 12.86 26.812 21.789 28.715 36.639 78.419 78.787 16.386 13.899 41.363 34.319 78.732 42.425 25.282 5.429 51.275 3.709 74.323 3.021a890.58 890.58 0 0 1 13.413-.263c41.052-.539 71.71 4.093 96.119 7.566 26.86 3.824 47.301 7.142 73.369 10.082 21.991 2.516 51.648 7.715 92.3-5.563 10.271-3.325 20.563-7.978 30.834-13.36 14.706-7.735 29.46-16.953 44.051-25.619 24.267-14.411 49.129-27.507 74.808-36.976 21.76-8.025 45.52-12.462 62.07-8.328 7.73 1.915 13.4 5.031 18.59 8.126 11.94 7.088 21.87 14.614 31.05 22.639 23.01 20.123 42.02 44.34 66.62 78.962 9.2 12.954 19.46 27.939 32.72 43.888 5.96 7.162 12.45 14.607 19.77 22.038 26.07 26.409 60.47 49.31 89.19 66.851 29.17 17.81 52.67 31.553 67.29 44.292"/>
        <path stroke="#fff" stroke-miterlimit="10" stroke-width=".375"
              d="M-353.442 212.131c14.293-31.25 35.709-58.677 61.086-79.475 13.948-11.43 29.947-20.818 44.613-23.306 25.35-4.255 38.045 7.337 46.191 15.463 7.732 7.715 13.65 15.909 19.608 25.39 9.188 14.601 23.285 32.363 36.664 71.281 5.667 16.482 9.743 35.776 13.955 55.886 1.909 9.07 3.9 18.329 6.317 27.123 2.553 9.279 5.647 18.086 9.655 25.882 10.285 20.069 24.517 31.352 35.432 37.084 7.82 4.066 14.253 5.772 20.407 6.73 2.451.384 4.875.688 7.32 1.011 15.593 2.051 33.644 3.541 62.163-.687 20.292-3.015 44.85-10.581 71.012-21.83 18.166-7.883 37.213-17.547 56.103-28.512 46.211-26.827 91.948-59.945 139.209-86.333 16.351-9.131 34.226-17.149 49.63-17.642 23.576-.667 32.784 11.06 38.519 18.424 23.17 29.753 19.527 52.513 65.535 101.358 15.214 16.151 39.427 38.911 77.188 47.557 25.512 5.793 51.871 3.452 75.224 1.733 4.692-.331 9.235-.641 13.589-.924 41.681-2.751 73.274-1.221 98.928-.951 28.187.29 50.24-.128 77.601-.796 23.075-.532 53.34 1.504 94.053-13.332 10.285-3.722 20.604-8.652 30.923-14.243 14.781-8.038 29.663-17.412 44.45-26.165 24.585-14.56 49.854-27.602 76.027-36.706 22.18-7.722 46.55-11.525 63.08-6.07 7.73 2.529 13.21 6.36 18.18 10.143 11.42 8.706 20.63 17.79 28.97 27.346 20.88 23.947 36.88 51.69 58.98 89.145 8.26 13.993 17.67 29.976 30.4 46.7 5.72 7.519 12.06 15.281 19.3 22.962 25.82 27.299 61.03 50.045 90.91 66.642 30.28 16.832 55.31 28.896 72.03 40.023"/>
        <path stroke="#fff" stroke-miterlimit="10" stroke-width=".375"
              d="M-353.74 204.463c14.726-31.365 36.847-58.697 63.002-79.023 14.375-11.168 30.896-20.17 45.907-21.796 25.959-2.765 38.092 11.377 45.175 21.654 6.703 9.732 11.287 19.881 15.81 31.15 6.98 17.398 18.281 37.63 30.048 77.498 4.991 16.893 8.708 36.41 12.879 56.701 1.882 9.145 3.927 18.478 6.479 27.312 2.688 9.327 6.013 18.148 10.339 25.883 11.132 19.9 26.732 30.34 38.784 34.811 8.619 3.163 15.769 3.783 22.553 3.594 2.702-.074 5.356-.243 8.03-.391 17.002-.951 36.015-2.643 64.71-9.616 20.4-4.95 44.761-14.102 70.7-26.557 18.024-8.733 36.929-19.071 55.758-30.529 46.076-28.013 92.151-61.361 140.211-87.264 16.683-8.996 35.032-16.771 50.727-16.42 24.036.633 32.642 14.633 37.51 24 19.582 37.731 10.319 68.382 52.657 123.929 14.043 18.418 37.49 43.511 75.637 52.689 25.756 6.157 52.467 3.21 76.131.459 4.753-.54 9.351-1.066 13.772-1.585 42.298-4.977 74.831-6.535 101.725-9.468 29.528-3.231 53.185-7.391 81.832-11.667 24.166-3.574 55.034-4.714 95.814-21.108 10.292-4.113 20.638-9.326 31.004-15.119 14.855-8.342 29.866-17.871 44.837-26.712 24.903-14.708 50.598-27.71 77.269-36.443 22.6-7.398 47.57-10.581 64.09-3.817 7.71 3.149 13.01 7.695 17.75 12.173 10.9 10.297 19.4 20.952 26.9 32.046 18.76 27.763 31.73 59.048 51.36 99.321 7.32 15.025 15.87 32.019 28.06 49.519 5.5 7.883 11.67 15.949 18.85 23.893 25.57 28.182 61.59 50.773 92.62 66.439 31.41 15.854 57.96 26.233 76.77 35.742"/>
        <path stroke="#fff" stroke-miterlimit="10" stroke-width=".375"
              d="M-354.031 196.795c15.153-31.486 37.984-58.711 64.919-78.564 14.801-10.905 31.836-19.53 47.199-20.285 26.562-1.275 38.16 15.409 44.159 27.845 5.674 11.754 8.924 23.845 12.012 36.915 4.767 20.19 13.271 42.903 23.434 83.709 4.32 17.318 7.685 37.043 11.808 57.517 1.862 9.226 3.954 18.633 6.635 27.515 2.831 9.367 6.372 18.208 11.037 25.875 11.971 19.732 28.938 29.329 42.121 32.532 9.439 2.259 17.3 1.787 24.714.459 2.945-.526 5.836-1.16 8.734-1.781 18.41-3.952 38.404-8.78 67.262-18.532 20.529-6.851 44.667-17.628 70.39-31.29 17.881-9.576 36.636-20.589 55.405-32.532 45.933-29.214 92.354-62.784 141.213-88.201 17.015-8.861 35.831-16.387 51.83-15.194 24.497 1.929 32.514 18.209 36.502 29.572 16.02 45.722 1.083 84.256 39.779 146.493 12.851 20.683 35.546 48.103 74.086 57.828 25.993 6.521 53.056 2.96 77.025-.823 4.821-.749 9.479-1.497 13.955-2.253 42.92-7.202 76.395-11.842 104.528-17.992 30.868-6.744 56.13-14.647 86.071-22.531 25.248-6.629 56.726-10.924 97.568-28.883 10.305-4.511 20.678-10.001 31.091-16.003 14.93-8.638 30.069-18.322 45.229-27.251 25.215-14.856 51.323-27.811 78.505-36.173 23.02-7.088 48.59-9.644 65.09-1.558 7.71 3.763 12.82 9.016 17.33 14.189 10.38 11.909 18.18 24.129 24.83 36.76 16.65 31.58 26.59 66.398 43.72 109.491 6.38 16.07 14.08 34.062 25.74 52.337 5.26 8.248 11.27 16.624 18.38 24.811 25.32 29.078 62.15 51.521 94.33 66.243 32.54 14.877 60.62 23.569 81.53 31.459"/>
        <path stroke="#fff" stroke-miterlimit="10" stroke-width=".375"
              d="M-354.322 189.121c15.579-31.594 39.115-58.731 66.835-78.098 15.234-10.642 32.784-18.89 48.486-18.782 27.178.223 38.228 19.456 43.15 34.036 4.652 13.77 6.554 27.804 8.213 42.681 2.553 22.976 8.267 48.17 16.826 89.92 3.636 17.729 6.655 37.677 10.731 58.333 1.849 9.3 3.988 18.782 6.798 27.697 2.973 9.421 6.737 18.268 11.727 25.875 12.818 19.557 31.153 28.317 45.473 30.259 10.245 1.356 18.823-.195 26.867-2.677 3.196-.984 6.324-2.084 9.438-3.183 19.825-6.953 40.788-14.971 69.808-27.454 20.644-8.793 44.586-21.148 70.085-36.024 17.733-10.426 36.346-22.106 55.06-34.542 45.785-30.407 92.551-64.2 142.208-89.138 17.36-8.726 36.637-16.01 52.928-13.959 24.957 3.23 32.391 21.788 35.492 35.141 12.472 53.747-8.159 100.117 26.908 169.065 11.666 22.942 33.603 52.695 72.536 62.959 26.23 6.879 53.652 2.711 77.925-2.104a733.603 733.603 0 0 0 14.138-2.913c43.536-9.428 77.959-17.15 107.331-26.51 32.209-10.271 59.075-21.91 90.302-33.415 26.339-9.67 58.419-17.136 99.329-36.652 10.325-4.896 20.718-10.669 31.179-16.879 15.011-8.943 30.266-18.775 45.622-27.805 25.533-15.005 52.054-27.912 79.737-35.903 23.45-6.778 49.62-8.706 66.1.694 7.71 4.377 12.62 10.345 16.91 16.212 9.86 13.515 16.94 27.299 22.76 41.461 14.53 35.411 21.44 73.762 36.08 119.673 5.45 17.102 12.28 36.106 23.41 55.164 5.03 8.605 10.87 17.284 17.92 25.734 25.08 29.962 62.71 52.264 96.05 66.034 33.65 13.906 63.26 20.912 86.27 27.184"/>
        <path stroke="#fff" stroke-miterlimit="10" stroke-width=".375"
              d="M-354.614 181.455c16.006-31.716 40.253-58.751 68.745-77.647 15.667-10.379 33.732-18.249 49.792-17.278 27.781 1.72 38.289 23.509 42.135 40.233 3.623 15.794 4.157 31.763 4.401 48.447.305 25.754 3.27 53.437 10.224 96.132 2.952 18.147 5.62 38.317 9.655 59.149 1.815 9.38 4.009 18.929 6.954 27.892 3.101 9.468 7.096 18.329 12.411 25.868 13.657 19.395 33.367 27.312 48.818 27.987 11.056.458 20.34-2.185 29.02-5.807 3.453-1.436 6.81-3 10.156-4.572 21.253-9.92 43.157-21.175 72.353-36.382 20.76-10.736 44.49-24.669 69.773-40.759 17.59-11.269 36.055-23.623 54.722-36.551 45.642-31.608 92.754-65.616 143.203-90.082 17.692-8.578 37.436-15.625 54.025-12.726 25.417 4.525 32.263 25.37 34.484 40.712 8.917 61.786-17.422 115.978 14.022 191.622 10.481 25.202 31.674 57.295 70.985 68.105 26.474 7.236 54.248 2.455 78.833-3.392a561.546 561.546 0 0 0 14.314-3.574c44.159-11.66 79.557-22.403 110.134-35.034 33.577-13.723 62.021-29.173 94.535-44.279 27.428-12.725 60.111-23.36 101.081-44.434 10.333-5.294 20.766-11.35 31.268-17.763 15.085-9.246 30.469-19.233 46.015-28.344 25.851-15.153 52.792-28.013 80.976-35.64 23.86-6.461 50.64-7.762 67.1 2.953 7.69 4.991 12.43 11.674 16.48 18.235 9.35 15.12 15.72 30.468 20.69 46.175 12.43 39.228 16.31 81.113 28.44 129.843 4.52 18.14 10.5 38.156 21.09 57.976 4.8 8.975 10.48 17.965 17.46 26.657 24.83 30.853 63.26 53.006 97.75 65.839 34.77 12.928 65.91 18.242 91.02 22.902"/>
        <path stroke="#fff" stroke-miterlimit="10" stroke-width=".375"
              d="M-354.912 173.779c16.44-31.83 41.39-58.765 70.668-77.182 16.087-10.122 34.673-17.6 51.079-15.767 28.39 3.204 38.357 27.562 41.119 46.424 2.614 17.824 1.794 35.715.609 54.206-1.909 28.539-1.746 58.711 3.602 102.343 2.282 18.572 4.598 38.944 8.586 59.971 1.801 9.462 4.042 19.078 7.109 28.088 3.25 9.515 7.462 18.383 13.109 25.855 14.503 19.227 35.58 26.301 52.162 25.714 11.87-.452 21.87-4.174 31.173-8.942 3.697-1.895 7.299-3.925 10.86-5.975 22.67-12.928 45.541-27.359 74.9-45.304 20.874-12.678 44.41-28.189 69.461-45.487 17.449-12.111 35.771-25.14 54.377-38.553 45.507-32.809 92.957-67.033 144.212-91.02 18.024-8.437 38.235-15.248 55.121-11.498 25.885 5.826 32.142 28.957 33.469 46.282 5.362 69.838-26.684 131.826 1.144 214.193 9.283 27.454 29.737 61.894 69.435 73.237 26.711 7.594 54.844 2.199 79.74-4.673a434.185 434.185 0 0 0 14.489-4.242c44.776-13.892 81.129-27.717 112.938-43.551 34.931-17.257 64.966-36.436 98.773-55.157 28.505-15.766 61.797-29.564 102.835-52.203 10.346-5.685 20.8-12.024 31.349-18.639 15.167-9.549 30.679-19.692 46.414-28.89 26.156-15.302 53.524-28.115 82.199-35.371 24.29-6.157 51.67-6.831 68.11 5.206 7.7 5.604 12.23 13.002 16.06 20.251 8.79 16.738 14.53 33.638 18.62 50.882 10.4 43.038 11.18 88.47 20.8 140.026 3.59 19.179 8.71 40.192 18.77 60.794 4.55 9.334 10.08 18.627 16.99 27.576 24.59 31.735 63.82 53.754 99.48 65.629 35.88 11.957 68.55 15.585 95.76 18.626"/>
        <path stroke="#fff" stroke-miterlimit="10" stroke-width=".375"
              d="M-355.203 166.113c16.873-31.938 42.528-58.785 72.584-76.723 16.514-9.853 35.614-16.954 52.372-14.257 29 4.7 38.431 31.615 40.104 52.615 1.584 19.86-.569 39.68-3.189 59.972-4.117 31.324-6.758 63.977-3.007 108.56 1.598 18.99 3.569 39.579 7.516 60.788 1.774 9.535 4.063 19.226 7.265 28.283 3.386 9.556 7.827 18.444 13.799 25.848 15.343 19.058 37.795 25.296 55.507 23.435 12.682-1.349 23.4-6.157 33.326-12.071 3.948-2.354 7.787-4.856 11.572-7.371 24.084-15.936 47.91-33.55 77.445-54.22 20.996-14.62 44.322-31.715 69.157-50.22 17.306-12.962 35.486-26.665 54.031-40.57 45.365-33.995 93.16-68.435 145.201-91.951 18.369-8.301 39.04-14.87 56.225-10.264 26.345 7.115 32.012 32.545 32.459 51.846 1.808 77.903-35.96 147.667-11.727 236.765 8.078 29.713 27.794 66.486 67.884 78.375 26.948 7.958 55.44 1.949 80.641-5.961a410.915 410.915 0 0 0 14.679-4.896c45.385-16.124 82.692-33.044 115.734-52.075 36.278-20.784 67.918-43.699 103.005-66.034 29.595-18.815 63.49-35.783 104.595-59.979 10.36-6.076 20.841-12.692 31.438-19.523 15.241-9.846 30.881-20.143 46.806-29.436 26.474-15.45 54.255-28.216 83.441-35.108 24.71-5.833 52.68-5.887 69.11 7.465 7.68 6.225 12.03 14.331 15.64 22.281 8.27 18.337 13.29 36.808 16.55 55.582 8.28 46.882 6.04 95.835 13.16 150.203 2.64 20.217 6.91 42.236 16.44 63.613 4.32 9.691 9.69 19.301 16.53 28.492 24.34 32.626 64.38 54.503 101.18 65.434 37.02 10.993 71.21 12.928 100.51 14.351"/>
        <path stroke="#fff" stroke-miterlimit="10" stroke-width=".375"
              d="M-355.494 158.444c17.3-32.06 43.665-58.805 74.5-76.265 16.94-9.596 36.562-16.32 53.665-12.759 29.603 6.191 38.533 35.668 39.088 58.812.603 21.89-2.931 43.632-6.994 65.731-6.317 34.103-11.856 69.251-9.614 114.771.88 19.409 2.539 40.22 6.439 61.604 1.753 9.617 4.089 19.381 7.427 28.479 3.514 9.603 8.186 18.504 14.483 25.842 16.196 18.889 40.016 24.29 58.866 21.168 13.487-2.252 24.916-8.146 35.479-15.207 4.205-2.805 8.267-5.773 12.282-8.767 25.5-18.943 50.287-39.747 79.99-63.148 21.112-16.562 44.228-35.229 68.847-54.954 17.157-13.805 35.194-28.182 53.686-42.58 45.215-35.189 93.356-69.845 146.195-92.888 18.702-8.16 39.847-14.485 57.322-9.037 26.806 8.423 31.925 36.14 31.451 57.423-1.605 85.962-45.236 163.495-24.612 259.329 6.879 31.966 25.858 71.086 66.34 83.508 27.192 8.321 56.036 1.699 81.542-7.236a349.053 349.053 0 0 0 14.862-5.564c45.994-18.363 84.269-38.358 118.543-60.599 37.626-24.311 70.857-50.955 107.237-76.898 30.685-21.863 65.183-42 106.356-67.754 10.366-6.474 20.875-13.366 31.518-20.407 15.316-10.142 31.085-20.602 47.2-29.982 26.792-15.592 54.993-28.317 84.666-34.838 25.14-5.523 53.72-4.943 70.13 9.717 7.67 6.839 11.83 15.659 15.21 24.305 7.76 19.934 12.08 39.983 14.49 60.288 6.16 50.72 1.01 103.193 5.53 160.379 1.75 21.256 5.11 44.28 14.11 66.433 4.09 10.054 9.29 19.974 16.07 29.422 24.09 33.51 64.94 55.252 102.9 65.226 38.14 10.027 73.85 10.263 105.25 10.075"/>
        <path stroke="#fff" stroke-miterlimit="10" stroke-width=".375"
              d="M-355.792 150.77c17.733-32.174 44.803-58.819 76.416-75.806 17.374-9.327 37.511-15.68 54.966-11.249 30.211 7.688 38.594 39.734 38.079 65.003-.427 23.927-5.295 47.584-10.8 71.497-8.531 36.888-16.852 74.518-16.229 120.989.203 19.819 1.51 40.846 5.369 62.413 1.733 9.69 4.117 19.523 7.583 28.674 3.663 9.65 8.552 18.559 15.174 25.842 17.042 18.714 42.223 23.272 62.203 18.889 14.3-3.156 26.447-10.143 37.633-18.343 4.448-3.264 8.754-6.703 12.986-10.156 26.921-21.958 52.664-45.952 82.543-72.077 21.22-18.505 44.14-38.756 68.542-59.682 17.015-14.647 34.903-29.699 53.333-44.582 45.074-36.389 93.567-71.254 147.205-93.825 19.033-8.012 40.639-14.115 58.419-7.81 27.273 9.718 31.789 39.734 30.442 62.987-5.2 94.041-54.519 179.322-37.484 281.9 5.681 34.211 23.915 75.678 64.79 88.646 27.429 8.679 56.625 1.45 82.442-8.517 5.18-1.996 10.197-4.1 15.038-6.225 46.57-20.683 85.841-43.679 121.347-69.123 38.973-27.838 73.802-58.211 111.475-87.769 31.769-24.911 66.869-48.211 108.11-75.53 10.38-6.865 20.915-14.04 31.606-21.276 15.39-10.453 31.288-21.061 47.585-30.529 27.104-15.746 55.725-28.418 85.902-34.568 25.557-5.22 54.737-4.012 71.137 11.97 7.66 7.452 11.64 16.988 14.79 26.328 7.24 21.539 10.84 43.159 12.42 64.995 4.03 54.557-4.14 110.557-2.12 170.556.82 22.294 3.32 46.322 11.79 69.251 3.85 10.419 8.9 20.642 15.61 30.34 23.84 34.399 65.5 56.006 104.61 65.029 39.26 9.064 76.5 7.6 109.99 5.793"/>
        <path stroke="#fff" stroke-miterlimit="10" stroke-width=".375"
              d="M-356.083 143.097c18.159-32.282 45.94-58.832 78.332-75.34 17.807-9.078 38.451-15.033 56.259-9.739 30.82 9.178 38.648 43.794 37.056 71.193-1.455 25.964-7.657 51.543-14.591 77.263-10.738 39.667-21.856 79.771-22.845 127.193-.473 20.238.481 41.481 4.293 63.236 1.713 9.772 4.144 19.678 7.739 28.87 3.799 9.697 8.917 18.619 15.871 25.835 17.882 18.552 44.437 22.268 65.555 16.616 15.106-4.059 27.964-12.125 39.786-21.478 4.699-3.716 9.242-7.621 13.69-11.552 28.336-24.966 55.047-52.136 85.096-80.992 21.335-20.447 44.051-42.277 68.223-64.416 16.873-15.497 34.619-31.223 52.995-46.599 44.932-37.583 93.81-72.549 148.2-94.763 19.392-7.829 41.445-13.723 59.516-6.575 27.733 11.013 31.647 43.322 29.433 68.557-8.789 102.113-63.998 195.163-50.368 304.465 4.414 36.47 21.985 80.27 63.239 93.784 27.673 9.037 57.227 1.194 83.349-9.805 5.234-2.199 10.319-4.525 15.221-6.879 47.179-22.901 87.412-48.999 124.143-77.64 40.327-31.372 76.748-65.481 115.714-98.647 32.852-27.959 68.561-54.422 109.863-83.305 10.4-7.256 20.963-14.708 31.695-22.16 15.471-10.749 31.491-21.512 47.985-31.075 27.422-15.888 56.455-28.519 87.134-34.305 25.98-4.896 55.75-3.068 72.14 14.229 7.65 8.073 11.44 18.309 14.36 28.344 6.71 23.138 9.61 46.336 10.36 69.703 1.91 58.394-9.29 117.927-9.76 180.738-.12 23.34 1.48 48.373 9.46 72.07 3.59 10.79 8.5 21.317 15.14 31.264 23.6 35.29 66.05 56.822 106.33 64.827 40.37 8.16 79.15 4.937 114.74 1.511"/>
        <path stroke="#fff" stroke-miterlimit="10" stroke-width=".375"
              d="M-356.381 135.436c18.593-32.404 47.078-58.86 80.248-74.89 18.234-8.813 39.4-14.39 57.552-8.233 31.43 10.668 38.709 47.846 36.048 77.39-2.485 27.994-10.021 55.501-18.396 83.022-12.939 42.445-26.853 85.038-29.453 133.411-1.151 20.656-.549 42.114 3.222 64.052 1.693 9.846 4.178 19.826 7.902 29.058 3.934 9.752 9.283 18.687 16.562 25.836 18.728 18.383 46.651 21.262 68.9 14.343 15.918-4.963 29.493-14.114 41.938-24.607 4.956-4.175 9.73-8.551 14.408-12.955 29.752-27.966 57.417-58.333 87.635-89.914 21.457-22.389 43.963-45.796 67.919-69.15 16.73-16.34 34.328-32.741 52.643-48.609 44.796-38.776 94.006-73.978 149.202-95.699 19.723-7.695 42.25-13.346 60.619-5.348 28.194 12.314 31.512 46.922 28.417 74.133-12.384 110.186-73.226 210.97-63.239 327.036 3.229 38.703 20.041 84.87 61.689 98.924 27.909 9.401 57.823.937 84.249-11.094 5.295-2.4 10.441-4.956 15.404-7.546 47.795-25.12 88.975-54.314 126.946-86.164 41.661-34.892 79.686-72.738 119.939-109.518 33.949-31.007 70.254-60.639 111.624-91.08 10.407-7.655 20.996-15.383 31.782-23.037 15.553-11.053 31.694-21.971 48.378-31.621 27.74-16.043 57.193-28.62 88.366-34.036 26.407-4.585 56.777-2.131 73.147 16.482 7.64 8.686 11.25 19.644 13.95 30.374 6.19 24.736 8.37 49.512 8.28 74.41-.21 62.224-14.44 125.298-17.4 190.914-1.06 24.385-.32 50.416 7.13 74.889 3.37 11.147 8.11 21.984 14.69 32.188 23.34 36.18 66.61 57.557 108.04 64.625 41.49 7.182 81.8 2.279 119.48-2.765"/>
        <path stroke="#fff" stroke-miterlimit="10" stroke-width=".375"
              d="M-356.672 127.761c19.019-32.511 48.208-58.873 82.164-74.424 18.661-8.55 40.348-13.75 58.846-6.73 32.032 12.159 38.763 51.906 35.032 83.582-3.514 30.029-12.391 59.452-22.202 88.787-15.146 45.23-31.85 90.299-36.061 139.622-1.822 21.067-1.578 42.755 2.153 64.868 1.672 9.926 4.198 19.975 8.057 29.254 4.069 9.792 9.635 18.741 17.252 25.822 19.568 18.214 48.865 20.251 72.245 12.064 16.731-5.86 31.011-16.104 44.092-27.737 5.2-4.626 10.21-9.475 15.112-14.344 31.166-30.98 59.8-64.53 90.188-98.842 21.572-24.332 43.875-49.317 67.607-73.878 16.581-17.189 34.037-34.258 52.297-50.611 44.654-39.977 94.203-75.401 150.198-96.637 20.055-7.56 43.056-12.968 61.723-4.121 28.654 13.616 31.369 50.517 27.408 79.704-15.972 118.265-82.455 226.771-76.118 349.607 2.045 40.941 18.106 89.462 60.139 104.049 28.146 9.758 58.419.688 85.15-12.368 5.356-2.617 10.563-5.395 15.58-8.214 48.404-27.332 90.553-59.628 129.749-94.681 43.015-38.426 82.645-80.001 124.177-120.389 35.033-34.056 71.947-66.857 113.378-98.856 10.42-8.045 21.037-16.057 31.864-23.92 15.627-11.356 31.897-22.43 48.77-32.161 28.051-16.191 57.917-28.728 89.598-33.772 26.834-4.276 57.804-1.187 74.154 18.734 7.63 9.299 11.05 20.966 13.51 32.397 5.68 26.334 7.16 52.681 6.21 79.11-2.31 66.068-19.58 132.676-25.03 201.097-2 25.424-2.1 52.453 4.81 77.708 3.13 11.505 7.71 22.652 14.22 33.105 23.1 37.07 67.19 58.299 109.76 64.423 42.62 6.204 84.45-.385 124.22-7.041"/>
        <path stroke="#fff" stroke-miterlimit="10" stroke-width=".375"
              d="M-356.963 120.087c19.446-32.626 49.346-58.886 84.08-73.958 19.087-8.288 41.289-13.11 60.139-5.22 32.642 13.656 38.824 55.966 34.017 89.772-4.55 32.073-14.754 63.418-26.007 94.554-17.347 48.008-36.854 95.558-42.677 145.833-2.498 21.485-2.607 43.382 1.077 65.683 1.652 10.001 4.225 20.123 8.213 29.443 4.211 9.846 10 18.802 17.943 25.822 20.407 18.046 51.065 19.246 75.589 9.799 17.537-6.764 32.541-18.094 46.245-30.88 5.45-5.085 10.698-10.392 15.823-15.74 32.582-33.995 62.17-70.721 92.734-107.771C31.9 321.151 54 294.587 77.508 268.813c16.44-18.033 33.753-35.776 51.953-52.621 44.504-41.171 94.392-76.825 151.199-97.575 20.394-7.425 43.855-12.584 62.813-2.886 29.128 14.903 31.241 54.104 26.406 85.267-19.567 126.33-91.683 242.571-88.995 372.172.859 43.186 16.162 94.061 58.588 109.194 28.383 10.115 59.007.438 86.05-13.656 5.417-2.819 10.685-5.813 15.763-8.875 49.014-29.551 92.124-64.949 132.552-103.206 44.363-41.952 85.584-87.263 128.409-131.259 36.123-37.104 73.64-73.068 115.131-106.625 10.441-8.443 21.078-16.731 31.952-24.803 15.702-11.653 32.101-22.882 49.163-32.714 28.37-16.34 58.656-28.823 90.831-33.503 27.257-3.958 58.827-.249 75.167 21 7.62 9.913 10.86 22.288 13.09 34.413 5.16 27.94 5.93 55.858 4.14 83.818-4.43 69.905-24.72 140.04-32.66 211.274-2.94 26.469-3.9 54.489 2.48 80.519 2.9 11.869 7.32 23.327 13.77 34.036 22.85 37.953 67.74 59.034 111.46 64.22 43.75 5.22 87.1-3.055 128.97-11.323"/>
        <path stroke="#fff" stroke-miterlimit="10" stroke-width=".375"
              d="M-357.254 112.418c19.872-32.74 50.483-58.906 85.989-73.506 19.521-8.025 42.237-12.463 61.439-3.71 33.245 15.147 38.878 60.026 33.001 95.964-17.848 109.16-96.742 209.682-79.084 318.862 3.345 20.724 10.901 41.919 27.003 55.461 21.26 17.877 53.286 18.235 78.941 7.512 25.648-10.722 46.143-30.704 64.925-51.144 58.128-63.249 106.153-135.009 162.27-200.032 56.123-65.023 122.627-124.59 203.809-153.143 20.719-7.29 44.654-12.206 63.91-1.659 29.588 16.205 31.098 57.699 25.39 90.838-23.156 134.409-100.912 258.378-101.874 394.743-.318 45.419 14.233 98.654 57.038 114.326 34.355 12.577 72.109-4.761 102.903-24.473 161.552-103.401 264.083-278.144 416.928-393.94 42.013-31.837 89.287-59.595 141.625-66.493 27.671-3.649 59.851.681 76.171 23.245 7.61 10.527 10.66 23.617 12.68 36.436 16.22 103.402-23.64 206.338-38.24 309.975-5.65 40.058-6.91 83.298 13.45 118.291 22.61 38.844 68.31 59.777 113.19 64.025 44.87 4.249 89.74-5.712 133.71-15.605"/>
        <mask id="b" width="930" height="874" x="252" y="0" maskUnits="userSpaceOnUse" style="mask-type:luminance">
            <path fill="#fff" d="M252.933.008H1182v873.984H252.933V.008Z"/>
        </mask>
        <g mask="url(#b)">
            <path stroke="#fff" stroke-miterlimit="10" stroke-width=".375"
                  d="M1233.68 958.276c-69.35 1.747-139.04-12.712-201.9-41.885-48.693-22.592-97.633-60.997-102.156-114.313-4.821-56.89 42.961-107.865 40.198-164.897-2.417-50.032-44.89-91.168-92.496-107.326-47.606-16.158-99.484-12.28-149.439-6.494s-100.791 13.271-150.177 3.803c-71.365-13.676-134.509-64.82-161.931-131.859-27.422-67.033-18.004-147.883 24.591-206.533 42.602-58.644 117.115-92.888 189.509-86.509C493.555 73.488 367.821-2.757 279.57-110.17c-12.966-15.78-25.608-37.718-15.099-55.211"/>
        </g>
        <mask id="c" width="936" height="874" x="246" y="0" maskUnits="userSpaceOnUse" style="mask-type:luminance">
            <path fill="#fff" d="M246 .008h936v873.984H246V.008Z"/>
        </mask>
        <g mask="url(#c)">
            <path stroke="#fff" stroke-miterlimit="10" stroke-width=".375"
                  d="M257.761-163.459c-10.826 17.628.975 39.754 13.406 56a511.772 511.772 0 0 0 48.107 54.34c32.229 31.548 68.562 58.995 107.338 82.132 38.777 23.151 80.058 42.06 122.769 56.957 24.822 8.66 50.151 15.976 75.535 22.079-29.771-1.766-60.274 4.512-89.192 17.015-29.277 12.658-56.855 31.466-78.995 55.211a212.376 212.376 0 0 0-15.546 18.734c-20.455 27.817-33.726 60.443-39.42 94.182-6.303 37.313-3.243 75.968 9.784 111.305 10.759 29.18 28.194 55.926 50.964 77.769 25.133 24.095 56.482 41.939 90.052 51.279a209.927 209.927 0 0 0 20.143 4.538c27.686 4.808 55.745 4.255 83.769 1.693 22.608-2.07 45.223-5.449 67.668-8.524 50.267-6.879 102.355-11.984 150.461 2.475 13.305 3.992 26.237 9.839 38.114 17.23 28.627 17.857 51.052 44.697 57.118 76.42.508 2.67.907 5.381 1.172 8.119 2.938 29.409-7.861 57.848-18.505 86.805-9.459 25.754-18.843 51.637-17.347 78.638.772 13.501 4.171 26.058 9.567 37.644 15.979 34.507 49.542 60.612 82.957 78.186 23.22 12.2 47.5 22.1 72.45 29.679 18.58 5.645 37.51 10.062 57.1 13.333 19.46 3.257 39.77 5.422 60.64 5.267"/>
        </g>
        <mask id="d" width="943" height="874" x="239" y="0" maskUnits="userSpaceOnUse" style="mask-type:luminance">
            <path fill="#fff" d="M239.066.008H1182v873.984H239.066V.008Z"/>
        </mask>
        <g mask="url(#d)">
            <path stroke="#fff" stroke-miterlimit="10" stroke-width=".375"
                  d="M251.051-161.545c-11.152 17.75-.183 40.071 11.7 56.782 13.988 19.604 29.832 38.453 47.24 55.865 32.27 32.302 69.414 59.87 108.929 82.86 39.521 22.99 81.561 41.541 124.854 56.627 25.161 8.773 50.795 16.401 76.159 23.245-27.571-.701-56.205 6.737-84.196 20.124-28.329 13.554-55.846 32.72-78.081 56.539a219.97 219.97 0 0 0-15.675 18.754c-20.691 27.784-34.477 60.194-40.997 93.663-7.211 37.023-5.342 75.328 6.317 110.786 9.696 29.484 26.136 57.038 48.811 79.461 25.025 24.75 57.085 42.674 91.17 51.583a204.659 204.659 0 0 0 20.427 4.255c28.031 4.37 56.347 3.23 84.575.088 22.777-2.536 45.534-6.387 68.114-9.947 50.578-7.971 102.87-14.304 151.491-1.538a162.35 162.35 0 0 1 38.668 15.679c29.162 16.536 52.488 41.885 60.071 72.637a86.858 86.858 0 0 1 1.564 7.89c4.415 28.634-4.489 57.018-14.205 86.36-8.64 26.111-18.024 52.405-17.3 79.63.4 13.575 3.284 26.199 7.99 37.865 14.043 34.751 44.511 61.24 74.923 79.482 21.13 12.658 43.27 23.097 66.13 31.385 17.03 6.177 34.39 11.255 52.91 15.47 18.4 4.195 38.34 7.614 59.42 7.823"/>
        </g>
        <mask id="e" width="950" height="874" x="232" y="0" maskUnits="userSpaceOnUse" style="mask-type:luminance">
            <path fill="#fff" d="M232.133.008H1182v873.984H232.133V.008Z"/>
        </mask>
        <g mask="url(#e)">
            <path stroke="#fff" stroke-miterlimit="10" stroke-width=".375"
                  d="M244.334-159.629c-11.469 17.878-1.34 40.388 10.001 57.558 13.352 20.136 28.945 39.592 46.367 57.389 32.324 33.044 70.274 60.747 110.527 83.574 40.266 22.841 83.064 41.029 126.933 56.303 25.505 8.875 51.431 16.826 76.788 24.406-25.377.351-52.143 8.962-79.199 23.239-27.388 14.445-54.837 33.975-77.181 57.861a232.324 232.324 0 0 0-15.782 18.768c-20.929 27.763-35.236 59.944-42.582 93.15-8.125 36.727-7.455 74.687 2.85 110.26 8.633 29.794 24.071 58.158 46.645 81.167 24.91 25.39 57.694 43.396 92.286 51.893a204.097 204.097 0 0 0 20.705 3.965c28.377 3.939 56.97 2.192 85.387-1.524 22.94-3.001 45.839-7.317 68.569-11.363 50.889-9.063 103.383-16.623 152.519-5.557a167.42 167.42 0 0 1 39.224 14.135c29.697 15.221 53.929 39.08 63.016 68.86a87.456 87.456 0 0 1 1.97 7.661c5.884 27.858-1.124 56.189-9.912 85.928-7.814 26.456-17.252 53.168-17.252 80.608 0 13.656 2.37 26.361 6.412 38.095 12.052 35.013 39.487 61.86 66.875 80.776 19.05 13.117 39.05 24.095 59.82 33.092 15.47 6.696 31.27 12.455 48.72 17.607 17.34 5.139 36.9 9.806 58.21 10.386"/>
        </g>
        <mask id="f" width="954" height="874" x="225" y="0" maskUnits="userSpaceOnUse" style="mask-type:luminance">
            <path fill="#fff" d="M225.2.008h953.33v873.984H225.2V.008Z"/>
        </mask>
        <g mask="url(#f)">
            <path stroke="#fff" stroke-miterlimit="10" stroke-width=".375"
                  d="M237.631-157.715c-11.794 18.006-2.505 40.698 8.301 58.34 12.716 20.65 28.045 40.712 45.494 58.913 32.378 33.786 71.127 61.617 112.125 84.296 41.011 22.686 84.567 40.51 129.018 55.973 25.837 8.989 52.081 17.244 77.418 25.566-23.184 1.402-48.08 11.187-74.209 26.347-26.44 15.342-53.821 35.229-76.273 59.19a242.147 242.147 0 0 0-15.905 18.781c-21.159 27.73-35.987 59.695-44.152 92.631-9.039 36.437-9.574 74.053-.617 109.734 7.563 30.124 21.999 59.277 44.478 82.867 24.808 26.044 58.304 44.131 93.397 52.203a202.042 202.042 0 0 0 20.99 3.675c28.721 3.507 57.579 1.167 86.199-3.129 23.102-3.473 46.143-8.248 69.015-12.786 51.201-10.156 103.899-18.943 153.542-9.569a172.704 172.704 0 0 1 39.786 12.583c30.218 13.899 55.365 36.268 65.968 65.084a86.019 86.019 0 0 1 2.356 7.425c7.367 27.082 2.255 55.366-5.613 85.49-6.994 26.813-16.446 53.922-17.204 81.592a126.67 126.67 0 0 0 4.827 38.311c10.082 35.296 34.464 62.494 58.838 82.084 16.97 13.569 34.84 25.087 53.52 34.791 13.9 7.229 28.14 13.649 44.53 19.746 16.28 6.076 35.47 11.997 56.99 12.941"/>
        </g>
        <mask id="g" width="947" height="874" x="216" y="0" maskUnits="userSpaceOnUse" style="mask-type:luminance">
            <path fill="#fff" d="M216.533.008h946.397v873.984H216.533V.008Z"/>
        </mask>
        <g mask="url(#g)">
            <path stroke="#fff" stroke-miterlimit="10" stroke-width=".375"
                  d="M230.914-155.805c-12.113 18.134-3.663 41.022 6.602 59.13 12.086 21.168 27.151 41.837 44.62 60.43 32.439 34.54 71.98 62.5 113.729 85.024 41.749 22.524 86.064 39.99 131.097 55.649 26.183 9.091 52.718 17.669 78.048 26.732-20.997 2.462-44.024 13.413-69.212 29.457-25.492 16.239-52.812 36.483-75.366 60.518a254.047 254.047 0 0 0-16.026 18.794c-21.396 27.697-36.746 59.44-45.737 92.113-9.947 36.139-11.694 73.439-4.077 109.207 6.48 30.455 19.934 60.39 42.318 84.566 24.693 26.692 58.906 44.86 94.514 52.514a203.557 203.557 0 0 0 21.274 3.392c29.061 3.068 58.189.135 86.999-4.734 23.271-3.952 46.454-9.185 69.462-14.216 51.512-11.242 104.419-21.256 154.571-13.582a178.893 178.893 0 0 1 40.341 11.04c30.753 12.577 56.8 33.462 68.92 61.307a83.781 83.781 0 0 1 2.756 7.195c8.842 26.301 5.626 54.53-1.314 85.045-6.175 27.164-15.634 54.685-17.157 82.577a139.12 139.12 0 0 0 3.25 38.54c8.091 35.573 29.44 63.114 50.794 83.379a304.576 304.576 0 0 0 47.21 36.49c12.35 7.762 25.02 14.857 40.34 21.884 15.21 7.02 34.04 14.195 55.77 15.504"/>
        </g>
        <mask id="h" width="939" height="874" x="209" y="0" maskUnits="userSpaceOnUse" style="mask-type:luminance">
            <path fill="#fff" d="M209.6.008h937.73v873.984H209.6V.008Z"/>
        </mask>
        <g mask="url(#h)">
            <path stroke="#fff" stroke-miterlimit="10" stroke-width=".375"
                  d="M224.211-153.891c-12.431 18.262-4.827 41.339 4.896 59.905 11.449 21.694 26.25 42.97 43.746 61.954 32.493 35.29 72.834 63.37 115.328 85.74 42.493 22.375 87.567 39.484 133.182 55.318 26.515 9.205 53.361 18.094 78.67 27.899-18.802 3.513-39.954 15.639-64.214 32.565-24.551 17.129-51.804 37.738-74.466 61.84a269.042 269.042 0 0 0-16.148 18.815c-21.626 27.67-37.49 59.19-47.308 91.593-10.861 35.85-13.826 72.832-7.543 108.688 5.403 30.792 17.875 61.503 40.158 86.273 24.585 27.332 59.516 45.58 95.624 52.816a201.454 201.454 0 0 0 21.559 3.103c29.412 2.636 58.804-.891 87.811-6.34 23.434-4.417 46.766-10.115 69.909-15.631 51.824-12.341 104.941-23.576 155.6-17.602 14.05 1.626 27.876 4.836 40.903 9.496 31.308 11.194 58.236 30.656 71.872 57.517a89.762 89.762 0 0 1 3.149 6.966c10.257 25.552 8.998 53.707 2.979 84.613-5.349 27.508-14.822 55.44-17.11 83.555-1.124 13.885-.352 26.84 1.672 38.763 6.101 35.856 24.368 63.782 42.76 84.674 12.77 14.512 26.4 27.089 40.89 38.196 10.79 8.288 21.89 16.057 36.15 24.028 14.15 7.964 32.61 16.38 54.56 18.059"/>
        </g>
        <mask id="i" width="928" height="874" x="202" y="0" maskUnits="userSpaceOnUse" style="mask-type:luminance">
            <path fill="#fff" d="M202.667.008H1130v873.984H202.667V.008Z"/>
        </mask>
        <g mask="url(#i)">
            <path stroke="#fff" stroke-miterlimit="10" stroke-width=".375"
                  d="M217.495-151.975c-12.75 18.384-5.986 41.65 3.202 60.687 10.82 22.214 25.357 44.097 42.88 63.478 32.534 36.032 73.68 64.241 116.919 86.455 43.238 22.227 89.07 38.965 135.274 54.995 26.847 9.313 53.991 18.518 79.294 29.058-16.609 4.573-35.892 17.871-59.218 35.681-23.603 18.026-50.795 38.992-73.558 63.162a286.803 286.803 0 0 0-16.264 18.835c-21.863 27.636-38.255 58.94-48.892 91.074-11.768 35.559-15.979 72.232-11.01 108.162 4.307 31.136 15.817 62.622 37.998 87.972 24.477 27.979 60.119 46.309 96.735 53.127a199.783 199.783 0 0 0 21.843 2.819c29.758 2.198 59.414-1.922 88.623-7.951 23.597-4.883 47.065-11.046 70.356-17.048 52.136-13.427 105.456-25.896 156.623-21.621 14.199 1.153 28.201 3.837 41.465 7.951 31.829 9.866 59.671 27.845 74.817 53.741a89.873 89.873 0 0 1 3.542 6.73c11.72 24.783 12.37 52.877 7.271 84.175-4.522 27.865-14.002 56.209-17.055 84.546a176.82 176.82 0 0 0 .095 38.978c4.096 36.147 19.324 64.416 34.705 85.976 10.68 14.971 22.18 28.087 34.59 39.902 9.23 8.814 18.77 17.244 31.96 26.159 13.09 8.909 31.17 18.582 53.34 20.622"/>
        </g>
        <mask id="j" width="920" height="874" x="195" y="0" maskUnits="userSpaceOnUse" style="mask-type:luminance">
            <path fill="#fff" d="M195.733.008H1114.4v873.984H195.733V.008Z"/>
        </mask>
        <g mask="url(#j)">
            <path stroke="#fff" stroke-miterlimit="10" stroke-width=".375"
                  d="M210.785-150.066c-13.074 18.518-7.143 41.979 1.503 61.475 10.184 22.733 24.456 45.223 42 65.003 32.588 36.773 74.547 65.117 118.516 87.176 43.984 22.072 90.574 38.452 137.353 54.671 27.192 9.421 54.634 18.936 79.923 30.219-14.415 5.631-31.829 20.096-54.22 38.789-22.662 18.923-49.793 40.254-72.658 64.49a305.413 305.413 0 0 0-16.392 18.849c-22.087 27.609-39 58.684-50.457 90.561-12.688 35.263-18.146 71.632-14.476 107.637 3.203 31.486 13.745 63.734 35.832 89.671 24.375 28.633 60.734 47.037 97.852 53.437a197.709 197.709 0 0 0 22.127 2.522c30.103 1.767 60.023-2.954 89.429-9.556 23.765-5.348 47.369-11.977 70.802-18.471 52.454-14.519 105.978-28.216 157.659-25.633 14.348.681 28.519 2.839 42.02 6.4 32.365 8.544 61.107 25.039 77.77 49.971a87.678 87.678 0 0 1 3.934 6.501c13.196 24.007 15.749 52.048 11.571 83.736-3.704 28.209-13.196 56.965-17.008 85.531a205.68 205.68 0 0 0-1.49 39.201c2.099 36.443 14.287 65.036 26.671 87.27 8.594 15.43 17.964 29.086 28.284 41.609 7.66 9.333 15.64 18.444 27.76 28.297 12.03 9.846 29.75 20.77 52.13 23.18"/>
        </g>
        <mask id="k" width="911" height="874" x="188" y="0" maskUnits="userSpaceOnUse" style="mask-type:luminance">
            <path fill="#fff" d="M188.8.008h910v873.984h-910V.008Z"/>
        </mask>
        <g mask="url(#k)">
            <path stroke="#fff" stroke-miterlimit="10" stroke-width=".375"
                  d="M204.075-148.152c-13.4 18.639-8.308 42.289-.203 62.258 9.553 23.259 23.569 46.35 41.126 66.52 32.649 37.528 75.4 65.993 120.114 87.904 44.728 21.91 92.077 37.933 139.446 54.334 27.523 9.535 55.277 19.361 80.545 31.385-12.228 6.683-27.774 22.322-49.224 41.899-21.72 19.813-48.777 41.507-71.75 65.818a328.079 328.079 0 0 0-16.514 18.856c-22.324 27.588-39.758 58.441-52.041 90.048-13.596 34.967-20.305 71.039-17.942 107.111 2.092 31.843 11.686 64.854 33.671 91.37 24.26 29.281 61.344 47.773 98.969 53.748a196.032 196.032 0 0 0 22.405 2.238c30.448 1.329 60.639-3.978 90.242-11.16 23.928-5.82 47.68-12.908 71.256-19.888 52.758-15.611 106.485-30.535 158.674-29.652 14.497.209 28.851 1.841 42.582 4.856 32.886 7.216 62.542 22.227 80.715 46.181a89.805 89.805 0 0 1 4.334 6.271c14.672 23.239 19.114 51.219 15.864 83.292-2.878 28.566-12.371 57.726-16.961 86.515a246.674 246.674 0 0 0-3.068 39.424c.095 36.739 9.256 65.656 18.634 88.572 6.491 15.874 13.741 30.076 21.961 43.308 6.11 9.866 12.52 19.637 23.58 30.441 10.97 10.783 28.32 22.953 50.92 25.733"/>
        </g>
        <mask id="l" width="904" height="874" x="180" y="0" maskUnits="userSpaceOnUse" style="mask-type:luminance">
            <path fill="#fff" d="M180.133.008H1083.2v873.984H180.133V.008Z"/>
        </mask>
        <g mask="url(#l)">
            <path stroke="#fff" stroke-miterlimit="10" stroke-width=".375"
                  d="M197.365-146.236c-13.725 18.761-9.472 42.606-1.903 63.033 8.918 23.778 22.669 47.483 40.26 68.044 32.696 38.27 76.246 66.87 121.712 88.626 45.466 21.762 93.573 37.421 141.517 54.01 27.876 9.644 55.921 19.78 81.183 32.545-10.035 7.735-23.712 24.547-44.234 45.015-20.773 20.71-47.762 42.762-70.843 67.147a346.465 346.465 0 0 0-16.629 18.875c-22.554 27.555-40.504 58.185-53.612 89.53-14.503 34.676-22.493 70.451-21.409 106.584.968 32.201 9.621 65.974 31.511 93.077 24.152 29.928 61.946 48.494 100.08 54.051a196.132 196.132 0 0 0 22.689 1.955c30.794.897 61.256-5.01 91.047-12.766 24.098-6.291 47.985-13.844 71.703-21.31 53.077-16.704 107.007-32.855 159.704-33.664 14.652-.27 29.176.836 43.144 3.304 33.414 5.894 63.984 19.422 83.674 42.411a89.158 89.158 0 0 1 4.719 6.036c16.149 22.47 22.492 50.396 20.162 82.853-2.05 28.917-11.549 58.488-16.912 87.5a304.705 304.705 0 0 0-4.645 39.646c-1.923 37.036 4.219 66.277 10.59 89.873 4.408 16.327 9.527 31.082 15.657 45.015 4.55 10.392 9.39 20.838 19.38 32.572 9.91 11.724 26.88 25.154 49.7 28.304"/>
        </g>
        <mask id="m" width="895" height="874" x="173" y="0" maskUnits="userSpaceOnUse" style="mask-type:luminance">
            <path fill="#fff" d="M173.2.008h894.4v873.984H173.2V.008Z"/>
        </mask>
        <g mask="url(#m)">
            <path stroke="#fff" stroke-miterlimit="10" stroke-width=".375"
                  d="M190.655-144.328c-14.036 18.902-10.63 42.93-3.602 63.822 8.288 24.298 21.775 48.609 39.386 69.568 32.751 39.013 77.1 67.74 123.311 89.341 46.217 21.607 95.076 36.908 143.602 53.687 28.207 9.758 56.564 20.197 81.805 33.711-7.833 8.794-19.642 26.773-39.237 48.117-19.825 21.607-46.752 44.023-69.942 68.475a375.358 375.358 0 0 0-16.751 18.89c-22.791 27.527-41.262 57.935-55.189 89.01-15.411 34.386-24.687 69.865-24.87 106.065-.169 32.558 7.557 67.086 29.338 94.776 24.05 30.569 62.563 49.222 101.204 54.354 7.644 1.018 15.309 1.551 22.973 1.666 31.133.458 61.859-6.043 91.854-14.371 24.259-6.757 48.289-14.775 72.149-22.733 53.389-17.79 107.521-35.175 160.733-37.677 14.801-.742 29.501-.155 43.699 1.753 33.942 4.572 65.42 16.617 86.626 38.635a97.317 97.317 0 0 1 5.119 5.8c17.617 21.701 25.857 49.566 24.457 82.421-1.23 29.261-10.732 59.244-16.867 88.478-2.993 14.256-4.936 27.656-6.229 39.875-3.934 37.333-.813 66.891 2.546 91.168 2.329 16.779 5.308 32.073 9.35 46.721 2.986 10.918 6.26 22.031 15.19 34.706 8.85 12.67 25.46 27.34 48.49 30.86"/>
        </g>
        <mask id="n" width="886" height="874" x="166" y="0" maskUnits="userSpaceOnUse" style="mask-type:luminance">
            <path fill="#fff" d="M166.267.008H1052v873.984H166.267V.008Z"/>
        </mask>
        <g mask="url(#n)">
            <path stroke="#fff" stroke-miterlimit="10" stroke-width=".375"
                  d="M183.939-142.412c-14.355 19.024-11.788 43.24-5.295 64.605 7.644 24.816 20.874 49.734 38.506 71.085 32.804 39.76 77.959 68.61 124.908 90.062 46.956 21.452 96.579 36.389 145.688 53.356 28.546 9.86 57.2 20.623 82.435 34.872-5.64 9.846-15.587 28.998-34.24 51.225-18.884 22.504-45.744 45.278-69.036 69.798a405.582 405.582 0 0 0-16.873 18.909c-23.02 27.501-42.013 57.686-56.766 88.498-16.332 34.082-26.894 69.271-28.343 105.539-1.307 32.916 5.498 68.206 27.185 96.475 23.942 31.224 63.165 49.958 102.314 54.671a194.856 194.856 0 0 0 23.258 1.369c31.484.034 62.474-7.067 92.665-15.975 24.423-7.223 48.595-15.707 72.597-24.156 53.7-18.883 108.042-37.489 161.755-41.697 14.95-1.214 29.819-1.153 44.255.209 34.47 3.258 66.855 13.805 89.578 34.852a95.467 95.467 0 0 1 5.511 5.563c19.099 20.933 29.239 48.744 28.759 81.99-.41 29.612-9.91 59.999-16.822 89.462-3.358 14.324-5.85 27.818-7.8 40.092-5.972 37.63-5.843 67.511-5.498 92.469.237 17.231 1.09 33.078 3.04 48.427 1.429 11.444 3.135 23.232 11.003 36.852 7.787 13.61 24.017 29.53 47.277 33.42"/>
        </g>
        <mask id="o" width="880" height="874" x="157" y="0" maskUnits="userSpaceOnUse" style="mask-type:luminance">
            <path fill="#fff" d="M157.6.008h878.8v873.984H157.6V.008Z"/>
        </mask>
        <g mask="url(#o)">
            <path stroke="#fff" stroke-miterlimit="10" stroke-width=".375"
                  d="M177.236-140.498c-14.68 19.145-12.953 43.558-7.002 65.387 7.022 25.343 19.981 50.861 37.64 72.61 32.852 40.509 78.812 69.487 126.506 90.783 47.7 21.297 98.082 35.877 147.773 53.033 28.885 9.974 57.837 21.047 83.058 36.038-3.46 10.905-11.524 31.223-29.243 54.341-17.936 23.387-44.742 46.525-68.128 71.119a440.364 440.364 0 0 0-16.995 18.923c-23.258 27.467-42.771 57.436-58.344 87.978-17.239 33.793-29.115 68.685-31.81 105.013-2.464 33.274 3.433 69.319 25.018 98.175 23.841 31.871 63.782 50.679 103.432 54.975 7.847.85 15.695 1.193 23.528 1.086 31.83-.405 63.098-8.1 93.479-17.588 24.584-7.695 48.905-16.637 73.043-25.572 54.011-19.975 108.557-39.808 162.785-45.716 15.099-1.679 30.15-2.144 44.816-1.335 34.998 1.942 68.297 10.999 92.523 31.075a91.828 91.828 0 0 1 5.905 5.341c20.58 20.15 32.61 47.914 33.05 81.545.42 29.962-9.08 60.761-16.77 90.446-3.727 14.405-6.781 27.987-9.381 40.321-8.003 37.927-10.867 68.125-13.535 93.765-1.848 17.682-3.128 34.069-3.277 50.126-.122 11.976.02 24.432 6.812 38.989 6.73 14.56 22.591 31.73 46.061 35.98"/>
        </g>
        <mask id="p" width="882" height="874" x="150" y="0" maskUnits="userSpaceOnUse" style="mask-type:luminance">
            <path fill="#fff" d="M150.667.008H1031.2v873.984H150.667V.008Z"/>
        </mask>
        <g mask="url(#p)">
            <path stroke="#fff" stroke-miterlimit="10" stroke-width=".375"
                  d="M170.518-138.59c-14.997 19.28-14.103 43.882-8.693 66.17 6.378 25.861 19.087 51.993 36.759 74.133 32.906 41.258 79.672 70.364 128.104 91.505 48.445 21.142 99.585 35.364 149.859 52.702 29.223 10.082 58.479 21.472 83.687 37.199-1.259 11.963-7.455 33.448-24.246 57.449-16.995 24.298-43.726 47.786-67.228 72.455a482.112 482.112 0 0 0-17.11 18.936c-23.488 27.44-43.523 57.187-59.922 87.466-18.152 33.503-31.349 68.098-35.269 104.48-3.629 33.631 1.368 70.438 22.852 99.881 23.725 32.512 64.384 51.408 104.548 55.285a193.91 193.91 0 0 0 23.813.796c32.168-.836 63.7-9.124 94.284-19.193 24.747-8.16 49.21-17.567 73.491-26.995 54.322-21.067 109.078-42.128 163.813-49.728 15.255-2.158 30.469-3.142 45.378-2.879 35.527.613 69.726 8.186 95.476 27.291a98.827 98.827 0 0 1 6.303 5.105c22.063 19.389 35.983 47.085 37.353 81.107 1.23 30.313-8.26 61.523-16.73 91.438-4.1 14.479-7.704 28.141-10.961 40.543-10.034 38.217-15.884 68.739-21.571 95.059-3.921 18.128-7.347 35.068-9.588 51.826-1.686 12.503-3.108 25.626 2.62 41.119 5.661 15.5 21.152 33.92 44.84 38.54"/>
        </g>
        <mask id="q" width="897" height="874" x="142" y="0" maskUnits="userSpaceOnUse" style="mask-type:luminance">
            <path fill="#fff" d="M142 .008h896.13v873.984H142V.008Z"/>
        </mask>
        <g mask="url(#q)">
            <path stroke="#fff" stroke-miterlimit="10" stroke-width=".375"
                  d="M163.816-136.674c-15.323 19.402-15.275 44.198-10.4 66.952 5.748 26.388 18.186 53.12 35.885 75.657 32.961 42 80.526 71.234 129.709 92.22 49.19 20.994 101.082 34.852 151.938 52.379 29.561 10.19 59.116 21.883 84.317 38.358.934 13.015-3.399 35.681-19.256 60.559-16.047 25.187-42.718 49.04-66.321 73.776a520.658 520.658 0 0 0-17.232 18.956c-23.725 27.407-44.274 56.931-61.499 86.94-19.06 33.206-33.583 67.505-38.736 103.961-4.8 33.982-.697 71.551 20.692 101.581 23.623 33.165 65 52.142 105.665 55.588 8.044.681 16.088.836 24.098.519 32.513-1.274 64.316-10.156 95.089-20.804 24.917-8.632 49.516-18.505 73.945-28.411 54.634-22.16 109.592-44.448 164.836-53.748 15.397-2.63 30.8-4.133 45.933-4.423 36.055-.702 71.168 5.374 98.428 23.508a106.504 106.504 0 0 1 6.696 4.876c23.537 18.606 39.347 46.255 41.637 80.668 2.06 30.664-7.42 62.285-16.67 92.416-4.46 14.553-8.63 28.296-12.54 40.759-12.075 38.506-20.897 69.359-29.611 96.361-5.999 18.578-11.565 36.072-15.898 53.531-3.244 13.029-6.236 26.825-1.571 43.265 4.611 16.44 19.73 36.12 43.631 41.1"/>
        </g>
        <mask id="r" width="909" height="874" x="135" y="0" maskUnits="userSpaceOnUse" style="mask-type:luminance">
            <path fill="#fff" d="M135.066.008h908.264v873.984H135.066V.008Z"/>
        </mask>
        <g mask="url(#r)">
            <path stroke="#fff" stroke-miterlimit="10" stroke-width=".375"
                  d="M157.099-134.758c-15.641 19.53-16.426 44.515-12.093 67.734 5.112 26.9 17.293 54.246 35.019 77.182 33.008 42.748 81.372 72.11 131.3 92.941 49.928 20.839 102.585 34.333 154.023 52.048 29.893 10.305 59.759 22.315 84.94 39.525 3.121 14.074.663 37.907-14.259 63.674-15.106 26.078-41.709 50.288-65.42 75.098a582.439 582.439 0 0 0-17.354 18.97c-23.948 27.373-45.033 56.681-63.077 86.428-19.974 32.916-35.838 66.904-42.203 103.435-5.985 34.332-2.762 72.67 18.532 103.279 23.508 33.813 65.596 52.864 106.769 55.899 8.153.6 16.284.654 24.382.229 32.859-1.706 64.933-11.188 95.902-22.402 25.079-9.104 49.82-19.436 74.391-29.841 54.946-23.246 110.115-46.768 165.866-57.76 15.545-3.102 31.118-5.125 46.495-5.975 36.576-2.016 72.604 2.569 101.373 19.732a105.463 105.463 0 0 1 7.089 4.64c25.026 17.83 42.726 45.425 45.936 80.23 2.89 31.021-6.59 63.053-16.62 93.4-4.83 14.634-9.56 28.465-14.12 40.988-14.126 38.797-25.914 69.98-37.655 97.656-8.071 19.037-15.783 37.07-22.202 55.238-4.807 13.554-9.357 28.02-5.762 45.41 3.548 17.37 18.295 38.3 42.413 43.65"/>
        </g>
        <mask id="s" width="923" height="874" x="126" y="0" maskUnits="userSpaceOnUse" style="mask-type:luminance">
            <path fill="#fff" d="M126.4.008h922.13v873.984H126.4V.008Z"/>
        </mask>
        <g mask="url(#s)">
            <path stroke="#fff" stroke-miterlimit="10" stroke-width=".375"
                  d="M150.389-132.85c-15.966 19.658-17.591 44.833-13.799 68.516 4.482 27.427 16.392 55.38 34.145 78.706 33.069 43.49 82.225 72.98 132.898 93.664 50.673 20.683 104.088 33.813 156.108 51.724 30.239 10.405 60.396 22.733 85.57 40.685 5.315 15.126 4.726 40.125-9.262 66.783-14.158 26.974-40.7 51.548-64.513 76.426a661.779 661.779 0 0 0-17.475 18.984c-24.186 27.345-45.785 56.431-64.655 85.908-20.881 32.619-38.093 66.304-45.669 102.915-7.177 34.677-4.821 73.783 16.365 104.98 23.4 34.453 66.212 53.592 107.893 56.202 8.254.519 16.474.472 24.66-.061 33.21-2.145 65.541-12.22 96.707-24.014 25.249-9.57 50.132-20.366 74.845-31.257 55.257-24.345 110.629-49.088 166.888-61.779 15.701-3.575 31.443-6.124 47.057-7.52 37.104-3.331 74.032-.236 104.325 15.956a111.54 111.54 0 0 1 7.482 4.403c26.501 17.055 46.091 44.603 50.241 79.799 3.7 31.365-5.77 63.809-16.58 94.378-5.2 14.715-10.49 28.627-15.7 41.211-16.174 39.073-30.934 70.606-45.701 98.95-10.15 19.496-20.001 38.068-28.512 56.944-6.365 14.081-12.486 29.217-9.954 47.537 2.479 18.32 16.853 40.5 41.194 46.21"/>
        </g>
        <mask id="t" width="937" height="874" x="119" y="0" maskUnits="userSpaceOnUse" style="mask-type:luminance">
            <path fill="#fff" d="M119.467.008h936.003v873.984H119.467V.008Z"/>
        </mask>
        <g mask="url(#t)">
            <path stroke="#fff" stroke-miterlimit="10" stroke-width=".375"
                  d="M143.679-130.936c-16.283 19.78-18.748 45.15-15.491 69.306 3.846 27.939 15.498 56.498 33.272 80.223 33.109 44.232 83.078 73.85 134.489 94.385 51.418 20.527 105.591 33.293 158.187 51.393 30.577 10.514 61.046 23.152 86.199 41.852 7.509 16.178 8.796 42.357-4.265 69.892-13.21 27.871-39.691 52.81-63.599 77.748a740.636 740.636 0 0 0-17.597 19.004c-24.416 27.318-46.536 56.181-66.233 85.395-21.795 32.33-40.36 65.704-49.135 102.383-8.376 35.027-6.886 74.903 14.205 106.686 23.298 35.107 66.821 54.327 109.003 56.519 8.349.431 16.67.29 24.944-.351 33.556-2.576 66.158-13.245 97.52-25.613 25.411-10.041 50.436-21.296 75.292-32.68 55.568-25.43 111.143-51.407 167.917-65.791 15.85-4.053 31.769-7.088 47.612-9.07 37.639-4.573 75.475-3.042 107.277 12.172a108.296 108.296 0 0 1 7.875 4.181c28.019 16.219 49.479 43.773 54.539 79.36 4.53 31.716-4.94 64.571-16.53 95.363-5.56 14.789-11.42 28.782-17.27 41.433-18.227 39.356-35.906 71.261-53.747 100.252-12.187 19.975-24.219 39.066-34.822 58.65-7.922 14.607-15.607 30.414-14.145 49.684 1.422 19.26 15.424 42.68 39.982 48.77"/>
        </g>
        <mask id="u" width="951" height="874" x="110" y="0" maskUnits="userSpaceOnUse" style="mask-type:luminance">
            <path fill="#fff" d="M110.8.008h949.87v873.984H110.8V.008Z"/>
        </mask>
        <g mask="url(#u)">
            <path stroke="#fff" stroke-miterlimit="10" stroke-width=".375"
                  d="M136.963-129.02c-16.603 19.908-19.907 45.467-17.192 70.081 3.217 28.472 14.598 57.632 32.399 81.747 33.17 44.988 83.938 74.734 136.094 95.107 52.162 20.373 107.094 32.781 160.279 51.07 30.909 10.628 61.682 23.576 86.829 43.011 9.703 17.237 12.851 44.583.724 73.001-12.268 28.769-38.675 54.064-62.704 79.077a854.02 854.02 0 0 0-17.713 19.024c-24.652 27.285-47.287 55.925-67.81 84.869-22.702 32.033-42.629 65.09-52.596 101.864-9.594 35.357-8.951 76.015 12.039 108.385 23.183 35.755 67.424 55.049 110.114 56.822 8.457.351 16.873.115 25.228-.634 33.902-3.014 66.774-14.276 98.333-27.224 25.58-10.507 50.741-22.234 75.739-34.103 55.879-26.523 111.657-53.72 168.945-69.804 15.993-4.525 32.101-8.079 48.168-10.615 38.174-5.887 76.917-5.853 110.229 8.396a109.315 109.315 0 0 1 8.268 3.945c29.494 15.443 52.844 42.944 58.834 78.915 5.35 32.066-4.11 65.333-16.48 96.354-5.93 14.863-12.35 28.938-18.85 41.656-20.282 39.633-40.933 71.888-61.787 101.547-14.273 20.433-28.437 40.064-41.126 60.349-9.493 15.14-18.735 31.61-18.335 51.82.359 20.2 13.995 44.88 38.77 51.33"/>
        </g>
        <mask id="v" width="963" height="874" x="103" y="0" maskUnits="userSpaceOnUse" style="mask-type:luminance">
            <path fill="#fff" d="M103.867.008h962.003v873.984H103.867V.008Z"/>
        </mask>
        <g mask="url(#v)">
            <path stroke="#fff" stroke-miterlimit="10" stroke-width=".375"
                  d="M130.26-127.111c-16.928 20.042-21.071 45.79-18.898 70.87 2.58 28.984 13.711 58.757 31.525 83.27 33.218 45.73 84.791 75.604 137.692 95.822 52.9 20.218 108.591 32.269 162.358 50.746 31.254 10.736 62.325 24.001 87.452 44.178 11.896 18.289 16.913 46.808 5.721 76.11-11.321 29.659-37.666 55.318-61.797 80.405a1010.348 1010.348 0 0 0-17.835 19.037c-24.882 27.259-48.045 55.677-69.38 84.358-23.617 31.742-44.911 64.476-56.07 101.337-10.799 35.688-11.009 77.135 9.886 110.084 23.075 36.403 68.026 55.778 111.231 57.133 8.558.27 17.063-.067 25.513-.924 34.24-3.439 67.383-15.301 99.131-28.829 25.736-10.979 51.052-23.165 76.186-35.519 56.191-27.616 112.179-56.04 169.975-73.824 16.142-4.997 32.419-9.07 48.73-12.158 38.702-7.209 78.345-8.666 113.174 4.612a118.301 118.301 0 0 1 8.667 3.716c30.959 14.668 56.219 42.121 63.129 78.477 6.16 32.423-3.27 66.108-16.43 97.338-6.3 14.937-13.29 29.093-20.44 41.879-22.339 39.902-45.956 72.521-69.823 102.848-16.365 20.885-32.662 41.055-47.443 62.049-11.043 15.666-21.863 32.806-22.527 53.956-.704 21.14 12.56 47.07 37.551 53.89"/>
        </g>
        <mask id="w" width="978" height="874" x="95" y="0" maskUnits="userSpaceOnUse" style="mask-type:luminance">
            <path fill="#fff" d="M95.2.008h977.6v873.984H95.2V.008Z"/>
        </mask>
        <g mask="url(#w)">
            <path stroke="#fff" stroke-miterlimit="10" stroke-width=".375"
                  d="M123.543-125.195c-17.245 20.163-22.229 46.1-20.59 71.645 1.943 29.51 12.81 59.89 30.651 84.795 33.272 46.478 85.645 76.474 139.29 96.543 53.645 20.069 110.087 31.756 164.437 50.416 31.585 10.844 62.961 24.426 88.081 45.338 14.09 19.348 20.97 49.034 10.718 79.225-10.379 30.556-36.657 56.573-60.89 81.734a1225.655 1225.655 0 0 0-17.956 19.044c-25.12 27.231-48.797 55.427-70.965 83.838-24.531 31.446-47.193 63.856-59.529 100.818-12.025 36.012-13.075 78.248 7.719 111.784 22.966 37.057 68.636 56.512 112.341 57.443 8.66.182 17.259-.256 25.797-1.207 34.586-3.885 67.986-16.334 99.938-30.441 25.905-11.444 51.356-24.096 76.639-36.942 56.502-28.702 112.693-58.354 170.997-77.836 16.297-5.469 32.744-10.069 49.292-13.71 39.23-8.524 79.781-11.464 116.126.843a119.534 119.534 0 0 1 9.06 3.48c32.441 13.898 59.581 41.291 67.421 78.044 7 32.768-2.43 66.871-16.38 98.317a373.953 373.953 0 0 1-22.01 42.101c-24.393 40.172-50.982 73.149-77.862 104.15-18.444 21.344-36.874 42.06-53.754 63.755-12.601 16.198-24.985 34.008-26.718 56.098-1.76 22.08 11.125 49.27 36.332 56.45"/>
        </g>
        <mask id="x" width="992" height="874" x="86" y="0" maskUnits="userSpaceOnUse" style="mask-type:luminance">
            <path fill="#fff" d="M86.533.008H1078v873.984H86.533V.008Z"/>
        </mask>
        <g mask="url(#x)">
            <path stroke="#fff" stroke-miterlimit="10" stroke-width=".375"
                  d="M116.833-123.281c-17.564 20.292-23.394 46.417-22.297 72.427 1.314 30.03 11.917 61.017 29.785 86.313 33.326 47.226 86.497 77.357 140.888 97.264 54.39 19.915 111.59 31.244 166.521 50.093 31.932 10.951 63.612 24.843 88.712 46.504 16.277 20.407 25.038 51.259 15.715 82.327-9.439 31.453-35.655 57.834-59.99 83.063a1600.762 1600.762 0 0 0-18.078 19.064c-25.35 27.204-49.549 55.177-72.536 83.325-25.438 31.156-49.481 63.223-62.995 100.293-13.251 36.328-15.14 79.367 5.552 113.483 22.865 37.697 69.252 57.241 113.459 57.753 8.754.101 17.455-.432 26.081-1.504 34.93-4.309 68.602-17.365 100.75-32.046 26.067-11.909 51.661-25.019 77.079-38.358 56.821-29.794 113.215-60.673 172.033-81.848 16.44-5.942 33.069-11.067 49.847-15.261 39.759-9.84 81.223-14.27 119.072-2.941a129.51 129.51 0 0 1 9.459 3.251c33.92 13.116 62.96 40.462 71.72 77.606 7.82 33.119-1.55 67.66-16.33 99.301-7.01 15.113-15.15 29.403-23.6 42.324-26.45 40.442-56.009 73.776-85.903 105.451-20.529 21.796-41.092 43.052-60.064 65.461-14.158 16.716-28.105 35.206-30.908 58.236-2.824 23.02 9.702 51.45 35.127 59"/>
        </g>
        <mask id="y" width="1008" height="874" x="77" y="0" maskUnits="userSpaceOnUse" style="mask-type:luminance">
            <path fill="#fff" d="M77.867.008H1084.93v873.984H77.867V.008Z"/>
        </mask>
        <g mask="url(#y)">
            <path stroke="#fff" stroke-miterlimit="10" stroke-width=".375"
                  d="M110.123-121.373c-17.889 20.42-24.551 46.74-23.996 73.216.677 30.55 11.023 62.137 28.905 87.837 33.38 47.968 87.357 78.227 142.485 97.986 55.142 19.753 113.1 30.725 168.607 49.762 32.27 11.066 64.249 25.269 89.342 47.665 18.47 21.458 29.101 53.484 20.712 85.442-8.491 32.343-34.647 59.089-59.083 84.384a1950.413 1950.413 0 0 0-18.2 19.085c-25.58 27.17-50.3 54.921-74.113 82.799-26.352 30.866-51.777 62.595-66.47 99.767-14.476 36.645-17.197 80.486 3.399 115.189 22.75 38.345 69.855 57.962 114.576 58.057 8.857.02 17.645-.614 26.359-1.788 35.276-4.747 69.219-18.396 101.563-33.651 26.237-12.381 51.966-25.963 77.526-39.781 57.132-30.893 113.736-62.999 173.056-85.874 16.595-6.413 33.4-12.058 50.408-16.799 40.294-11.161 82.652-17.082 122.031-6.716 3.311.869 6.595 1.874 9.845 3.014 35.395 12.341 66.335 39.633 76.015 77.168 8.64 33.469-.72 68.422-16.28 100.286-7.37 15.187-16.08 29.551-25.18 42.539-28.5 40.705-61.022 74.404-93.942 106.746-22.608 22.255-45.304 44.05-66.374 67.168-15.722 17.242-31.234 36.392-35.1 60.362-3.88 23.97 8.273 53.65 33.915 61.57"/>
        </g>
        <mask id="z" width="1022" height="874" x="69" y="0" maskUnits="userSpaceOnUse" style="mask-type:luminance">
            <path fill="#fff" d="M69.2.008h1020.93v873.984H69.2V.008Z"/>
        </mask>
        <g mask="url(#z)">
            <path stroke="#fff" stroke-miterlimit="10" stroke-width=".375"
                  d="M103.413-119.457C85.206-98.916 77.698-72.399 77.718-45.458c.047 31.068 10.122 63.27 28.031 89.36 33.434 48.717 88.21 79.097 144.09 98.708 55.873 19.604 114.597 30.212 170.693 49.432 32.608 11.174 64.885 25.693 89.964 48.831 20.665 22.51 33.157 55.709 25.702 88.551-7.543 33.233-33.631 60.336-58.175 85.706a3028.212 3028.212 0 0 0-18.315 19.098c-25.817 27.144-51.059 54.672-75.691 82.287-27.266 30.569-54.072 61.948-69.929 99.24-15.722 36.956-19.27 81.599 1.225 116.896 22.642 38.992 70.471 58.69 115.687 58.367 8.964-.061 17.841-.789 26.643-2.077 35.621-5.18 69.827-19.422 102.368-35.257 26.406-12.853 52.278-26.893 77.98-41.204 57.444-31.985 114.251-65.319 174.085-89.886 16.744-6.886 33.719-13.056 50.971-18.35 40.814-12.483 84.093-19.887 124.976-10.493 3.439.789 6.859 1.719 10.244 2.785 36.863 11.565 69.703 38.81 80.313 76.73 9.46 33.819.1 69.183-16.23 101.27-7.74 15.268-17.03 29.699-26.76 42.769-30.63 40.914-66.059 75.023-101.991 108.04-24.694 22.72-49.529 45.055-72.678 68.874-17.286 17.771-34.363 37.601-39.298 62.511-4.943 24.91 6.838 55.83 32.696 64.12"/>
        </g>
        <mask id="A" width="1034" height="874" x="62" y="0" maskUnits="userSpaceOnUse" style="mask-type:luminance">
            <path fill="#fff" d="M62.267.008H1095.33v873.984H62.267V.008Z"/>
        </mask>
        <g mask="url(#A)">
            <path stroke="#fff" stroke-miterlimit="10" stroke-width=".375"
                  d="M96.703-117.541C78.171-96.871 69.83-70.167 69.308-42.76c-.589 31.594 9.229 64.396 27.158 90.878 33.489 49.458 89.064 79.981 145.681 99.423 56.625 19.455 116.1 29.699 172.778 49.107 32.941 11.289 65.529 26.112 90.587 49.991 22.866 23.57 37.226 57.936 30.706 91.668-6.601 34.13-32.622 61.59-57.274 87.034a5908.669 5908.669 0 0 0-18.437 19.105c-26.048 27.116-51.811 54.422-77.269 81.774-28.18 30.273-56.374 61.3-73.403 98.714-16.954 37.253-21.328 82.712-.927 118.595 22.533 39.64 71.073 59.419 116.803 58.671 9.067-.149 18.038-.972 26.928-2.361 35.967-5.617 70.444-20.453 103.174-36.868 26.569-13.318 52.582-27.817 78.433-42.62 57.756-33.071 114.766-67.639 175.101-93.899 16.893-7.358 34.05-14.054 51.526-19.901 41.349-13.797 85.536-22.699 127.928-14.276 3.568.708 7.123 1.558 10.637 2.556 38.332 10.79 73.082 37.973 84.612 76.284 10.28 34.177.92 69.953-16.19 102.255-8.11 15.342-17.95 29.855-28.33 42.991-32.66 41.198-71.082 75.658-110.028 109.343-26.779 23.171-53.747 46.046-78.995 70.573-18.844 18.303-37.484 38.793-43.483 64.643-6.005 25.86 5.404 58.04 31.485 66.69"/>
        </g>
        <mask id="B" width="1050" height="874" x="53" y="0" maskUnits="userSpaceOnUse" style="mask-type:luminance">
            <path fill="#fff" d="M53.6.008h1048.67v873.984H53.6V.008Z"/>
        </mask>
        <g mask="url(#B)">
            <path stroke="#fff" stroke-miterlimit="10" stroke-width=".375"
                  d="M89.993-115.633C49.423-70.861 53.642 2.133 87.183 52.333c33.537 50.207 89.917 80.85 147.28 100.15 57.362 19.301 117.596 29.181 174.856 48.784 33.279 11.397 66.165 26.537 91.217 51.158 25.052 24.622 41.289 60.161 35.696 94.776-5.654 35.027-31.613 62.845-56.36 88.356-32.473 33.463-64.939 66.925-97.412 100.387-29.088 29.976-58.663 60.646-76.863 98.195-18.193 37.543-23.393 83.825-3.094 120.288 22.432 40.287 71.683 60.147 117.921 58.987 46.238-1.167 90.126-19.941 131.198-41.123 103.188-53.235 197.837-123.956 307.091-163.4 41.885-15.12 86.965-25.512 130.88-18.06 43.917 7.452 86.337 35.924 99.927 78.173 16.38 50.888-11.72 105.391-46.04 146.453C984.949 885.45 907.186 936.46 840.1 998.374c-20.4 18.826-40.605 39.986-47.673 66.776-7.062 26.79 3.974 60.23 30.272 69.24"/>
        </g>
    </g>
    <defs>
        <clipPath id="a">
            <path fill="#fff" d="M-222-806h1404v2486H-222z"/>
        </clipPath>
    </defs>
</svg>
