<svg width="89" height="83" viewBox="0 0 89 83" fill="none" xmlns="http://www.w3.org/2000/svg">
    <path d="M84.8156 57.7149C83.9814 57.2713 83.0642 57.0054 82.1221 56.9342C81.1799 56.8631 80.2332 56.988 79.3418 57.3013V30.9388H80.1966C82.2786 30.9388 83.9745 29.2429 83.9745 27.161V20.8461C83.9745 18.7641 82.2786 17.0682 80.1966 17.0682H66.5329C69.6489 14.4485 71.2483 12.2011 71.331 10.2432C71.4551 7.58216 68.6424 4.54883 67.7738 3.69398C66.9051 2.82535 63.9132 0.0401938 61.2245 0.136709C60.1077 0.19186 56.7435 0.357316 49.8633 11.2497C49.6841 11.236 49.5186 11.1946 49.3256 11.1946C49.1463 11.1946 48.9671 11.236 48.7879 11.2497C41.9353 0.371104 38.571 0.19186 37.4542 0.136709C34.7794 -0.0149577 31.7598 2.82535 30.905 3.69398C30.0363 4.56262 27.2374 7.58216 27.3477 10.2432C27.4304 12.1873 29.0436 14.4485 32.1459 17.0682H18.4959C16.4139 17.0682 14.718 18.7641 14.718 20.8461V27.161C14.718 29.2429 16.4139 30.9388 18.4959 30.9388H19.3507V48.5322C17.3791 49.0561 15.2971 49.8972 13.1186 51.1105V48.7803C13.1186 48.0124 12.8136 47.276 12.2706 46.7329C11.7276 46.1899 10.9911 45.8849 10.2232 45.8849H3.45332C2.68539 45.8849 1.94892 46.1899 1.40592 46.7329C0.862917 47.276 0.557861 48.0124 0.557861 48.7803V77.79C0.557861 79.3894 1.85392 80.6855 3.45332 80.6855H10.237C11.0049 80.6855 11.7413 80.3804 12.2843 79.8374C12.8274 79.2944 13.1324 78.558 13.1324 77.79V76.3837C15.3385 76.3561 20.9363 76.6732 28.9885 79.8306C34.1451 81.8437 39.5086 82.864 44.8445 82.864C47.8089 82.864 50.7733 82.5469 53.6826 81.9126C61.7071 80.1753 73.675 76.6043 85.2016 69.5587C85.9662 69.0823 86.6291 68.4594 87.152 67.7258C87.6749 66.9923 88.0477 66.1626 88.2488 65.2844C88.9657 62.2925 87.5594 59.1902 84.8156 57.7149ZM76.9289 58.1561L60.9763 63.8781C61.337 62.7774 61.4098 61.6026 61.1878 60.4658C60.9657 59.329 60.4562 58.268 59.7079 57.384C58.8472 56.3712 57.705 55.637 56.4263 55.2744V30.9388H76.9289V58.1561ZM49.3532 13.6075C51.5041 13.6075 53.3241 15.0828 53.8618 17.0682H44.8445C45.3685 15.0828 47.1885 13.6075 49.3532 13.6075ZM44.6791 19.4811H54.0135V28.526H44.6791V19.4811ZM44.6791 30.9388H54.0135V54.9987H44.6791V30.9388ZM81.5616 20.8461V27.161C81.5616 27.9193 80.955 28.526 80.1966 28.526H56.4263V19.4811H80.1966C80.955 19.4811 81.5616 20.0878 81.5616 20.8461ZM61.3486 2.54959C62.4241 2.50822 64.3682 3.66641 66.0916 5.40368C67.8151 7.12716 68.9871 9.07125 68.932 10.1467C68.9044 10.8913 68.2012 13.0284 62.6447 17.082H56.2885C56.0939 15.9635 55.6327 14.9084 54.9439 14.006C54.2551 13.1035 53.3589 12.3804 52.3313 11.8978C56.0679 6.09307 59.3907 2.63231 61.3486 2.54959ZM29.7606 10.1329C29.7192 9.07125 30.8774 7.11338 32.6147 5.38989C34.3382 3.66641 36.2685 2.50822 37.3577 2.54959C39.3018 2.63231 42.6385 6.09307 46.375 11.884C44.3206 12.8491 42.8177 14.7656 42.4179 17.0682H36.0616C30.4913 13.0146 29.802 10.8775 29.7606 10.1329ZM17.1309 27.161V20.8461C17.1309 20.0878 17.7376 19.4811 18.4959 19.4811H42.2662V28.526H18.4959C17.7513 28.526 17.1309 27.9193 17.1309 27.161ZM21.7774 30.9388H42.28V54.7091C40.7278 54.3528 39.2761 53.6506 38.0333 52.6547C34.8207 50.0902 29.1677 46.9466 21.7912 48.0358V30.9388H21.7774ZM10.7195 77.7763C10.7195 78.0382 10.4989 78.2588 10.237 78.2588H3.45332C3.19135 78.2588 2.97074 78.0382 2.97074 77.7763V48.7803C2.97074 48.5184 3.19135 48.2978 3.45332 48.2978H10.237C10.4989 48.2978 10.7195 48.5184 10.7195 48.7803V77.7763ZM85.9186 64.7329C85.6429 65.8911 84.9397 66.8976 83.9607 67.5043C72.7236 74.3844 61.0177 77.859 53.1862 79.5687C45.5063 81.237 37.4404 80.5476 29.8847 77.597C21.8188 74.4396 16.0968 73.9846 13.4357 73.9846H13.1462V53.8543C24.1627 47.0155 32.5044 51.3173 36.5304 54.5299C38.3941 56.024 40.6297 56.9821 42.997 57.3013C43.1486 57.3702 43.3141 57.4116 43.4933 57.4116C43.5623 57.4116 43.6174 57.384 43.6863 57.3702C43.9759 57.3978 44.2654 57.4116 44.555 57.4116H54.5926C55.861 57.4116 57.0744 57.9631 57.9016 58.942C58.7427 59.921 59.0874 61.1894 58.8668 62.4855C58.6738 63.6988 57.9016 64.7329 56.84 65.381C56.771 65.4085 56.7021 65.4499 56.6332 65.505C55.9438 65.8773 55.1441 66.0841 54.303 66.0841H41.563C40.9012 66.0841 40.3497 66.6219 40.3497 67.2975C40.3497 67.9731 40.8874 68.5108 41.563 68.5108H54.303C55.5715 68.5108 56.7848 68.1799 57.8327 67.6008L80.1415 59.6038C81.3135 59.1902 82.6095 59.2867 83.7401 59.8934C85.4636 60.8034 86.3736 62.8026 85.9186 64.7329Z"
          fill="white"/>
</svg>
