<svg width="15" height="15" viewBox="0 0 15 15" fill="none" xmlns="http://www.w3.org/2000/svg">
    <path d="M12.1524 2.84023C10.8683 1.56055 9.1561 0.849609 7.34878 0.849609C3.59146 0.849609 0.54756 3.88294 0.54756 7.62721C0.54756 8.81211 0.880488 9.997 1.45122 10.9923L0.5 14.4996L4.11463 13.5517C5.11342 14.073 6.20732 14.3574 7.34878 14.3574C11.1061 14.3574 14.15 11.3241 14.15 7.57982C14.1024 5.82617 13.4366 4.11992 12.1524 2.84023ZM10.6305 10.0444C10.4878 10.4236 9.82195 10.8027 9.48902 10.8501C9.20366 10.8975 8.82317 10.8975 8.44268 10.8027C8.20488 10.7079 7.87195 10.6132 7.49146 10.4236C5.77927 9.71263 4.68537 8.00638 4.59024 7.86419C4.49512 7.7694 3.87683 6.96367 3.87683 6.11055C3.87683 5.25742 4.30488 4.87825 4.44756 4.68867C4.59024 4.49909 4.78049 4.49909 4.92317 4.49909C5.01829 4.49909 5.16097 4.49909 5.2561 4.49909C5.35122 4.49909 5.4939 4.45169 5.63658 4.78346C5.77927 5.11523 6.11219 5.96836 6.15975 6.01576C6.20732 6.11055 6.20732 6.20534 6.15975 6.30013C6.11219 6.39492 6.06463 6.48971 5.96951 6.5845C5.87439 6.6793 5.77927 6.82148 5.73171 6.86888C5.63658 6.96367 5.54146 7.05846 5.63658 7.20065C5.73171 7.39023 6.06463 7.91159 6.5878 8.38555C7.25366 8.9543 7.77683 9.14388 7.96707 9.23867C8.15732 9.33346 8.25244 9.28607 8.34756 9.19128C8.44268 9.09648 8.77561 8.71732 8.87073 8.52773C8.96585 8.33815 9.10853 8.38555 9.25122 8.43294C9.3939 8.48034 10.25 8.9069 10.3927 9.00169C10.5829 9.09648 10.678 9.14388 10.7256 9.19128C10.7732 9.33346 10.7732 9.66523 10.6305 10.0444Z"
          fill="white"/>
</svg>
