<svg width="16" height="10" viewBox="0 0 16 10" fill="none" xmlns="http://www.w3.org/2000/svg">
    <path d="M8.63873 9.54922C3.75297 9.54922 0.966213 6.1333 0.850098 0.449219H3.29744C3.37783 4.62119 5.18208 6.38836 6.61118 6.75272V0.449219H8.91562V4.04732C10.3269 3.89246 11.8096 2.25282 12.3097 0.449219H14.6142C14.4257 1.38462 14.05 2.27029 13.5105 3.05084C12.9711 3.8314 12.2795 4.49003 11.4791 4.98555C12.3726 5.43833 13.1617 6.07919 13.7945 6.86585C14.4273 7.65251 14.8893 8.56709 15.1501 9.54922H12.6134C12.3794 8.69616 11.9036 7.93254 11.2458 7.35405C10.588 6.77557 9.77741 6.40795 8.91562 6.29727V9.54922H8.63873V9.54922Z"
          fill="white"/>
</svg>
