<svg width="696" height="143" viewBox="0 0 696 143" fill="none" xmlns="http://www.w3.org/2000/svg">
    <path d="M4.93069 136.111H20.436L12.4853 118.304L4.93069 136.111ZM2.50403 142.276H3.05176e-05V136.111H2.06403L12.0307 113.077H12.912L23.44 136.111H25.4173V142.276H22.9133V138.476H2.50403"
          fill="white"/>
    <path d="M70.2226 138.477H67.5813V119.003L50.832 138.477H50.2613V113.077H52.8V132.888L69.6533 113.077H70.2226"
          fill="white"/>
    <path d="M98.136 115.547C99.92 113.473 102.125 112.437 104.751 112.437C106.835 112.437 108.557 113.04 109.916 114.24C111.275 115.441 111.955 116.997 111.955 118.904C111.955 121.607 110.683 123.541 108.137 124.716C111.488 125.752 113.163 127.997 113.163 131.449C113.163 133.752 112.415 135.604 110.917 137.011C109.42 138.413 107.371 139.116 104.769 139.116C102.949 139.116 101.369 138.74 100.028 137.985C98.6867 137.231 97.4227 135.911 96.236 134.023L98.2054 132.864C99.38 134.592 100.479 135.699 101.504 136.189C102.528 136.68 103.593 136.923 104.7 136.923C106.312 136.923 107.683 136.459 108.811 135.525C109.94 134.592 110.504 133.223 110.504 131.413C110.504 130.461 110.311 129.628 109.925 128.919C109.539 128.211 108.996 127.64 108.293 127.201C107.591 126.764 106.923 126.487 106.291 126.373C105.657 126.259 104.616 126.201 103.164 126.201H102.733V123.973H103.58C107.344 123.973 109.225 122.452 109.225 119.407C109.225 117.992 108.797 116.868 107.939 116.037C107.08 115.204 105.996 114.787 104.683 114.787C102.977 114.787 101.377 115.559 99.88 117.101"
          fill="white"/>
    <path d="M149.445 118.475L145.092 127.669H153.777L149.445 118.475ZM149.765 113.077L161.611 138.477H158.869L154.875 130.12H143.932L139.975 138.477H137.143L149.144 113.077"
          fill="white"/>
    <path d="M190.651 106.999H192.929C193.321 107.597 193.845 108.047 194.501 108.345C195.157 108.644 195.94 108.795 196.849 108.795C197.771 108.795 198.512 108.663 199.077 108.397C199.641 108.133 200.176 107.667 200.683 106.999H202.893C202.64 108.035 201.992 108.901 200.951 109.597C199.908 110.295 198.536 110.641 196.832 110.641C195.14 110.641 193.759 110.3 192.688 109.615C191.617 108.929 190.937 108.057 190.651 106.999ZM206.744 138.476H204.101V119.001L187.352 138.476H186.783V113.077H189.321V132.887L206.175 113.077H206.744"
          fill="white"/>
    <path d="M234.109 113.077H236.647V123.731H249.581V113.077H252.119V138.477H249.581V126.217H236.647V138.477H234.109"
          fill="white"/>
    <path d="M330.524 138.477H327.883V119.003L311.133 138.477H310.563V113.077H313.101V132.888L329.955 113.077H330.524"
          fill="white"/>
    <path d="M391.433 115.564V124.18L395.733 124.232C397.472 124.232 398.743 124.075 399.551 123.759C400.355 123.441 400.988 122.931 401.448 122.224C401.909 121.517 402.14 120.728 402.14 119.855C402.14 119.004 401.909 118.227 401.448 117.52C400.988 116.813 400.381 116.311 399.628 116.012C398.873 115.712 397.639 115.564 395.924 115.564H391.433ZM388.896 113.077H393.955C396.855 113.077 398.812 113.203 399.827 113.457C401.276 113.815 402.463 114.547 403.381 115.659C404.303 116.769 404.764 118.165 404.764 119.845C404.764 121.537 404.315 122.933 403.417 124.033C402.519 125.133 401.281 125.871 399.705 126.252C398.555 126.528 396.4 126.667 393.245 126.667H391.433V138.477H388.896"
          fill="white"/>
    <path d="M443.452 113.077H458.009V115.564H445.991V123.524H457.905V126.011H445.991V135.992H457.905V138.477H443.452"
          fill="white"/>
    <path d="M494.832 138.477L498.469 113.077H498.881L509.208 133.919L519.433 113.077H519.841L523.496 138.477H521.008L518.497 120.312L509.517 138.477H508.867L499.78 120.173L497.285 138.477"
          fill="white"/>
    <path d="M574.289 114.908C572.411 114.908 570.629 115.397 568.945 116.377C567.261 117.356 565.947 118.675 565.001 120.333C564.056 121.992 563.584 123.841 563.584 125.88C563.584 128.899 564.631 131.448 566.723 133.528C568.816 135.607 571.337 136.648 574.289 136.648C576.261 136.648 578.087 136.168 579.763 135.213C581.44 134.257 582.749 132.948 583.689 131.289C584.629 129.631 585.099 127.788 585.099 125.76C585.099 123.744 584.629 121.921 583.689 120.291C582.749 118.66 581.427 117.356 579.72 116.377C578.013 115.397 576.204 114.908 574.289 114.908ZM574.177 112.437C578.025 112.437 581.244 113.721 583.836 116.289C586.428 118.856 587.723 122.016 587.723 125.769C587.723 129.488 586.429 132.641 583.844 135.231C581.259 137.821 578.105 139.116 574.384 139.116C570.617 139.116 567.439 137.827 564.847 135.248C562.256 132.669 560.959 129.549 560.959 125.889C560.959 123.449 561.549 121.187 562.731 119.103C563.911 117.02 565.521 115.388 567.559 114.209C569.597 113.028 571.804 112.437 574.177 112.437Z"
          fill="white"/>
    <path d="M626.379 113.077H628.915V123.731H641.851V113.077H644.388V138.477H641.851V126.217H628.915V138.477H626.379"
          fill="white"/>
    <path d="M681.644 115.564V113.077H695.561V115.564H689.896V138.477H687.307V115.564" fill="white"/>
    <path d="M3.05176e-05 78.9947V0.0187181H51.8334V6.91605H7.78535V35.9467H44.9374V42.3987H7.78535V78.9947"
          fill="white"/>
    <path d="M65.5147 78.9947V0.0187181H73.3014V72.0974H118.907V78.9947" fill="white"/>
    <path d="M173.663 48.1827L158.06 9.13996L142.455 48.1827H173.663ZM154.833 0.0186726H161.396L194.209 78.9933H185.977L176.109 54.3H140.009L130.141 78.9933H121.797"
          fill="white"/>
    <path d="M254.053 6.91464H225.911V78.9933H218.125V6.91464H189.983V0.0186726H254.053" fill="white"/>
    <path d="M360.007 78.9947H326.992V75.52H356.535V3.47334H284.553V75.52H304.627L319.399 59.504L321.952 61.8587L306.148 78.9947H281.08V3.31915e-05H360.007"
          fill="white"/>
    <path d="M422.933 0.57601H430.275L441.397 28.6067L452.631 0.57601H460.084L446.293 34.28L461.419 69.9854L490.005 0.0200202H498.46L464.979 78.9947H458.081L441.509 39.952L424.824 78.9947H418.039L384.669 0.0200202H393.012L421.709 69.9854L436.727 34.28"
          fill="white"/>
    <path d="M562.64 72.0974V78.9947H509.581V0.0187181H561.639V6.91605H517.368V35.392H555.965V41.956H517.368V72.0974"
          fill="white"/>
    <path d="M577.321 78.9947V0.0200202H585.108V72.0974H630.712V78.9947" fill="white"/>
    <path d="M642.168 78.9947V0.0200202H649.955V72.0974H695.56V78.9947" fill="white"/>
</svg>
