<svg width="44" height="44" viewBox="0 0 44 44" fill="none" xmlns="http://www.w3.org/2000/svg">
    <path d="M42.8439 0.4375H21.2814C21.0907 0.4375 20.9079 0.513225 20.7731 0.648017C20.6383 0.782809 20.5626 0.965626 20.5626 1.15625V13.4181C20.0852 13.3606 19.6026 13.3606 19.1251 13.4181V10.5C19.1251 10.3094 19.0494 10.1266 18.9146 9.99177C18.7798 9.85698 18.597 9.78125 18.4064 9.78125H15.4882C15.5171 9.54276 15.5315 9.30274 15.5314 9.0625C15.5301 8.59331 15.4771 8.12568 15.3732 7.66813C15.6679 7.66813 15.9554 7.625 16.2501 7.625C17.1557 7.6254 18.0573 7.74625 18.9311 7.98438L19.3192 6.60437C18.32 6.32608 17.2874 6.18583 16.2501 6.1875C15.796 6.19072 15.3425 6.21951 14.8917 6.27375C14.4702 5.38046 13.8498 4.59554 13.078 3.97919C12.3062 3.36283 11.4035 2.93139 10.4391 2.71797C9.47474 2.50454 8.47429 2.51479 7.51449 2.74793C6.55468 2.98107 5.66101 3.4309 4.90199 4.06294C4.14297 4.69498 3.53877 5.49245 3.13571 6.39418C2.73265 7.29592 2.54144 8.27798 2.57674 9.26506C2.61203 10.2521 2.8729 11.218 3.33934 12.0887C3.80578 12.9593 4.4654 13.7116 5.26762 14.2878C4.92245 15.3879 4.74792 16.5345 4.75012 17.6875V18.205L0.538244 25.2272C0.473544 25.3363 0.438879 25.4606 0.437772 25.5875C0.436664 25.7143 0.469152 25.8392 0.531936 25.9495C0.59472 26.0597 0.685563 26.1514 0.795237 26.2151C0.90491 26.2789 1.02951 26.3125 1.15637 26.3125H4.75012V29.9062C4.75012 30.4781 4.97729 31.0266 5.38167 31.4309C5.78604 31.8353 6.3345 32.0625 6.90637 32.0625H12.0239L12.5773 36.49L5.17418 37.6256C4.68028 37.7025 4.20784 37.8815 3.78706 38.1513C3.36627 38.4211 3.0064 38.7757 2.73043 39.1925L0.574181 42.4484C0.511098 42.5577 0.477887 42.6816 0.477887 42.8078C0.477887 42.934 0.511098 43.0579 0.574181 43.1672C0.629193 43.2775 0.711633 43.3717 0.813586 43.441C0.915539 43.5102 1.03358 43.552 1.15637 43.5625H27.0314C27.222 43.5625 27.4048 43.4868 27.5396 43.352C27.6744 43.2172 27.7501 43.0344 27.7501 42.8438V24.875H26.3126V42.125H2.50043L3.93793 39.9688C4.1002 39.7216 4.31154 39.5106 4.55883 39.3486C4.80612 39.1866 5.08408 39.0772 5.37543 39.0272L13.4829 37.8125C13.6702 37.7857 13.8394 37.6862 13.9538 37.5355C14.0681 37.3848 14.1185 37.1951 14.0939 37.0075L13.3751 31.2575C13.3539 31.0822 13.269 30.9208 13.1364 30.8042C13.0038 30.6875 12.833 30.6237 12.6564 30.625H6.90637C6.71574 30.625 6.53293 30.5493 6.39814 30.4145C6.26334 30.2797 6.18762 30.0969 6.18762 29.9062V25.5938C6.18762 25.4031 6.11189 25.2203 5.9771 25.0855C5.84231 24.9507 5.65949 24.875 5.46887 24.875H2.42856L6.08699 18.7728C6.15282 18.6619 6.18758 18.5353 6.18762 18.4062V17.6875C6.19151 16.7887 6.31477 15.8944 6.55418 15.0281C7.34849 15.3612 8.20132 15.5322 9.06262 15.5312C9.54655 15.5316 10.0289 15.4761 10.5001 15.3659V17.6875C10.5001 17.8781 10.5758 18.0609 10.7106 18.1957C10.8454 18.3305 11.0282 18.4062 11.2189 18.4062H13.5404C13.4303 18.8775 13.3748 19.3598 13.3751 19.8438C13.3759 21.2309 13.8225 22.581 14.6491 23.6949C15.4757 24.8089 16.6384 25.6276 17.9658 26.0303C19.2932 26.433 20.7148 26.3984 22.021 25.9316C23.3272 25.4647 24.4487 24.5903 25.2201 23.4375H30.6251V38.5312C30.6251 39.8656 31.1552 41.1453 32.0987 42.0889C33.0423 43.0324 34.322 43.5625 35.6564 43.5625C36.9907 43.5625 38.2705 43.0324 39.214 42.0889C40.1575 41.1453 40.6876 39.8656 40.6876 38.5312V23.4375H42.8439C43.0345 23.4375 43.2173 23.3618 43.3521 23.227C43.4869 23.0922 43.5626 22.9094 43.5626 22.7188V1.15625C43.5626 0.965626 43.4869 0.782809 43.3521 0.648017C43.2173 0.513225 43.0345 0.4375 42.8439 0.4375ZM4.03137 9.0625C4.03354 7.95606 4.40038 6.8812 5.07509 6.00429C5.7498 5.12738 6.69477 4.49734 7.7637 4.21169C8.83263 3.92604 9.96591 4.00072 10.9881 4.42416C12.0103 4.84761 12.8644 5.5962 13.4182 6.55406C11.7586 6.97773 10.2146 7.76677 8.89895 8.86355C7.58331 9.96033 6.52929 11.3372 5.81387 12.8934C5.25675 12.4223 4.80876 11.8357 4.50097 11.1742C4.19318 10.5126 4.03294 9.79211 4.03137 9.0625ZM9.06262 14.0938C8.36439 14.0922 7.67413 13.9453 7.03574 13.6625C7.66572 12.2351 8.61789 10.973 9.81755 9.97535C11.0172 8.97771 12.4317 8.27163 13.9501 7.9125C14.1042 8.52329 14.1335 9.15887 14.0364 9.78125H11.2189C11.0282 9.78125 10.8454 9.85698 10.7106 9.99177C10.5758 10.1266 10.5001 10.3094 10.5001 10.5V13.8853C10.033 14.0214 9.54915 14.0915 9.06262 14.0938ZM13.5979 11.2188C13.2234 12.0073 12.6515 12.6856 11.9376 13.1881V11.2188H13.5979ZM11.9376 16.9688V14.8484C13.4389 14.0991 14.5926 12.7987 15.1576 11.2188H17.6876V13.7559C16.1205 14.3239 14.8331 15.4748 14.0939 16.9688H11.9376ZM17.6876 15.3084V16.9688H15.7182C16.2207 16.2549 16.8991 15.683 17.6876 15.3084ZM19.8439 24.875C18.5095 24.875 17.2298 24.3449 16.2862 23.4014C15.3427 22.4578 14.8126 21.1781 14.8126 19.8438C14.8148 19.3572 14.885 18.8734 15.0211 18.4062H18.4064C18.597 18.4062 18.7798 18.3305 18.9146 18.1957C19.0494 18.0609 19.1251 17.8781 19.1251 17.6875V14.87C19.6012 14.7933 20.0865 14.7933 20.5626 14.87V22.7188C20.5626 22.9094 20.6383 23.0922 20.7731 23.227C20.9079 23.3618 21.0907 23.4375 21.2814 23.4375H23.3586C22.4197 24.3574 21.1582 24.8733 19.8439 24.875ZM24.3792 22H22.0001V15.3084C22.8587 15.7157 23.5845 16.3578 24.0933 17.1605C24.6021 17.9631 24.8731 18.8934 24.8751 19.8438C24.8748 20.5907 24.7052 21.3279 24.3792 22ZM36.3751 11.2188V37.0938H34.9376V11.2188H36.3751ZM37.8126 11.2188H39.2501V37.0938H37.8126V11.2188ZM32.6879 9.78125L35.6564 5.325L38.6248 9.78125H32.6879ZM32.0626 11.2188H33.5001V37.0938H32.0626V11.2188ZM35.6564 42.125C34.7032 42.125 33.7892 41.7464 33.1152 41.0724C32.4412 40.3985 32.0626 39.4844 32.0626 38.5312H39.2501C39.2501 39.4844 38.8715 40.3985 38.1975 41.0724C37.5236 41.7464 36.6095 42.125 35.6564 42.125ZM42.1251 22H40.6876V10.5C40.6865 10.3591 40.644 10.2216 40.5654 10.1047L36.2529 3.63594C36.1872 3.5381 36.0984 3.45793 35.9944 3.4025C35.8903 3.34707 35.7742 3.31808 35.6564 3.31808C35.5385 3.31808 35.4224 3.34707 35.3184 3.4025C35.2144 3.45793 35.1256 3.5381 35.0598 3.63594L30.7473 10.1047C30.6687 10.2216 30.6262 10.3591 30.6251 10.5V22H25.9389C26.5098 20.3835 26.4156 18.6064 25.677 17.0593C24.9385 15.5121 23.616 14.3214 22.0001 13.7488V1.875H42.1251V22Z"
          fill="#CFCFCF"/>
</svg>
