<svg width="48" height="48" viewBox="0 0 48 48" fill="none" xmlns="http://www.w3.org/2000/svg">
    <path d="M4.23525 0H43.7647C46.1038 0 48 1.89619 48 4.23525V43.7647C48 46.1037 46.1038 47.9999 43.7648 47.9999H4.23525C1.89619 48 0 46.1038 0 43.7648V4.23525C0 1.89619 1.89619 0 4.23525 0ZM2.82356 20.4706V31.0588H11.2942C11.6399 31.0588 11.9737 31.1857 12.2321 31.4154L18.5851 37.0625C19.1678 37.5804 19.2203 38.4728 18.7023 39.0556C18.1843 39.6383 17.2919 39.6908 16.7092 39.1729L10.7573 33.8824H2.82356V43.7648C2.82356 44.5445 3.45562 45.1765 4.23534 45.1765H43.7648C44.5445 45.1765 45.1765 44.5445 45.1765 43.7648V20.4706H40.9413C40.1616 20.4706 39.5295 19.8385 39.5295 19.0588C39.5295 18.2791 40.1616 17.647 40.9413 17.647H45.1765V4.23525C45.1765 3.45553 44.5445 2.82347 43.7648 2.82347H16.9412V5.64703C16.9412 6.42675 16.3091 7.05881 15.5294 7.05881C14.7497 7.05881 14.1176 6.42675 14.1176 5.64703V2.82356H4.23525C3.45553 2.82356 2.82347 3.45563 2.82347 4.23534V17.6471H14.1176V14.8236C14.1176 14.0438 14.7497 13.4118 15.5294 13.4118C16.3091 13.4118 16.9412 14.0438 16.9412 14.8236V17.6471H31.0588C31.8385 17.6471 32.4706 18.2792 32.4706 19.0589C32.4706 19.8386 31.8385 20.4707 31.0588 20.4707H28.2352V32.4707C28.2352 33.2504 27.6032 33.8825 26.8235 33.8825H22.5882C21.8085 33.8825 21.1764 33.2504 21.1764 32.4707C21.1764 31.691 21.8085 31.0589 22.5882 31.0589H25.4118V20.4706H2.82356Z"
          fill="#CFCFCF"/>
</svg>
