<svg width="46" height="52" viewBox="0 0 46 52" fill="none" xmlns="http://www.w3.org/2000/svg">
    <path d="M44.2795 17.1894H31.8234L30.3906 12.6811C31.2593 11.7502 31.7924 10.5023 31.7924 9.13159C31.7924 7.04184 30.5725 5.19767 28.701 4.37065V3.09949C28.701 1.93213 27.7513 0.982422 26.584 0.982422C25.4166 0.982422 24.4669 1.93213 24.4669 3.09949V4.37085C22.5954 5.19777 21.3755 7.04194 21.3755 9.13169C21.3755 10.5024 21.9086 11.7502 22.7773 12.6812L21.3445 17.1895H9.97697V13.3366C9.97696 13.1941 9.93951 13.0542 9.86837 12.9308C9.79723 12.8074 9.6949 12.7049 9.57164 12.6335C9.44387 12.5594 9.33947 12.4893 9.23851 12.4213C8.58394 11.9811 8.15017 11.8018 6.4684 11.8018C4.02003 11.8018 0.268311 14.5794 0.268311 18.0019V45.1573C0.268311 48.576 3.0497 51.3574 6.4684 51.3574H44.2796C44.4951 51.3574 44.7018 51.2718 44.8541 51.1194C45.0065 50.9671 45.0921 50.7604 45.0921 50.5449V18.0019C45.092 17.7864 45.0064 17.5797 44.854 17.4274C44.7016 17.275 44.495 17.1894 44.2795 17.1894ZM34.2288 30.1226L33.7855 33.1003L32.0809 27.7372H33.4708L34.2288 30.1226ZM17.3332 26.1123C17.1686 26.1123 17.0296 25.9732 17.0296 25.8086C17.0296 25.6439 17.1686 25.5048 17.3332 25.5048H35.8347C35.9993 25.5048 36.1384 25.6439 36.1384 25.8087C36.1384 25.9733 35.9993 26.1123 35.8347 26.1123H17.3332ZM19.697 27.7373H21.0869L19.3824 33.1004L18.9391 30.1227L19.697 27.7373ZM25.3894 14.2L22.313 23.8797H20.9231L24.1479 13.7332C24.54 13.9414 24.9572 14.0983 25.3894 14.2ZM25.6279 18.8144H27.54L29.1499 23.8797H24.0181L25.6279 18.8144ZM26.1443 17.1894L26.5839 15.8063L27.0234 17.1894H26.1443ZM30.8549 23.8797L27.7783 14.2001C28.2105 14.0984 28.6277 13.9415 29.0197 13.7333L32.2445 23.8798L30.8549 23.8797ZM25.5202 5.70863C25.6858 5.65723 25.8307 5.55418 25.9335 5.41454C26.0364 5.27491 26.0919 5.10603 26.0919 4.93259V3.09939C26.0919 2.83269 26.3173 2.60732 26.584 2.60732C26.8507 2.60732 27.076 2.83269 27.076 3.09939V4.93259C27.076 5.10603 27.1315 5.27491 27.2344 5.41454C27.3372 5.55418 27.4821 5.65723 27.6477 5.70863C29.1548 6.17623 30.1674 7.55179 30.1674 9.13159C30.1674 11.1074 28.56 12.7148 26.5841 12.7148C24.6082 12.7148 23.0007 11.1074 23.0007 9.13159C23.0006 7.55189 24.0131 6.17633 25.5202 5.70863ZM1.89321 18.0019C1.89321 15.4981 4.92231 13.4268 6.46829 13.4268C7.82172 13.4268 7.98147 13.5342 8.33156 13.7696L8.35197 13.7834V39.2495C7.74285 39.0558 7.10749 38.9572 6.46829 38.9571C4.65886 38.9571 3.02766 39.7365 1.89321 40.977V18.0019ZM43.467 49.7324H6.46829C3.94558 49.7324 1.89321 47.68 1.89321 45.1573C1.89321 42.6345 3.94558 40.5821 6.46829 40.5821C7.27189 40.5818 8.0614 40.7931 8.75731 41.195C8.8808 41.2666 9.02097 41.3043 9.16371 41.3045C9.30645 41.3047 9.44671 41.2672 9.57037 41.1959C9.69403 41.1247 9.79672 41.022 9.8681 40.8984C9.93948 40.7748 9.97704 40.6346 9.97697 40.4919V18.8144H20.828L19.218 23.8797H17.3331C16.2696 23.8797 15.4045 24.745 15.4045 25.8086C15.4045 26.8721 16.2697 27.7372 17.3331 27.7372H17.9919L17.3332 29.8098C17.2957 29.9279 17.2856 30.053 17.3039 30.1755L18.2911 36.8069C18.3198 36.9996 18.4168 37.1755 18.5644 37.3027C18.712 37.4299 18.9003 37.4998 19.0952 37.4997C19.2676 37.4997 19.4355 37.4448 19.5746 37.3429C19.7137 37.2411 19.8169 37.0976 19.8691 36.9333L22.7918 27.7372H30.3758L33.2986 36.9333C33.3542 37.1083 33.4674 37.2593 33.6198 37.3617C33.7722 37.464 33.9548 37.5118 34.1378 37.4971C34.3208 37.4825 34.4935 37.4062 34.6276 37.2809C34.7618 37.1555 34.8495 36.9885 34.8765 36.8069L35.8637 30.1755C35.882 30.053 35.872 29.9279 35.8344 29.8098L35.1757 27.7372H35.8346C36.8981 27.7372 37.7633 26.8719 37.7633 25.8085C37.7633 24.7449 36.898 23.8797 35.8346 23.8797H33.9496L32.3397 18.8144H43.4669V49.7324H43.467ZM36.0936 39.7276H14.8158C13.2131 39.7276 11.909 41.0317 11.909 42.6344V43.4721C11.909 45.0749 13.2131 46.3788 14.8158 46.3788H36.0936C36.2362 46.3788 36.3763 46.3413 36.4998 46.27L40.8527 43.757C40.9762 43.6857 41.0788 43.5831 41.1501 43.4596C41.2214 43.3361 41.259 43.1959 41.259 43.0533C41.259 42.9107 41.2214 42.7706 41.1501 42.647C41.0788 42.5235 40.9762 42.4209 40.8527 42.3496L36.4998 39.8365C36.3763 39.7652 36.2362 39.7276 36.0936 39.7276ZM17.3866 41.3526H35.281V42.2408H17.3866V41.3526ZM17.3866 43.8658H35.281V44.7538H17.3866V43.8658ZM13.534 43.4721V42.6344C13.534 41.9276 14.109 41.3526 14.8158 41.3526H15.7616V44.7538H14.8158C14.109 44.7538 13.534 44.1789 13.534 43.4721ZM36.9061 44.1591V41.9474L38.8214 43.0533L36.9061 44.1591ZM26.584 11.8903C28.1053 11.8903 29.3428 10.6527 29.3428 9.13159C29.3428 7.61029 28.1052 6.37275 26.584 6.37275C25.0628 6.37275 23.8251 7.61039 23.8251 9.13159C23.8251 10.6528 25.0627 11.8903 26.584 11.8903ZM26.584 7.99775C27.2092 7.99775 27.7178 8.50637 27.7178 9.13159C27.7178 9.75671 27.2092 10.2653 26.584 10.2653C25.9587 10.2653 25.4501 9.75671 25.4501 9.13159C25.4501 8.50637 25.9586 7.99775 26.584 7.99775Z"
          fill="#CFCFCF"/>
</svg>
