<svg width="53" height="49" viewBox="0 0 53 49" fill="none" xmlns="http://www.w3.org/2000/svg">
    <path fill-rule="evenodd" clip-rule="evenodd"
          d="M25.0657 21.5198C25.0657 21.2961 25.1546 21.0815 25.3128 20.9232C25.4711 20.765 25.6857 20.6761 25.9095 20.6761H31.9112C32.1349 20.6761 32.3495 20.765 32.5078 20.9232C32.666 21.0815 32.7549 21.2961 32.7549 21.5198C32.7549 21.7436 32.666 21.9582 32.5078 22.1165C32.3495 22.2747 32.1349 22.3636 31.9112 22.3636H25.9095C25.6857 22.3636 25.4711 22.2747 25.3128 22.1165C25.1546 21.9582 25.0657 21.7436 25.0657 21.5198ZM25.9095 17.1366H31.9112C32.1349 17.1366 32.3495 17.0477 32.5078 16.8894C32.666 16.7312 32.7549 16.5166 32.7549 16.2928C32.7549 16.069 32.666 15.8544 32.5078 15.6962C32.3495 15.538 32.1349 15.4491 31.9112 15.4491H25.9095C25.6857 15.4491 25.4711 15.538 25.3128 15.6962C25.1546 15.8544 25.0657 16.069 25.0657 16.2928C25.0657 16.5166 25.1546 16.7312 25.3128 16.8894C25.4711 17.0477 25.6857 17.1366 25.9095 17.1366ZM25.9095 11.9096H31.9112C32.1349 11.9096 32.3495 11.8207 32.5078 11.6625C32.666 11.5043 32.7549 11.2897 32.7549 11.0659C32.7549 10.8421 32.666 10.6275 32.5078 10.4693C32.3495 10.311 32.1349 10.2221 31.9112 10.2221H25.9095C25.6857 10.2221 25.4711 10.311 25.3128 10.4693C25.1546 10.6275 25.0657 10.8421 25.0657 11.0659C25.0657 11.2897 25.1546 11.5043 25.3128 11.6625C25.4711 11.8207 25.6857 11.9096 25.9095 11.9096ZM5.15426 15.2115C4.99513 15.1503 4.8583 15.0423 4.76179 14.9017C4.66528 14.7611 4.61362 14.5946 4.61363 14.4241V12.1881C4.61362 12.0176 4.66528 11.8511 4.76179 11.7105C4.8583 11.5699 4.99513 11.4619 5.15426 11.4006L6.12309 11.0277C6.27684 10.5145 6.48255 10.0184 6.73703 9.54693L6.31536 8.5975C6.24613 8.44169 6.22574 8.26856 6.25688 8.10093C6.28802 7.9333 6.36923 7.77905 6.48981 7.65851L8.07089 6.07732C8.19143 5.95671 8.3457 5.87546 8.51335 5.8443C8.681 5.81314 8.85416 5.83352 9.00998 5.90277L9.95952 6.32454C10.4309 6.07012 10.9271 5.86445 11.4402 5.71071L11.8132 4.74177C11.8745 4.58264 11.9825 4.44581 12.1231 4.3493C12.2637 4.25279 12.4302 4.20114 12.6007 4.20114H14.8367C15.0072 4.20114 15.1737 4.25279 15.3143 4.3493C15.4549 4.44581 15.5629 4.58264 15.6241 4.74177L15.9971 5.71071C16.5102 5.86445 17.0063 6.07012 17.4776 6.32454L18.4273 5.90277C18.5831 5.83361 18.7563 5.81327 18.9239 5.84443C19.0915 5.87559 19.2458 5.95678 19.3664 6.07732L20.9476 7.65851C21.0681 7.77905 21.1494 7.9333 21.1805 8.10093C21.2116 8.26856 21.1913 8.44169 21.122 8.5975L20.7005 9.54661C20.955 10.0182 21.1608 10.5145 21.3145 11.0278L22.2831 11.4006C22.4423 11.4619 22.5791 11.5699 22.6756 11.7105C22.7721 11.851 22.8238 12.0176 22.8238 12.1881V14.424C22.8238 14.5945 22.7721 14.761 22.6756 14.9016C22.5791 15.0422 22.4422 15.1502 22.2831 15.2114L21.3141 15.5845C21.1604 16.0976 20.9547 16.5936 20.7002 17.0649L21.122 18.0146C21.1913 18.1704 21.2116 18.3435 21.1805 18.5112C21.1494 18.6788 21.0681 18.833 20.9476 18.9536L19.3664 20.5348C19.2459 20.6554 19.0916 20.7367 18.9239 20.7678C18.7563 20.799 18.5831 20.7786 18.4273 20.7093L17.4782 20.2878C17.0066 20.5423 16.5103 20.7481 15.997 20.9018L15.6242 21.8703C15.563 22.0295 15.455 22.1663 15.3144 22.2628C15.1739 22.3594 15.0073 22.411 14.8368 22.4111H12.6008C12.4303 22.4111 12.2638 22.3594 12.1232 22.2629C11.9826 22.1664 11.8746 22.0295 11.8133 21.8704L11.4403 20.9014C10.9272 20.7477 10.4311 20.542 9.95973 20.2875L9.0102 20.7093C8.85437 20.7785 8.68123 20.7989 8.51359 20.7677C8.34595 20.7366 8.19168 20.6554 8.0711 20.5349L6.48991 18.9538C6.36935 18.8332 6.28815 18.6789 6.25701 18.5113C6.22587 18.3437 6.24625 18.1705 6.31547 18.0147L6.73703 17.0656C6.48248 16.594 6.27673 16.0977 6.12299 15.5844L5.15426 15.2115ZM6.30113 13.8448L7.12916 14.1635C7.25703 14.2127 7.371 14.2924 7.46121 14.3955C7.55141 14.4987 7.61515 14.6222 7.64691 14.7555C7.79965 15.3978 8.05409 16.0115 8.40059 16.5735C8.47249 16.6902 8.51486 16.8226 8.52405 16.9594C8.53324 17.0962 8.50896 17.2331 8.45332 17.3584L8.09283 18.17L8.85473 18.9319L9.66684 18.5711C9.7921 18.5155 9.92905 18.4912 10.0658 18.5003C10.2026 18.5095 10.3351 18.5519 10.4517 18.6239C11.0136 18.9702 11.6271 19.2246 12.2691 19.3775C12.4024 19.4091 12.526 19.4728 12.6292 19.563C12.7323 19.6532 12.812 19.7672 12.8612 19.8951L13.18 20.7234H14.2574L14.576 19.8954C14.6252 19.7675 14.7049 19.6535 14.808 19.5632C14.9112 19.473 15.0348 19.4093 15.1682 19.3776C15.8104 19.2248 16.4241 18.9704 16.9861 18.624C17.1027 18.552 17.2352 18.5096 17.372 18.5004C17.5088 18.4912 17.6457 18.5155 17.771 18.5713L18.5826 18.9317L19.3445 18.1698L18.984 17.3577C18.9283 17.2325 18.904 17.0956 18.9132 16.9588C18.9224 16.8221 18.9647 16.6896 19.0366 16.5729C19.3829 16.0111 19.6373 15.3976 19.7902 14.7556C19.8219 14.6223 19.8856 14.4987 19.9758 14.3955C20.066 14.2923 20.18 14.2127 20.3079 14.1635L21.1364 13.8447V12.7673L20.3083 12.4486C20.1804 12.3994 20.0664 12.3197 19.9762 12.2166C19.886 12.1134 19.8223 11.9898 19.7906 11.8565C19.6379 11.2142 19.3834 10.6005 19.0369 10.0386C18.965 9.92192 18.9226 9.78946 18.9134 9.65269C18.9042 9.51593 18.9285 9.37899 18.9842 9.25372L19.3447 8.44203L18.5828 7.68013L17.7706 8.04083C17.6454 8.09652 17.5084 8.12082 17.3717 8.11163C17.2349 8.10244 17.1024 8.06004 16.9857 7.9881C16.4239 7.64183 15.8103 7.38745 15.1683 7.23452C15.035 7.20282 14.9114 7.13911 14.8083 7.04892C14.7051 6.95873 14.6255 6.84476 14.5763 6.71688L14.2575 5.88853H13.18L12.8612 6.71688C12.812 6.84476 12.7323 6.95873 12.6292 7.04892C12.526 7.13911 12.4025 7.20282 12.2692 7.23452C11.6271 7.38736 11.0135 7.64179 10.4516 7.9882C10.3349 8.06005 10.2025 8.10239 10.0657 8.11156C9.92901 8.12073 9.79209 8.09645 9.66684 8.04083L8.85473 7.68013L8.09283 8.44203L8.45343 9.25404C8.50906 9.37931 8.53334 9.51624 8.52417 9.653C8.515 9.78975 8.47265 9.92222 8.4008 10.0389C8.05438 10.6008 7.79998 11.2144 7.64722 11.8565C7.61548 11.9898 7.55175 12.1133 7.46154 12.2165C7.37133 12.3196 7.25736 12.3993 7.12948 12.4485L6.30123 12.7673L6.30113 13.8448ZM8.97518 13.3061C8.97518 10.6906 11.1031 8.56269 13.7186 8.56269C16.3342 8.56269 18.4621 10.6906 18.4621 13.3061C18.4621 15.9217 16.3342 18.0496 13.7186 18.0496C11.1031 18.0496 8.97518 15.9217 8.97518 13.3061ZM10.6627 13.3061C10.6627 14.9912 12.0336 16.3621 13.7186 16.3621C15.4037 16.3621 16.7746 14.9912 16.7746 13.3061C16.7746 11.6211 15.4037 10.2502 13.7186 10.2502C12.0336 10.2502 10.6627 11.6211 10.6627 13.3061ZM21.985 22.9623C21.8917 22.958 21.7986 22.9721 21.7108 23.0038C21.6231 23.0355 21.5424 23.0841 21.4734 23.147C21.4044 23.2098 21.3485 23.2856 21.3089 23.3701C21.2692 23.4546 21.2466 23.546 21.2423 23.6392C21.2379 23.7325 21.252 23.8256 21.2837 23.9134C21.3154 24.0011 21.364 24.0818 21.4269 24.1508C21.4897 24.2198 21.5656 24.2757 21.65 24.3153C21.7345 24.355 21.8259 24.3776 21.9191 24.382C22.1074 24.3907 22.2914 24.3243 22.4307 24.1973C22.57 24.0704 22.6531 23.8933 22.6619 23.7051C22.6706 23.5168 22.6042 23.3328 22.4772 23.1935C22.3503 23.0542 22.1732 22.9711 21.985 22.9623ZM52.151 34.7564C51.9471 35.2187 51.5763 35.5732 51.1072 35.7552L48.9753 36.5817C48.7584 36.666 48.5277 36.7093 48.295 36.7095C47.5377 36.7095 46.8219 36.2509 46.5323 35.5037L46.4369 35.2578L45.1055 35.8133C45.1503 36.3022 45.0481 36.7934 44.8122 37.2239C44.5213 37.7554 44.0451 38.1613 43.4742 38.3643C43.6025 38.9346 43.5325 39.5503 43.2317 40.0973C42.9129 40.677 42.3858 41.0982 41.7475 41.2834C41.5025 41.3545 41.2521 41.3892 41.0051 41.3831C40.9876 41.7569 40.8846 42.1218 40.7041 42.4496C40.3839 43.0319 39.8542 43.4543 39.2125 43.639C38.9134 43.7257 38.6006 43.7554 38.2904 43.7266C38.2424 44.2801 38.0082 44.801 37.626 45.2042V46.4841C37.626 47.4671 36.8262 48.2668 35.8431 48.2668H1.78284C0.799769 48.2668 0 47.4671 0 46.4841V1.78274C0 0.79977 0.799769 0 1.78284 0H30.5704C31.0536 0 31.4895 0.180563 31.8311 0.52207L37.1038 5.79466C37.4454 6.13628 37.626 6.57228 37.626 7.05533V24.6649C38.253 24.8181 38.8169 25.048 39.3205 25.2538C40.3361 25.6689 40.9377 25.8894 41.493 25.6009L42.4868 25.0689L42.2382 24.4277C41.8619 23.4571 42.3455 22.3612 43.3161 21.9849L45.4484 21.1583C45.9175 20.9764 46.4304 20.9885 46.8926 21.1925C47.3547 21.3964 47.7094 21.7671 47.8914 22.2362L52.1851 33.3121C52.367 33.7813 52.3549 34.2942 52.151 34.7564ZM31.8033 2.88077V5.82261H34.7451L31.8033 2.88077ZM35.9385 46.484V45.9876C35.8952 45.99 35.852 45.9921 35.8089 45.9921C35.3874 45.9922 34.9733 45.8814 34.6082 45.6709L34.2033 45.4384C33.8895 45.8067 33.4761 46.0767 33.0127 46.2161C32.7725 46.2892 32.5229 46.3265 32.2719 46.3268C31.8615 46.3268 31.4555 46.2261 31.0846 46.0277C30.6213 45.7806 30.2465 45.3952 30.0125 44.9252C29.3793 45.1262 28.6714 45.0796 28.0505 44.7475C27.6419 44.5289 27.3015 44.2019 27.0667 43.8024C26.3862 44.0896 25.5878 44.0793 24.8888 43.7055C24.6727 43.5901 24.4745 43.4439 24.3005 43.2714H5.71482C5.49105 43.2714 5.27644 43.1825 5.1182 43.0243C4.95997 42.866 4.87107 42.6514 4.87107 42.4277C4.87107 42.2039 4.95997 41.9893 5.1182 41.831C5.27644 41.6728 5.49105 41.5839 5.71482 41.5839H23.5549C23.5511 41.5094 23.5505 41.4348 23.5533 41.3603C23.2122 41.3314 22.8805 41.2333 22.5785 41.072C21.9838 40.7538 21.5479 40.2215 21.3513 39.5728C21.1975 39.0653 21.2058 38.5358 21.3687 38.0445H5.71482C5.49105 38.0445 5.27644 37.9556 5.1182 37.7973C4.95997 37.6391 4.87107 37.4245 4.87107 37.2007C4.87107 36.977 4.95997 36.7623 5.1182 36.6041C5.27644 36.4459 5.49105 36.357 5.71482 36.357H21.9629C21.9104 36.1572 21.8722 35.9573 21.837 35.7677C21.7694 35.4042 21.6852 34.9518 21.532 34.8923C21.4369 34.8554 21.2234 34.7668 20.5039 34.4474L20.3723 34.7449C20.0609 35.4496 19.368 35.8696 18.6428 35.8696C18.3882 35.8696 18.1297 35.8178 17.8823 35.7086L15.7906 34.784C15.3304 34.5806 14.9766 34.2092 14.7942 33.7381C14.6803 33.4454 14.6414 33.129 14.681 32.8174H5.71482C5.49105 32.8174 5.27644 32.7285 5.1182 32.5703C4.95997 32.4121 4.87107 32.1975 4.87107 31.9737C4.87107 31.7499 4.95997 31.5353 5.1182 31.3771C5.27644 31.2188 5.49105 31.1299 5.71482 31.1299H15.3413L16.9057 27.5904H5.71482C5.49105 27.5904 5.27644 27.5015 5.1182 27.3433C4.95997 27.1851 4.87107 26.9704 4.87107 26.7467C4.87107 26.5229 4.95997 26.3083 5.1182 26.15C5.27644 25.9918 5.49105 25.9029 5.71482 25.9029H17.6516L19.6292 21.4285C19.8326 20.9683 20.204 20.6145 20.6751 20.4322C21.1463 20.2499 21.6593 20.2616 22.1194 20.4652L24.211 21.3895C24.6711 21.5929 25.0251 21.9643 25.2073 22.4354C25.3896 22.9065 25.378 23.4194 25.1747 23.8797L24.9117 24.4747L26.0547 25.002C26.0751 25.0114 26.0953 25.0217 26.115 25.0328C26.7494 25.3898 27.3863 25.2649 28.4579 25.0139C29.7635 24.7077 31.3639 24.3341 33.2432 25.3832C34.2267 24.7981 35.1235 24.55 35.9384 24.501V7.51011H31.4291C30.7049 7.51011 30.1158 6.92096 30.1158 6.19692V1.6875H1.78284C1.75778 1.68814 1.73391 1.69838 1.71617 1.7161C1.69843 1.73382 1.68817 1.75767 1.6875 1.78274V46.484C1.6875 46.5347 1.73201 46.5792 1.78284 46.5792H35.8431C35.8682 46.5786 35.8921 46.5683 35.9098 46.5506C35.9275 46.5329 35.9378 46.509 35.9385 46.484ZM23.6312 23.1975C23.6522 23.1489 23.6531 23.0938 23.6336 23.0445C23.6149 22.9949 23.5772 22.9548 23.5289 22.933L21.4373 22.0086C21.4126 21.9977 21.386 21.992 21.359 21.992C21.3274 21.992 21.3009 21.9996 21.2841 22.0062C21.2548 22.0174 21.2012 22.0462 21.1726 22.1109L18.9793 27.0734L18.9771 27.0785L16.6693 32.2999L16.6666 32.3062L16.3705 32.976C16.3495 33.0246 16.3486 33.0797 16.3681 33.129C16.3795 33.1583 16.4082 33.2119 16.473 33.2405L18.5646 34.165C18.6133 34.1858 18.6683 34.1868 18.7177 34.1676C18.7671 34.1485 18.8071 34.1108 18.8291 34.0626L23.6312 23.1975ZM35.7349 42.5251C35.6858 42.733 35.6102 42.9337 35.51 43.1224L35.0515 43.9795L35.4486 44.2076C35.6206 44.3066 35.825 44.3302 36.0241 44.2742C36.1276 44.2452 36.2244 44.196 36.3088 44.1294C36.3932 44.0628 36.4636 43.9802 36.5159 43.8863C36.7269 43.5029 36.5844 43.015 36.1986 42.7987C36.1612 42.7779 35.7349 42.5251 35.7349 42.5251ZM33.6755 41.1833C33.3632 41.0165 32.9709 41.0693 32.71 41.3034L31.4382 43.7477C31.4224 44.0708 31.5933 44.3862 31.8803 44.5397C32.0776 44.6452 32.3058 44.6671 32.5231 44.6013C32.7403 44.5354 32.9181 44.3905 33.0235 44.1932L34.0219 42.3266C34.1742 42.0416 34.1474 41.6872 33.9537 41.4235C33.8802 41.3235 33.7852 41.2414 33.6755 41.1833ZM30.7844 39.637C30.472 39.4704 30.0802 39.5227 29.8194 39.7559L28.4022 42.5002C28.398 42.8142 28.5663 43.1099 28.8461 43.2596C29.2051 43.4516 29.6509 43.3568 29.9031 43.0423L31.2186 40.5139C31.2721 40.1639 31.0983 39.8044 30.7844 39.637ZM27.8927 38.0904C27.6073 37.9382 27.2622 37.9656 27.0022 38.151L25.3379 41.0742C25.2663 41.2083 25.2322 41.3593 25.2392 41.5112C25.2462 41.6632 25.294 41.8104 25.3776 41.9374C25.3828 41.9448 25.3884 41.9518 25.3935 41.9594C25.4689 42.0671 25.5686 42.1556 25.6845 42.2178C26.0947 42.4369 26.6089 42.2787 26.8312 41.8647L28.3268 38.9685C28.3809 38.618 28.2069 38.2579 27.8927 38.0904ZM25.213 36.1478C24.8018 35.9281 24.2886 36.0836 24.0691 36.494L23.0279 38.4406C22.9225 38.6378 22.9005 38.8662 22.9665 39.0835C23.0324 39.3007 23.1773 39.4784 23.3745 39.5839C23.6564 39.7347 23.9987 39.7089 24.2581 39.5276L25.5923 37.2184C25.7563 36.8247 25.5905 36.3493 25.213 36.1478ZM43.3471 35.6843C43.2734 35.5325 43.1554 35.4067 43.0086 35.3235L37.3377 32.0913C36.4776 31.601 35.3255 32.0674 33.9916 32.6076C31.9691 33.4262 29.1992 34.5476 26.8928 31.5799C26.8018 31.463 26.7368 31.328 26.7022 31.1839C26.6677 31.0399 26.6643 30.8901 26.6924 30.7446C26.7205 30.5991 26.7794 30.4613 26.8652 30.3405C26.9509 30.2197 27.0615 30.1186 27.1895 30.044C28.7703 29.1214 30.1039 28.1159 31.1537 27.0552C31.3283 26.8788 31.508 26.7074 31.6924 26.5413C30.6849 26.2259 29.7832 26.4367 28.843 26.657C27.766 26.9096 26.5464 27.1953 25.3191 26.5212L24.2295 26.0184L21.1861 32.904C21.8175 33.1845 22.0585 33.2866 22.1427 33.3194C22.8871 33.6085 23.1944 34.2358 23.3567 34.8232C24.1142 34.292 25.1371 34.1947 26.0076 34.6594C26.6717 35.0137 27.1162 35.628 27.2778 36.3139C27.7656 36.2714 28.2552 36.3714 28.6872 36.6018C29.2179 36.8841 29.6303 37.3466 29.8502 37.9061C30.4369 37.7791 31.0496 37.865 31.5788 38.1484C32.1095 38.4306 32.5219 38.8931 32.7418 39.4525C33.3287 39.3252 33.9417 39.4113 34.4709 39.6952C34.7496 39.8436 34.9977 40.0436 35.202 40.2845L38.1491 41.9527C38.3303 42.053 38.5421 42.076 38.7455 42.0175C38.8468 41.989 38.9413 41.9406 39.0237 41.8752C39.106 41.8098 39.1746 41.7287 39.2253 41.6365C39.4348 41.2557 39.2908 40.7689 38.9045 40.5516C38.8667 40.5304 34.7151 38.1822 34.7151 38.1822C34.309 37.9538 34.165 37.4393 34.3936 37.0331C34.6221 36.627 35.1366 36.4829 35.5427 36.7116L40.6722 39.5978C40.7637 39.6481 40.8643 39.6797 40.9681 39.6909C41.0719 39.702 41.1769 39.6925 41.277 39.6628C41.3774 39.6343 41.4712 39.5861 41.5529 39.5211C41.6346 39.456 41.7026 39.3754 41.753 39.2839C41.9624 38.9032 41.8185 38.4165 41.432 38.199L41.4311 38.1984C40.2925 37.5608 38.8762 36.7676 37.5238 35.9933C37.4266 35.9388 37.3411 35.8656 37.2724 35.7779C37.2037 35.6902 37.153 35.5897 37.1233 35.4823C37.0935 35.375 37.0854 35.2627 37.0993 35.1522C37.1132 35.0416 37.1489 34.9349 37.2042 34.8382C37.2596 34.7415 37.3335 34.6567 37.4219 34.5887C37.5102 34.5208 37.6111 34.471 37.7187 34.4422C37.8264 34.4135 37.9387 34.4063 38.0491 34.4212C38.1595 34.4361 38.2659 34.4727 38.3621 34.5289C39.7086 35.2995 41.1219 36.0911 42.2578 36.7273L42.2583 36.7275C42.4374 36.8278 42.6477 36.8512 42.8504 36.7931C43.0591 36.7334 43.2306 36.5976 43.3335 36.4106C43.4571 36.1859 43.4621 35.9211 43.3471 35.6843ZM45.8266 33.6839L43.1014 26.654L42.2805 27.0933C40.9959 27.7615 39.7666 27.2591 38.6821 26.8159C37.2074 26.2131 35.8143 25.6439 33.7322 27.072C33.2782 27.3821 32.8147 27.7755 32.3531 28.242C31.3554 29.2501 30.1354 30.2065 28.719 31.0914C30.0131 32.2999 31.3741 31.8466 33.3584 31.0434C34.879 30.4277 36.6027 29.7301 38.1734 30.6253L43.8442 33.8575C44.0466 33.9726 44.2321 34.1151 44.3955 34.281L45.8266 33.6839ZM50.6118 33.9221L46.318 22.8462C46.3083 22.8218 46.2939 22.7995 46.2757 22.7807C46.2574 22.7618 46.2356 22.7467 46.2114 22.7363C46.1852 22.7248 46.1569 22.7188 46.1282 22.7186C46.1068 22.7186 46.0832 22.7221 46.0585 22.7317L43.9263 23.5582C43.8249 23.5976 43.7725 23.7164 43.8118 23.8178L48.1057 34.8938C48.1255 34.943 48.1637 34.9825 48.2122 35.0039C48.2607 35.0253 48.3157 35.0269 48.3653 35.0083L50.4973 34.1817C50.5217 34.172 50.544 34.1577 50.5629 34.1394C50.5817 34.1211 50.5968 34.0993 50.6072 34.0752C50.6198 34.0463 50.6374 33.9882 50.6118 33.9221ZM45.4672 23.6592C45.2787 23.6592 45.098 23.734 44.9647 23.8673C44.8315 24.0005 44.7566 24.1813 44.7566 24.3697C44.7566 24.5582 44.8315 24.7389 44.9647 24.8721C45.098 25.0054 45.2787 25.0803 45.4672 25.0803C45.6556 25.0803 45.8363 25.0054 45.9696 24.8721C46.1028 24.7389 46.1777 24.5582 46.1777 24.3697C46.1777 24.1813 46.1028 24.0005 45.9696 23.8673C45.8363 23.734 45.6556 23.6592 45.4672 23.6592Z"
          fill="#CFCFCF"/>
</svg>
